G04*
G04 #@! TF.GenerationSoftware,Altium Limited,Altium Designer,19.0.4 (130)*
G04*
G04 Layer_Color=8388736*
%FSLAX44Y44*%
%MOMM*%
G71*
G01*
G75*
G04:AMPARAMS|DCode=32|XSize=1.2mm|YSize=0.8mm|CornerRadius=0.2765mm|HoleSize=0mm|Usage=FLASHONLY|Rotation=90.000|XOffset=0mm|YOffset=0mm|HoleType=Round|Shape=RoundedRectangle|*
%AMROUNDEDRECTD32*
21,1,1.2000,0.2470,0,0,90.0*
21,1,0.6470,0.8000,0,0,90.0*
1,1,0.5530,0.1235,0.3235*
1,1,0.5530,0.1235,-0.3235*
1,1,0.5530,-0.1235,-0.3235*
1,1,0.5530,-0.1235,0.3235*
%
%ADD32ROUNDEDRECTD32*%
G04:AMPARAMS|DCode=33|XSize=1.15mm|YSize=1.05mm|CornerRadius=0.273mm|HoleSize=0mm|Usage=FLASHONLY|Rotation=0.000|XOffset=0mm|YOffset=0mm|HoleType=Round|Shape=RoundedRectangle|*
%AMROUNDEDRECTD33*
21,1,1.1500,0.5040,0,0,0.0*
21,1,0.6040,1.0500,0,0,0.0*
1,1,0.5460,0.3020,-0.2520*
1,1,0.5460,-0.3020,-0.2520*
1,1,0.5460,-0.3020,0.2520*
1,1,0.5460,0.3020,0.2520*
%
%ADD33ROUNDEDRECTD33*%
G04:AMPARAMS|DCode=34|XSize=1.2mm|YSize=0.8mm|CornerRadius=0.2765mm|HoleSize=0mm|Usage=FLASHONLY|Rotation=0.000|XOffset=0mm|YOffset=0mm|HoleType=Round|Shape=RoundedRectangle|*
%AMROUNDEDRECTD34*
21,1,1.2000,0.2470,0,0,0.0*
21,1,0.6470,0.8000,0,0,0.0*
1,1,0.5530,0.3235,-0.1235*
1,1,0.5530,-0.3235,-0.1235*
1,1,0.5530,-0.3235,0.1235*
1,1,0.5530,0.3235,0.1235*
%
%ADD34ROUNDEDRECTD34*%
G04:AMPARAMS|DCode=35|XSize=2.65mm|YSize=1.85mm|CornerRadius=0.279mm|HoleSize=0mm|Usage=FLASHONLY|Rotation=0.000|XOffset=0mm|YOffset=0mm|HoleType=Round|Shape=RoundedRectangle|*
%AMROUNDEDRECTD35*
21,1,2.6500,1.2920,0,0,0.0*
21,1,2.0920,1.8500,0,0,0.0*
1,1,0.5580,1.0460,-0.6460*
1,1,0.5580,-1.0460,-0.6460*
1,1,0.5580,-1.0460,0.6460*
1,1,0.5580,1.0460,0.6460*
%
%ADD35ROUNDEDRECTD35*%
G04:AMPARAMS|DCode=36|XSize=1.15mm|YSize=1.05mm|CornerRadius=0.273mm|HoleSize=0mm|Usage=FLASHONLY|Rotation=270.000|XOffset=0mm|YOffset=0mm|HoleType=Round|Shape=RoundedRectangle|*
%AMROUNDEDRECTD36*
21,1,1.1500,0.5040,0,0,270.0*
21,1,0.6040,1.0500,0,0,270.0*
1,1,0.5460,-0.2520,-0.3020*
1,1,0.5460,-0.2520,0.3020*
1,1,0.5460,0.2520,0.3020*
1,1,0.5460,0.2520,-0.3020*
%
%ADD36ROUNDEDRECTD36*%
%ADD37O,0.7500X1.7000*%
%ADD38O,1.7000X0.7500*%
G04:AMPARAMS|DCode=39|XSize=1.15mm|YSize=1.1mm|CornerRadius=0.2745mm|HoleSize=0mm|Usage=FLASHONLY|Rotation=270.000|XOffset=0mm|YOffset=0mm|HoleType=Round|Shape=RoundedRectangle|*
%AMROUNDEDRECTD39*
21,1,1.1500,0.5510,0,0,270.0*
21,1,0.6010,1.1000,0,0,270.0*
1,1,0.5490,-0.2755,-0.3005*
1,1,0.5490,-0.2755,0.3005*
1,1,0.5490,0.2755,0.3005*
1,1,0.5490,0.2755,-0.3005*
%
%ADD39ROUNDEDRECTD39*%
G04:AMPARAMS|DCode=40|XSize=1.25mm|YSize=0.75mm|CornerRadius=0.276mm|HoleSize=0mm|Usage=FLASHONLY|Rotation=0.000|XOffset=0mm|YOffset=0mm|HoleType=Round|Shape=RoundedRectangle|*
%AMROUNDEDRECTD40*
21,1,1.2500,0.1980,0,0,0.0*
21,1,0.6980,0.7500,0,0,0.0*
1,1,0.5520,0.3490,-0.0990*
1,1,0.5520,-0.3490,-0.0990*
1,1,0.5520,-0.3490,0.0990*
1,1,0.5520,0.3490,0.0990*
%
%ADD40ROUNDEDRECTD40*%
G04:AMPARAMS|DCode=41|XSize=1.15mm|YSize=1.1mm|CornerRadius=0.2745mm|HoleSize=0mm|Usage=FLASHONLY|Rotation=180.000|XOffset=0mm|YOffset=0mm|HoleType=Round|Shape=RoundedRectangle|*
%AMROUNDEDRECTD41*
21,1,1.1500,0.5510,0,0,180.0*
21,1,0.6010,1.1000,0,0,180.0*
1,1,0.5490,-0.3005,0.2755*
1,1,0.5490,0.3005,0.2755*
1,1,0.5490,0.3005,-0.2755*
1,1,0.5490,-0.3005,-0.2755*
%
%ADD41ROUNDEDRECTD41*%
G04:AMPARAMS|DCode=42|XSize=1.25mm|YSize=1.15mm|CornerRadius=0.24mm|HoleSize=0mm|Usage=FLASHONLY|Rotation=0.000|XOffset=0mm|YOffset=0mm|HoleType=Round|Shape=RoundedRectangle|*
%AMROUNDEDRECTD42*
21,1,1.2500,0.6700,0,0,0.0*
21,1,0.7700,1.1500,0,0,0.0*
1,1,0.4800,0.3850,-0.3350*
1,1,0.4800,-0.3850,-0.3350*
1,1,0.4800,-0.3850,0.3350*
1,1,0.4800,0.3850,0.3350*
%
%ADD42ROUNDEDRECTD42*%
G04:AMPARAMS|DCode=43|XSize=2.45mm|YSize=0.65mm|CornerRadius=0.275mm|HoleSize=0mm|Usage=FLASHONLY|Rotation=270.000|XOffset=0mm|YOffset=0mm|HoleType=Round|Shape=RoundedRectangle|*
%AMROUNDEDRECTD43*
21,1,2.4500,0.1000,0,0,270.0*
21,1,1.9000,0.6500,0,0,270.0*
1,1,0.5500,-0.0500,-0.9500*
1,1,0.5500,-0.0500,0.9500*
1,1,0.5500,0.0500,0.9500*
1,1,0.5500,0.0500,-0.9500*
%
%ADD43ROUNDEDRECTD43*%
G04:AMPARAMS|DCode=44|XSize=2.65mm|YSize=2.15mm|CornerRadius=0.275mm|HoleSize=0mm|Usage=FLASHONLY|Rotation=270.000|XOffset=0mm|YOffset=0mm|HoleType=Round|Shape=RoundedRectangle|*
%AMROUNDEDRECTD44*
21,1,2.6500,1.6000,0,0,270.0*
21,1,2.1000,2.1500,0,0,270.0*
1,1,0.5500,-0.8000,-1.0500*
1,1,0.5500,-0.8000,1.0500*
1,1,0.5500,0.8000,1.0500*
1,1,0.5500,0.8000,-1.0500*
%
%ADD44ROUNDEDRECTD44*%
%ADD45O,0.4000X1.6000*%
%ADD46O,1.6000X0.4000*%
%ADD47C,2.0000*%
%ADD48O,0.6500X1.6000*%
%ADD49O,1.6000X0.6500*%
%ADD50C,2.3500*%
%ADD51C,2.0000*%
%ADD52C,7.2032*%
%ADD53C,1.0500*%
%ADD54R,2.0000X2.0000*%
%ADD55R,2.0000X2.0000*%
%ADD56C,1.2032*%
D32*
X126000Y348500D02*
D03*
X135500Y325500D02*
D03*
X116500D02*
D03*
D33*
X116000Y364000D02*
D03*
Y380000D02*
D03*
X99000Y364000D02*
D03*
Y380000D02*
D03*
X293077Y387000D02*
D03*
Y371000D02*
D03*
X811000Y152000D02*
D03*
Y136000D02*
D03*
X827000Y152000D02*
D03*
Y136000D02*
D03*
X419077Y391000D02*
D03*
Y375000D02*
D03*
X311077Y387000D02*
D03*
Y371000D02*
D03*
X420077Y436000D02*
D03*
Y452000D02*
D03*
X310077Y435000D02*
D03*
Y451000D02*
D03*
X442077Y375000D02*
D03*
Y391000D02*
D03*
Y450000D02*
D03*
Y434000D02*
D03*
X293077Y451000D02*
D03*
Y435000D02*
D03*
X134000Y93000D02*
D03*
Y77000D02*
D03*
X51000Y297000D02*
D03*
Y313000D02*
D03*
D34*
X49500Y344000D02*
D03*
X26500Y334500D02*
D03*
Y353500D02*
D03*
X157500Y94500D02*
D03*
Y75500D02*
D03*
X180500Y85000D02*
D03*
D35*
X181020Y380000D02*
D03*
X141020D02*
D03*
X74000D02*
D03*
X34000D02*
D03*
D36*
X632000Y98000D02*
D03*
X648000D02*
D03*
X632000Y49000D02*
D03*
X648000D02*
D03*
X632000Y66000D02*
D03*
X648000D02*
D03*
X632000Y82000D02*
D03*
X648000D02*
D03*
X632000Y399000D02*
D03*
X648000D02*
D03*
X632000Y415000D02*
D03*
X648000D02*
D03*
X632000Y431000D02*
D03*
X648000D02*
D03*
X632000Y383000D02*
D03*
X648000D02*
D03*
X458000Y75500D02*
D03*
X474000D02*
D03*
X617000Y49000D02*
D03*
X601000D02*
D03*
X458000Y123500D02*
D03*
X474000D02*
D03*
X617000Y98000D02*
D03*
X601000D02*
D03*
X435350Y123500D02*
D03*
X419350D02*
D03*
X474000Y91500D02*
D03*
X458000D02*
D03*
X601000Y66000D02*
D03*
X617000D02*
D03*
X474000Y107500D02*
D03*
X458000D02*
D03*
X601000Y82000D02*
D03*
X617000D02*
D03*
X384000Y47500D02*
D03*
X368000D02*
D03*
X617000Y383000D02*
D03*
X601000D02*
D03*
X384000Y101500D02*
D03*
X368000D02*
D03*
X617000Y431000D02*
D03*
X601000D02*
D03*
X422650Y30500D02*
D03*
X406650D02*
D03*
X368000Y82500D02*
D03*
X384000D02*
D03*
X601000Y415000D02*
D03*
X617000D02*
D03*
X368000Y65500D02*
D03*
X384000D02*
D03*
X601000Y399000D02*
D03*
X617000D02*
D03*
X368000Y30000D02*
D03*
X384000D02*
D03*
X368000Y13000D02*
D03*
X384000D02*
D03*
X294077Y419000D02*
D03*
X310077D02*
D03*
X439077Y414000D02*
D03*
X423077D02*
D03*
X294077Y403000D02*
D03*
X310077D02*
D03*
X165000Y55000D02*
D03*
X181000D02*
D03*
X177000Y115000D02*
D03*
X161000D02*
D03*
X799000Y65000D02*
D03*
X783000D02*
D03*
D37*
X440050Y49968D02*
D03*
X427350D02*
D03*
X414650D02*
D03*
X401954D02*
D03*
Y103968D02*
D03*
X414650D02*
D03*
X427350D02*
D03*
X440050D02*
D03*
D38*
X343077Y452100D02*
D03*
Y439400D02*
D03*
Y426700D02*
D03*
Y414000D02*
D03*
Y401300D02*
D03*
Y388600D02*
D03*
Y375900D02*
D03*
X397077D02*
D03*
Y388600D02*
D03*
Y401300D02*
D03*
Y414000D02*
D03*
Y426700D02*
D03*
Y439400D02*
D03*
Y452100D02*
D03*
D39*
X150000Y55000D02*
D03*
X134000D02*
D03*
X207000Y191000D02*
D03*
X223000D02*
D03*
X771000Y395000D02*
D03*
X787000D02*
D03*
X638000Y265000D02*
D03*
X654000D02*
D03*
D40*
X888000Y374500D02*
D03*
Y355500D02*
D03*
X862000D02*
D03*
Y365000D02*
D03*
Y374500D02*
D03*
X812000Y355500D02*
D03*
Y365000D02*
D03*
Y374500D02*
D03*
X838000D02*
D03*
Y365000D02*
D03*
Y355500D02*
D03*
D41*
X910000Y357000D02*
D03*
Y373000D02*
D03*
X746000Y393000D02*
D03*
Y377000D02*
D03*
X751000Y24000D02*
D03*
Y40000D02*
D03*
X31000Y297000D02*
D03*
Y313000D02*
D03*
X125000Y278000D02*
D03*
Y262000D02*
D03*
D42*
X788500Y357500D02*
D03*
X769500D02*
D03*
Y372500D02*
D03*
X788500D02*
D03*
D43*
X814000Y427000D02*
D03*
X806000D02*
D03*
X798000D02*
D03*
X790000D02*
D03*
X782000D02*
D03*
D44*
X753500Y428000D02*
D03*
Y483000D02*
D03*
X842500D02*
D03*
Y428000D02*
D03*
D45*
X719000Y173000D02*
D03*
X724000D02*
D03*
X729000D02*
D03*
X734000D02*
D03*
X739000D02*
D03*
X744000D02*
D03*
X749000D02*
D03*
X754000D02*
D03*
X759000D02*
D03*
X764000D02*
D03*
X769000D02*
D03*
X774000D02*
D03*
X779000D02*
D03*
X784000D02*
D03*
X789000D02*
D03*
X794000D02*
D03*
X799000D02*
D03*
X804000D02*
D03*
X809000D02*
D03*
X814000D02*
D03*
X819000D02*
D03*
X824000D02*
D03*
X829000D02*
D03*
X834000D02*
D03*
X839000D02*
D03*
Y327000D02*
D03*
X834000D02*
D03*
X829000D02*
D03*
X824000D02*
D03*
X819000D02*
D03*
X814000D02*
D03*
X809000D02*
D03*
X804000D02*
D03*
X799000D02*
D03*
X794000D02*
D03*
X789000D02*
D03*
X784000D02*
D03*
X779000D02*
D03*
X774000D02*
D03*
X769000D02*
D03*
X764000D02*
D03*
X759000D02*
D03*
X754000D02*
D03*
X749000D02*
D03*
X744000D02*
D03*
X739000D02*
D03*
X734000D02*
D03*
X729000D02*
D03*
X724000D02*
D03*
X719000D02*
D03*
D46*
X856000Y190000D02*
D03*
Y195000D02*
D03*
Y200000D02*
D03*
Y205000D02*
D03*
Y210000D02*
D03*
Y215000D02*
D03*
Y220000D02*
D03*
Y225000D02*
D03*
Y230000D02*
D03*
Y235000D02*
D03*
Y240000D02*
D03*
Y245000D02*
D03*
Y250000D02*
D03*
Y255000D02*
D03*
Y260000D02*
D03*
Y265000D02*
D03*
Y270000D02*
D03*
Y275000D02*
D03*
Y280000D02*
D03*
Y285000D02*
D03*
Y290000D02*
D03*
Y295000D02*
D03*
Y300000D02*
D03*
Y305000D02*
D03*
Y310000D02*
D03*
X702000D02*
D03*
Y305000D02*
D03*
Y300000D02*
D03*
Y295000D02*
D03*
Y290000D02*
D03*
Y285000D02*
D03*
Y280000D02*
D03*
Y275000D02*
D03*
Y270000D02*
D03*
Y265000D02*
D03*
Y260000D02*
D03*
Y255000D02*
D03*
Y250000D02*
D03*
Y245000D02*
D03*
Y240000D02*
D03*
Y235000D02*
D03*
Y230000D02*
D03*
Y225000D02*
D03*
Y220000D02*
D03*
Y215000D02*
D03*
Y210000D02*
D03*
Y205000D02*
D03*
Y200000D02*
D03*
Y195000D02*
D03*
Y190000D02*
D03*
D47*
X855500Y173500D02*
D03*
X702500Y326500D02*
D03*
D48*
X175000Y327000D02*
D03*
X183000D02*
D03*
X191000D02*
D03*
X199000D02*
D03*
X207000D02*
D03*
X215000D02*
D03*
X223000D02*
D03*
X231000D02*
D03*
X239000D02*
D03*
X247000D02*
D03*
X255000D02*
D03*
Y213000D02*
D03*
X247000D02*
D03*
X239000D02*
D03*
X231000D02*
D03*
X223000D02*
D03*
X215000D02*
D03*
X207000D02*
D03*
X199000D02*
D03*
X191000D02*
D03*
X183000D02*
D03*
X175000D02*
D03*
D49*
X272000Y310000D02*
D03*
Y302000D02*
D03*
Y294000D02*
D03*
Y286000D02*
D03*
Y278000D02*
D03*
Y270000D02*
D03*
Y262000D02*
D03*
Y254000D02*
D03*
Y246000D02*
D03*
Y238000D02*
D03*
Y230000D02*
D03*
X158000D02*
D03*
Y238000D02*
D03*
Y246000D02*
D03*
Y254000D02*
D03*
Y262000D02*
D03*
Y270000D02*
D03*
Y278000D02*
D03*
Y286000D02*
D03*
Y294000D02*
D03*
Y302000D02*
D03*
Y310000D02*
D03*
D50*
X136000Y447500D02*
D03*
X186000D02*
D03*
X236000D02*
D03*
D51*
X975000Y225400D02*
D03*
Y200000D02*
D03*
Y174600D02*
D03*
Y300400D02*
D03*
Y275000D02*
D03*
Y249600D02*
D03*
X523000Y99400D02*
D03*
Y74000D02*
D03*
Y48600D02*
D03*
X548000Y457800D02*
D03*
Y432400D02*
D03*
Y407000D02*
D03*
Y381600D02*
D03*
Y356200D02*
D03*
X523000Y432400D02*
D03*
Y407000D02*
D03*
Y381600D02*
D03*
X573000Y432400D02*
D03*
Y407000D02*
D03*
Y381600D02*
D03*
X548000Y124800D02*
D03*
Y99400D02*
D03*
Y74000D02*
D03*
Y48600D02*
D03*
Y23200D02*
D03*
X880800Y40000D02*
D03*
X855400D02*
D03*
X830000D02*
D03*
X804600D02*
D03*
X80000Y217200D02*
D03*
Y242600D02*
D03*
Y268000D02*
D03*
Y293400D02*
D03*
X573000Y48600D02*
D03*
Y74000D02*
D03*
Y99400D02*
D03*
D52*
X50000Y50000D02*
D03*
Y450000D02*
D03*
X950000D02*
D03*
Y50000D02*
D03*
D53*
X820000Y453000D02*
D03*
X776000D02*
D03*
D54*
X779200Y40000D02*
D03*
D55*
X80000Y318800D02*
D03*
D56*
X810000Y312000D02*
D03*
X829000D02*
D03*
X819754Y283000D02*
D03*
X788000Y345000D02*
D03*
X800000Y341000D02*
D03*
X797000Y312000D02*
D03*
X778000Y310540D02*
D03*
X717239Y291000D02*
D03*
X719000Y278000D02*
D03*
Y264000D02*
D03*
X868000Y343000D02*
D03*
X859000Y333000D02*
D03*
X809305Y195000D02*
D03*
X804600Y207000D02*
D03*
X831998Y188000D02*
D03*
X802000Y220000D02*
D03*
X852000Y151000D02*
D03*
X847000Y134912D02*
D03*
X842000Y119500D02*
D03*
X753000Y190000D02*
D03*
X738000Y188120D02*
D03*
X737000Y219761D02*
D03*
X682000Y220240D02*
D03*
X666059Y210000D02*
D03*
X739000Y311000D02*
D03*
X767999Y288999D02*
D03*
X756000Y311000D02*
D03*
X750000Y295000D02*
D03*
X700999Y352999D02*
D03*
X688000Y352544D02*
D03*
X674000D02*
D03*
X697000Y398000D02*
D03*
X794000Y232000D02*
D03*
X804000Y253000D02*
D03*
X619000Y204459D02*
D03*
X640999Y214000D02*
D03*
X641421Y231000D02*
D03*
X631000Y222060D02*
D03*
X753000Y236000D02*
D03*
X562000Y275000D02*
D03*
Y182814D02*
D03*
X717000Y205000D02*
D03*
X691000Y170000D02*
D03*
X744000Y125000D02*
D03*
X765000D02*
D03*
Y140000D02*
D03*
Y155000D02*
D03*
X300000Y40000D02*
D03*
Y55000D02*
D03*
X99000Y349000D02*
D03*
X130206Y363000D02*
D03*
X105000Y325000D02*
D03*
X37000Y344000D02*
D03*
X714000Y346000D02*
D03*
X900000Y300000D02*
D03*
X900000Y325000D02*
D03*
X875000Y275000D02*
D03*
X905000D02*
D03*
X940000Y325000D02*
D03*
Y300000D02*
D03*
Y275000D02*
D03*
X838000Y277000D02*
D03*
X871000Y177000D02*
D03*
X855575Y122000D02*
D03*
X890000Y280000D02*
D03*
X908000Y184460D02*
D03*
X890000Y185000D02*
D03*
X881000Y117000D02*
D03*
X827000Y77000D02*
D03*
X811000Y86000D02*
D03*
X827000Y124000D02*
D03*
X811000D02*
D03*
X832000Y205000D02*
D03*
X779000Y144000D02*
D03*
X799000D02*
D03*
X789000Y154000D02*
D03*
X765000Y24000D02*
D03*
X804000Y281000D02*
D03*
X779000D02*
D03*
X754000Y268000D02*
D03*
X778000Y267000D02*
D03*
X196000Y55000D02*
D03*
X253000Y403000D02*
D03*
Y419000D02*
D03*
X163000Y321000D02*
D03*
X303000Y278000D02*
D03*
X247000Y295200D02*
D03*
X225000Y285000D02*
D03*
X215000Y275000D02*
D03*
X199000Y307425D02*
D03*
X187000Y312000D02*
D03*
X280000Y419000D02*
D03*
Y403000D02*
D03*
X225000Y245000D02*
D03*
X240000Y230000D02*
D03*
X300000Y211000D02*
D03*
X215000Y255000D02*
D03*
X235000D02*
D03*
X250000D02*
D03*
X225000Y265000D02*
D03*
X314000Y268000D02*
D03*
X289000Y278000D02*
D03*
X175000Y196000D02*
D03*
X150000Y41000D02*
D03*
X220000Y97000D02*
D03*
X198980Y135020D02*
D03*
X182000Y137000D02*
D03*
X390000Y230000D02*
D03*
X375000D02*
D03*
X509000Y215000D02*
D03*
X360000Y230000D02*
D03*
X345000D02*
D03*
X591000Y111000D02*
D03*
X493000Y133000D02*
D03*
X522000D02*
D03*
X658579Y292000D02*
D03*
X680000Y315000D02*
D03*
X624000Y304000D02*
D03*
X639000Y306000D02*
D03*
X484000Y293000D02*
D03*
X544000Y301000D02*
D03*
X351000Y130000D02*
D03*
X368000Y407000D02*
D03*
X387000Y296000D02*
D03*
X323000Y357000D02*
D03*
X326000Y128000D02*
D03*
X735000Y65000D02*
D03*
X504730Y20000D02*
D03*
X295000Y25000D02*
D03*
X848000Y327088D02*
D03*
X821000Y215000D02*
D03*
X471000Y365000D02*
D03*
X465000Y385000D02*
D03*
X762000Y344000D02*
D03*
X759000Y393000D02*
D03*
X811000Y396000D02*
D03*
X825000Y351000D02*
D03*
X661000Y363000D02*
D03*
X353433Y56000D02*
D03*
X476000Y45000D02*
D03*
Y29000D02*
D03*
X493000Y107500D02*
D03*
X494480Y86520D02*
D03*
X363000Y427000D02*
D03*
X381000D02*
D03*
X402330Y295730D02*
D03*
X455000Y281000D02*
D03*
X353000Y82500D02*
D03*
X352000Y101500D02*
D03*
X624000Y368000D02*
D03*
X640000Y34000D02*
D03*
X658000Y58000D02*
D03*
Y90000D02*
D03*
X672000Y285000D02*
D03*
X585000Y87000D02*
D03*
X587000Y394000D02*
D03*
X648000Y370000D02*
D03*
X656477Y323373D02*
D03*
X678999Y327999D02*
D03*
X576000Y355000D02*
D03*
X286000Y129000D02*
D03*
X299000Y139000D02*
D03*
X190000Y115000D02*
D03*
X161000Y212980D02*
D03*
X451000Y414000D02*
D03*
X215000Y344000D02*
D03*
X137434Y278000D02*
D03*
X120000Y200000D02*
D03*
X135000D02*
D03*
X624000Y265000D02*
D03*
X253000Y153980D02*
D03*
X264000Y164000D02*
D03*
X275000Y174000D02*
D03*
X825000Y365000D02*
D03*
X850000D02*
D03*
X910000Y341000D02*
D03*
X733000Y268000D02*
D03*
X355000Y268270D02*
D03*
X367000Y260000D02*
D03*
X325000Y230000D02*
D03*
X340000Y268000D02*
D03*
M02*
