G04*
G04 #@! TF.GenerationSoftware,Altium Limited,Altium Designer,19.0.4 (130)*
G04*
G04 Layer_Physical_Order=1*
G04 Layer_Color=255*
%FSLAX44Y44*%
%MOMM*%
G71*
G01*
G75*
%ADD14C,0.2540*%
G04:AMPARAMS|DCode=15|XSize=1.05mm|YSize=0.65mm|CornerRadius=0.2015mm|HoleSize=0mm|Usage=FLASHONLY|Rotation=90.000|XOffset=0mm|YOffset=0mm|HoleType=Round|Shape=RoundedRectangle|*
%AMROUNDEDRECTD15*
21,1,1.0500,0.2470,0,0,90.0*
21,1,0.6470,0.6500,0,0,90.0*
1,1,0.4030,0.1235,0.3235*
1,1,0.4030,0.1235,-0.3235*
1,1,0.4030,-0.1235,-0.3235*
1,1,0.4030,-0.1235,0.3235*
%
%ADD15ROUNDEDRECTD15*%
G04:AMPARAMS|DCode=16|XSize=1mm|YSize=0.9mm|CornerRadius=0.198mm|HoleSize=0mm|Usage=FLASHONLY|Rotation=0.000|XOffset=0mm|YOffset=0mm|HoleType=Round|Shape=RoundedRectangle|*
%AMROUNDEDRECTD16*
21,1,1.0000,0.5040,0,0,0.0*
21,1,0.6040,0.9000,0,0,0.0*
1,1,0.3960,0.3020,-0.2520*
1,1,0.3960,-0.3020,-0.2520*
1,1,0.3960,-0.3020,0.2520*
1,1,0.3960,0.3020,0.2520*
%
%ADD16ROUNDEDRECTD16*%
G04:AMPARAMS|DCode=17|XSize=1.05mm|YSize=0.65mm|CornerRadius=0.2015mm|HoleSize=0mm|Usage=FLASHONLY|Rotation=0.000|XOffset=0mm|YOffset=0mm|HoleType=Round|Shape=RoundedRectangle|*
%AMROUNDEDRECTD17*
21,1,1.0500,0.2470,0,0,0.0*
21,1,0.6470,0.6500,0,0,0.0*
1,1,0.4030,0.3235,-0.1235*
1,1,0.4030,-0.3235,-0.1235*
1,1,0.4030,-0.3235,0.1235*
1,1,0.4030,0.3235,0.1235*
%
%ADD17ROUNDEDRECTD17*%
G04:AMPARAMS|DCode=18|XSize=2.5mm|YSize=1.7mm|CornerRadius=0.204mm|HoleSize=0mm|Usage=FLASHONLY|Rotation=0.000|XOffset=0mm|YOffset=0mm|HoleType=Round|Shape=RoundedRectangle|*
%AMROUNDEDRECTD18*
21,1,2.5000,1.2920,0,0,0.0*
21,1,2.0920,1.7000,0,0,0.0*
1,1,0.4080,1.0460,-0.6460*
1,1,0.4080,-1.0460,-0.6460*
1,1,0.4080,-1.0460,0.6460*
1,1,0.4080,1.0460,0.6460*
%
%ADD18ROUNDEDRECTD18*%
G04:AMPARAMS|DCode=19|XSize=1mm|YSize=0.9mm|CornerRadius=0.198mm|HoleSize=0mm|Usage=FLASHONLY|Rotation=270.000|XOffset=0mm|YOffset=0mm|HoleType=Round|Shape=RoundedRectangle|*
%AMROUNDEDRECTD19*
21,1,1.0000,0.5040,0,0,270.0*
21,1,0.6040,0.9000,0,0,270.0*
1,1,0.3960,-0.2520,-0.3020*
1,1,0.3960,-0.2520,0.3020*
1,1,0.3960,0.2520,0.3020*
1,1,0.3960,0.2520,-0.3020*
%
%ADD19ROUNDEDRECTD19*%
%ADD20O,0.6000X1.5500*%
%ADD21O,1.5500X0.6000*%
G04:AMPARAMS|DCode=22|XSize=1mm|YSize=0.95mm|CornerRadius=0.1995mm|HoleSize=0mm|Usage=FLASHONLY|Rotation=270.000|XOffset=0mm|YOffset=0mm|HoleType=Round|Shape=RoundedRectangle|*
%AMROUNDEDRECTD22*
21,1,1.0000,0.5510,0,0,270.0*
21,1,0.6010,0.9500,0,0,270.0*
1,1,0.3990,-0.2755,-0.3005*
1,1,0.3990,-0.2755,0.3005*
1,1,0.3990,0.2755,0.3005*
1,1,0.3990,0.2755,-0.3005*
%
%ADD22ROUNDEDRECTD22*%
G04:AMPARAMS|DCode=23|XSize=1.1mm|YSize=0.6mm|CornerRadius=0.201mm|HoleSize=0mm|Usage=FLASHONLY|Rotation=0.000|XOffset=0mm|YOffset=0mm|HoleType=Round|Shape=RoundedRectangle|*
%AMROUNDEDRECTD23*
21,1,1.1000,0.1980,0,0,0.0*
21,1,0.6980,0.6000,0,0,0.0*
1,1,0.4020,0.3490,-0.0990*
1,1,0.4020,-0.3490,-0.0990*
1,1,0.4020,-0.3490,0.0990*
1,1,0.4020,0.3490,0.0990*
%
%ADD23ROUNDEDRECTD23*%
G04:AMPARAMS|DCode=24|XSize=1mm|YSize=0.95mm|CornerRadius=0.1995mm|HoleSize=0mm|Usage=FLASHONLY|Rotation=180.000|XOffset=0mm|YOffset=0mm|HoleType=Round|Shape=RoundedRectangle|*
%AMROUNDEDRECTD24*
21,1,1.0000,0.5510,0,0,180.0*
21,1,0.6010,0.9500,0,0,180.0*
1,1,0.3990,-0.3005,0.2755*
1,1,0.3990,0.3005,0.2755*
1,1,0.3990,0.3005,-0.2755*
1,1,0.3990,-0.3005,-0.2755*
%
%ADD24ROUNDEDRECTD24*%
G04:AMPARAMS|DCode=25|XSize=1.1mm|YSize=1mm|CornerRadius=0.165mm|HoleSize=0mm|Usage=FLASHONLY|Rotation=0.000|XOffset=0mm|YOffset=0mm|HoleType=Round|Shape=RoundedRectangle|*
%AMROUNDEDRECTD25*
21,1,1.1000,0.6700,0,0,0.0*
21,1,0.7700,1.0000,0,0,0.0*
1,1,0.3300,0.3850,-0.3350*
1,1,0.3300,-0.3850,-0.3350*
1,1,0.3300,-0.3850,0.3350*
1,1,0.3300,0.3850,0.3350*
%
%ADD25ROUNDEDRECTD25*%
G04:AMPARAMS|DCode=26|XSize=2.3mm|YSize=0.5mm|CornerRadius=0.2mm|HoleSize=0mm|Usage=FLASHONLY|Rotation=270.000|XOffset=0mm|YOffset=0mm|HoleType=Round|Shape=RoundedRectangle|*
%AMROUNDEDRECTD26*
21,1,2.3000,0.1000,0,0,270.0*
21,1,1.9000,0.5000,0,0,270.0*
1,1,0.4000,-0.0500,-0.9500*
1,1,0.4000,-0.0500,0.9500*
1,1,0.4000,0.0500,0.9500*
1,1,0.4000,0.0500,-0.9500*
%
%ADD26ROUNDEDRECTD26*%
G04:AMPARAMS|DCode=27|XSize=2.5mm|YSize=2mm|CornerRadius=0.2mm|HoleSize=0mm|Usage=FLASHONLY|Rotation=270.000|XOffset=0mm|YOffset=0mm|HoleType=Round|Shape=RoundedRectangle|*
%AMROUNDEDRECTD27*
21,1,2.5000,1.6000,0,0,270.0*
21,1,2.1000,2.0000,0,0,270.0*
1,1,0.4000,-0.8000,-1.0500*
1,1,0.4000,-0.8000,1.0500*
1,1,0.4000,0.8000,1.0500*
1,1,0.4000,0.8000,-1.0500*
%
%ADD27ROUNDEDRECTD27*%
%ADD28O,0.3000X1.5000*%
%ADD29O,1.5000X0.3000*%
%ADD30O,0.5500X1.5000*%
%ADD31O,1.5000X0.5500*%
%ADD57C,1.0000*%
%ADD58C,2.2000*%
%ADD59C,1.8500*%
%ADD60C,7.0000*%
%ADD61C,0.5000*%
%ADD62R,1.8500X1.8500*%
%ADD63R,1.8500X1.8500*%
G36*
X996666Y3334D02*
X3334D01*
Y496666D01*
X740808D01*
X741407Y495546D01*
X741223Y495271D01*
X740871Y493500D01*
Y484270D01*
X753500D01*
X766129D01*
Y493500D01*
X765777Y495271D01*
X765593Y495546D01*
X766192Y496666D01*
X829808D01*
X830407Y495546D01*
X830223Y495271D01*
X829871Y493500D01*
Y484270D01*
X842500D01*
X855129D01*
Y493500D01*
X854777Y495271D01*
X854593Y495546D01*
X855192Y496666D01*
X996666D01*
X996666Y3334D01*
D02*
G37*
%LPC*%
G36*
X855129Y481730D02*
X843770D01*
Y467871D01*
X850500D01*
X852271Y468223D01*
X853773Y469227D01*
X854777Y470729D01*
X855129Y472500D01*
Y481730D01*
D02*
G37*
G36*
X841230D02*
X829871D01*
Y472500D01*
X830223Y470729D01*
X831227Y469227D01*
X832729Y468223D01*
X834500Y467871D01*
X841230D01*
Y481730D01*
D02*
G37*
G36*
X766129Y481730D02*
X754770D01*
Y467871D01*
X761500D01*
X763271Y468223D01*
X764773Y469227D01*
X765777Y470729D01*
X766129Y472500D01*
Y481730D01*
D02*
G37*
G36*
X752230D02*
X740871D01*
Y472500D01*
X741223Y470729D01*
X742227Y469227D01*
X743729Y468223D01*
X745500Y467871D01*
X752230D01*
Y481730D01*
D02*
G37*
G36*
X187270Y460990D02*
Y448770D01*
X199490D01*
X199191Y451035D01*
X197827Y454328D01*
X195657Y457157D01*
X192828Y459327D01*
X189535Y460691D01*
X187270Y460990D01*
D02*
G37*
G36*
X184730D02*
X182465Y460691D01*
X179172Y459327D01*
X176343Y457157D01*
X174173Y454328D01*
X172808Y451035D01*
X172510Y448770D01*
X184730D01*
Y460990D01*
D02*
G37*
G36*
X649878Y474334D02*
X278000D01*
X276724Y474080D01*
X275643Y473358D01*
X261642Y459357D01*
X260920Y458276D01*
X260666Y457000D01*
Y432334D01*
X248810D01*
X247534Y432080D01*
X246453Y431357D01*
X237642Y422547D01*
X236920Y421466D01*
X236666Y420190D01*
Y404381D01*
X196044Y363759D01*
X180235D01*
X178959Y363505D01*
X177877Y362782D01*
X155909Y340814D01*
X130086D01*
X129701Y342084D01*
X130130Y342370D01*
X131017Y343698D01*
X131329Y345265D01*
Y351735D01*
X131017Y353302D01*
X130130Y354630D01*
X130050Y354683D01*
X130142Y355424D01*
X130414Y355967D01*
X132033Y356180D01*
X133736Y356885D01*
X135198Y358008D01*
X136320Y359470D01*
X137026Y361173D01*
X137266Y363000D01*
X137026Y364827D01*
X136320Y366530D01*
X135198Y367993D01*
X134992Y368151D01*
X135423Y369421D01*
X151480D01*
X153056Y369734D01*
X154393Y370627D01*
X155286Y371964D01*
X155599Y373540D01*
Y386460D01*
X155286Y388036D01*
X154393Y389373D01*
X153056Y390266D01*
X151480Y390579D01*
X130560D01*
X128984Y390266D01*
X127647Y389373D01*
X126754Y388036D01*
X126441Y386460D01*
Y383334D01*
X122916D01*
X122769Y384073D01*
X121889Y385389D01*
X120573Y386269D01*
X119020Y386578D01*
X112980D01*
X111427Y386269D01*
X110111Y385389D01*
X109231Y384073D01*
X108922Y382520D01*
Y377480D01*
X109231Y375927D01*
X110111Y374611D01*
X111427Y373731D01*
X112980Y373422D01*
X119020D01*
X120573Y373731D01*
X121889Y374611D01*
X122769Y375927D01*
X122916Y376666D01*
X126441D01*
Y373540D01*
X126754Y371964D01*
X127509Y370834D01*
X127414Y369858D01*
X127262Y369357D01*
X126676Y369114D01*
X125213Y367993D01*
X124313Y366819D01*
X123258Y366929D01*
X122969Y367067D01*
X122769Y368073D01*
X121889Y369389D01*
X120573Y370269D01*
X119020Y370578D01*
X112980D01*
X111427Y370269D01*
X110111Y369389D01*
X109231Y368073D01*
X108922Y366520D01*
Y361480D01*
X109231Y359927D01*
X110111Y358611D01*
X111427Y357731D01*
X112980Y357422D01*
X118363D01*
X121584Y354201D01*
X120983Y353302D01*
X120671Y351735D01*
Y345265D01*
X120983Y343698D01*
X121870Y342370D01*
X122299Y342084D01*
X121914Y340814D01*
X100180D01*
X100097Y342084D01*
X100827Y342180D01*
X102530Y342886D01*
X103993Y344007D01*
X105114Y345470D01*
X105820Y347173D01*
X106060Y349000D01*
X105820Y350827D01*
X105114Y352530D01*
X103993Y353992D01*
X102530Y355115D01*
X102334Y355196D01*
Y357485D01*
X103573Y357731D01*
X104889Y358611D01*
X105769Y359927D01*
X106078Y361480D01*
Y366520D01*
X105769Y368073D01*
X104889Y369389D01*
X103573Y370269D01*
X102020Y370578D01*
X95980D01*
X94427Y370269D01*
X93111Y369389D01*
X92231Y368073D01*
X91922Y366520D01*
Y361637D01*
X77619Y347334D01*
X56161D01*
X55630Y348130D01*
X54302Y349017D01*
X52735Y349329D01*
X46265D01*
X44698Y349017D01*
X43370Y348130D01*
X43336Y348129D01*
X42378Y349378D01*
X40802Y350586D01*
X38968Y351346D01*
X38270Y351438D01*
Y344000D01*
Y336562D01*
X38968Y336654D01*
X40802Y337414D01*
X42378Y338622D01*
X43336Y339871D01*
X43370Y339870D01*
X44698Y338983D01*
X46265Y338671D01*
X52735D01*
X54302Y338983D01*
X55630Y339870D01*
X56161Y340666D01*
X62155D01*
X62681Y339396D01*
X49992Y326707D01*
X24142D01*
X22866Y326453D01*
X21784Y325730D01*
X14642Y318589D01*
X13920Y317507D01*
X13666Y316231D01*
Y268580D01*
X13920Y267304D01*
X14642Y266222D01*
X49666Y231199D01*
Y198000D01*
X49920Y196724D01*
X50642Y195643D01*
X64643Y181642D01*
X65724Y180920D01*
X67000Y180666D01*
X124619D01*
X130666Y174619D01*
Y99515D01*
X129427Y99269D01*
X128111Y98390D01*
X127231Y97073D01*
X126922Y95520D01*
Y90480D01*
X127231Y88927D01*
X128111Y87611D01*
X129427Y86731D01*
X130980Y86422D01*
X137020D01*
X138573Y86731D01*
X139889Y87611D01*
X140769Y88927D01*
X140830Y89232D01*
X142100Y89107D01*
Y81813D01*
X141815Y81579D01*
X140349Y81702D01*
X139889Y82389D01*
X138573Y83269D01*
X137020Y83578D01*
X130980D01*
X129427Y83269D01*
X128111Y82389D01*
X127231Y81073D01*
X126922Y79520D01*
Y74480D01*
X127231Y72927D01*
X128111Y71611D01*
X129427Y70731D01*
X130666Y70484D01*
Y61963D01*
X129686Y61768D01*
X128365Y60885D01*
X127482Y59564D01*
X127172Y58005D01*
Y51995D01*
X127482Y50436D01*
X128365Y49115D01*
X129686Y48232D01*
X131245Y47922D01*
X136755D01*
X138314Y48232D01*
X139635Y49115D01*
X140518Y50436D01*
X140828Y51995D01*
Y58005D01*
X140518Y59564D01*
X139635Y60885D01*
X138314Y61768D01*
X137334Y61963D01*
Y70484D01*
X138573Y70731D01*
X139889Y71611D01*
X140769Y72927D01*
X140916Y73666D01*
X143000D01*
X144276Y73920D01*
X145358Y74643D01*
X147791Y77076D01*
X148514Y78158D01*
X148768Y79434D01*
Y90065D01*
X149680Y90977D01*
X151024Y90889D01*
X151370Y90370D01*
X152698Y89483D01*
X154265Y89171D01*
X160735D01*
X162302Y89483D01*
X163630Y90370D01*
X164396Y91517D01*
X165147Y91483D01*
X165666Y91306D01*
Y80170D01*
X165069Y79606D01*
X163630Y79630D01*
X162302Y80517D01*
X160735Y80829D01*
X154265D01*
X152698Y80517D01*
X151370Y79630D01*
X150483Y78302D01*
X150171Y76735D01*
Y74265D01*
X150483Y72698D01*
X151370Y71370D01*
X152698Y70483D01*
X154265Y70171D01*
X160735D01*
X162302Y70483D01*
X163630Y71370D01*
X164161Y72166D01*
X166500D01*
X167776Y72420D01*
X168857Y73142D01*
X171357Y75642D01*
X172080Y76724D01*
X172334Y78000D01*
Y81806D01*
X172854Y81983D01*
X173604Y82017D01*
X174370Y80870D01*
X175698Y79983D01*
X175926Y79938D01*
X176345Y78560D01*
X162642Y64858D01*
X161920Y63776D01*
X161666Y62500D01*
Y61916D01*
X160927Y61769D01*
X159611Y60889D01*
X158731Y59573D01*
X158484Y58334D01*
X156763D01*
X156518Y59564D01*
X155635Y60885D01*
X154314Y61768D01*
X152755Y62078D01*
X147245D01*
X145686Y61768D01*
X144365Y60885D01*
X143482Y59564D01*
X143172Y58005D01*
Y51995D01*
X143482Y50436D01*
X144365Y49115D01*
X145686Y48232D01*
X145888Y48192D01*
X145941Y48094D01*
X146125Y46850D01*
X145008Y45992D01*
X143885Y44530D01*
X143180Y42827D01*
X142940Y41000D01*
X143180Y39173D01*
X143885Y37470D01*
X145008Y36007D01*
X146470Y34885D01*
X148173Y34180D01*
X150000Y33940D01*
X151827Y34180D01*
X153530Y34885D01*
X154993Y36007D01*
X156115Y37470D01*
X156820Y39173D01*
X157060Y41000D01*
X156820Y42827D01*
X156115Y44530D01*
X154993Y45992D01*
X153875Y46850D01*
X154059Y48094D01*
X154112Y48192D01*
X154314Y48232D01*
X155635Y49115D01*
X156518Y50436D01*
X156763Y51666D01*
X158484D01*
X158731Y50427D01*
X159611Y49111D01*
X160927Y48231D01*
X162480Y47922D01*
X167520D01*
X169073Y48231D01*
X170389Y49111D01*
X171269Y50427D01*
X171578Y51980D01*
Y58020D01*
X171269Y59573D01*
X170389Y60889D01*
X170096Y61085D01*
X169935Y62720D01*
X182798Y75582D01*
X183520Y76664D01*
X183774Y77940D01*
Y79679D01*
X185302Y79983D01*
X186630Y80870D01*
X187517Y82198D01*
X187829Y83765D01*
Y85614D01*
X212358Y110142D01*
X213080Y111224D01*
X213334Y112500D01*
Y186161D01*
X213518Y186436D01*
X213828Y187995D01*
Y193911D01*
X214044Y194097D01*
X215022Y194513D01*
X216172Y193363D01*
Y187995D01*
X216482Y186436D01*
X216666Y186161D01*
Y103196D01*
X216470Y103115D01*
X215007Y101993D01*
X213885Y100530D01*
X213180Y98827D01*
X212940Y97000D01*
X213180Y95173D01*
X213885Y93470D01*
X215007Y92008D01*
X216470Y90885D01*
X216666Y90804D01*
Y35000D01*
X216920Y33724D01*
X217642Y32643D01*
X242642Y7642D01*
X243724Y6920D01*
X245000Y6666D01*
X280000D01*
X281276Y6920D01*
X282358Y7642D01*
X292976Y18261D01*
X293173Y18180D01*
X295000Y17940D01*
X296827Y18180D01*
X298530Y18886D01*
X299992Y20008D01*
X301115Y21470D01*
X301820Y23173D01*
X302060Y25000D01*
X301820Y26827D01*
X301115Y28530D01*
X299992Y29992D01*
X298530Y31114D01*
X296827Y31820D01*
X295000Y32060D01*
X293173Y31820D01*
X291470Y31114D01*
X290007Y29992D01*
X288885Y28530D01*
X288180Y26827D01*
X287940Y25000D01*
X288180Y23173D01*
X288262Y22977D01*
X278619Y13334D01*
X246381D01*
X223334Y36381D01*
Y90804D01*
X223530Y90885D01*
X224992Y92008D01*
X226115Y93470D01*
X226820Y95173D01*
X227060Y97000D01*
X226820Y98827D01*
X226115Y100530D01*
X224992Y101993D01*
X223530Y103115D01*
X223334Y103196D01*
Y183922D01*
X225755D01*
X226416Y184053D01*
X227686Y183069D01*
Y153980D01*
X227940Y152704D01*
X228662Y151622D01*
X242642Y137642D01*
X243724Y136920D01*
X245000Y136666D01*
X278000D01*
X279276Y136920D01*
X280357Y137642D01*
X293473Y150758D01*
X304384D01*
X304870Y149585D01*
X301024Y145738D01*
X300827Y145820D01*
X299000Y146060D01*
X297173Y145820D01*
X295470Y145114D01*
X294008Y143992D01*
X292885Y142530D01*
X292180Y140827D01*
X291940Y139000D01*
X292180Y137173D01*
X292885Y135470D01*
X294008Y134008D01*
X294533Y133604D01*
X294102Y132334D01*
X292196D01*
X292115Y132530D01*
X290993Y133992D01*
X289530Y135114D01*
X287827Y135820D01*
X286000Y136060D01*
X284173Y135820D01*
X282470Y135114D01*
X281008Y133992D01*
X279886Y132530D01*
X279180Y130827D01*
X278940Y129000D01*
X279180Y127173D01*
X279886Y125470D01*
X281008Y124008D01*
X282470Y122886D01*
X284173Y122180D01*
X286000Y121940D01*
X287827Y122180D01*
X289530Y122886D01*
X290993Y124008D01*
X292115Y125470D01*
X292196Y125666D01*
X305000D01*
X306276Y125920D01*
X307358Y126643D01*
X310357Y129642D01*
X321381Y140666D01*
X338291Y140666D01*
X338777Y139492D01*
X334642Y135358D01*
X333920Y134276D01*
X333666Y133000D01*
Y131103D01*
X332396Y130851D01*
X332114Y131530D01*
X330993Y132992D01*
X329530Y134115D01*
X327827Y134820D01*
X326000Y135060D01*
X324173Y134820D01*
X322470Y134115D01*
X321008Y132992D01*
X319886Y131530D01*
X319180Y129827D01*
X318940Y128000D01*
X319180Y126173D01*
X319886Y124470D01*
X321008Y123008D01*
X322470Y121885D01*
X322666Y121804D01*
Y61000D01*
X322920Y59724D01*
X323643Y58643D01*
X345643Y36642D01*
X346724Y35920D01*
X348000Y35666D01*
X361147D01*
X361373Y35242D01*
X361641Y34539D01*
X361085Y33334D01*
X326381D01*
X306739Y52976D01*
X306820Y53173D01*
X307060Y55000D01*
X306820Y56827D01*
X306115Y58530D01*
X304993Y59992D01*
X303530Y61115D01*
X301827Y61820D01*
X300000Y62060D01*
X298173Y61820D01*
X296470Y61115D01*
X295008Y59992D01*
X293885Y58530D01*
X293180Y56827D01*
X292940Y55000D01*
X293180Y53173D01*
X293885Y51470D01*
X295008Y50008D01*
X296470Y48885D01*
X298173Y48180D01*
X298474Y48141D01*
Y46859D01*
X298173Y46820D01*
X296470Y46115D01*
X295008Y44992D01*
X293885Y43530D01*
X293180Y41827D01*
X292940Y40000D01*
X293180Y38173D01*
X293885Y36470D01*
X295008Y35008D01*
X296470Y33886D01*
X298173Y33180D01*
X300000Y32940D01*
X301827Y33180D01*
X302024Y33261D01*
X324642Y10642D01*
X325724Y9920D01*
X327000Y9666D01*
X361484D01*
X361731Y8427D01*
X362611Y7111D01*
X363927Y6231D01*
X365480Y5922D01*
X370520D01*
X372073Y6231D01*
X373389Y7111D01*
X374269Y8427D01*
X374578Y9980D01*
Y16020D01*
X374269Y17573D01*
X373389Y18889D01*
X372073Y19769D01*
X370520Y20078D01*
X365480D01*
X363927Y19769D01*
X362611Y18889D01*
X361731Y17573D01*
X361484Y16334D01*
X328381D01*
X306739Y37977D01*
X306820Y38173D01*
X307060Y40000D01*
X306844Y41645D01*
X307223Y41987D01*
X307993Y42292D01*
X322643Y27642D01*
X323724Y26920D01*
X325000Y26666D01*
X361484D01*
X361731Y25427D01*
X362611Y24111D01*
X363927Y23231D01*
X365480Y22922D01*
X370520D01*
X372073Y23231D01*
X373389Y24111D01*
X374269Y25427D01*
X374578Y26980D01*
Y33020D01*
X374481Y33508D01*
X375651Y34134D01*
X377422Y32363D01*
Y26980D01*
X377731Y25427D01*
X378611Y24111D01*
X379927Y23231D01*
X381480Y22922D01*
X386363D01*
X388258Y21027D01*
X387632Y19857D01*
X386520Y20078D01*
X381480D01*
X379927Y19769D01*
X378611Y18889D01*
X377731Y17573D01*
X377422Y16020D01*
Y9980D01*
X377731Y8427D01*
X378611Y7111D01*
X379927Y6231D01*
X381480Y5922D01*
X386520D01*
X388073Y6231D01*
X389389Y7111D01*
X390269Y8427D01*
X390516Y9666D01*
X432000D01*
X433276Y9920D01*
X434357Y10642D01*
X455358Y31642D01*
X456080Y32724D01*
X456334Y34000D01*
Y58000D01*
X456080Y59276D01*
X455358Y60357D01*
X449357Y66357D01*
X448276Y67080D01*
X447000Y67334D01*
X432381D01*
X405927Y93789D01*
Y96163D01*
X406664Y97267D01*
X407052Y99218D01*
Y108718D01*
X406664Y110668D01*
X405559Y112322D01*
X405288Y112503D01*
Y117546D01*
X405034Y118822D01*
X404312Y119903D01*
X391857Y132358D01*
X390776Y133080D01*
X389500Y133334D01*
X357196D01*
X357114Y133530D01*
X356450Y134396D01*
X357076Y135666D01*
X484600D01*
X486094Y134172D01*
X485940Y133000D01*
X486180Y131173D01*
X486885Y129470D01*
X488008Y128007D01*
X489470Y126885D01*
X491173Y126180D01*
X493000Y125940D01*
X494827Y126180D01*
X496530Y126885D01*
X497993Y128007D01*
X499114Y129470D01*
X499196Y129666D01*
X515804D01*
X515886Y129470D01*
X517008Y128007D01*
X518470Y126885D01*
X520173Y126180D01*
X522000Y125940D01*
X523827Y126180D01*
X525530Y126885D01*
X526992Y128007D01*
X528115Y129470D01*
X528820Y131173D01*
X529060Y133000D01*
X528848Y134617D01*
X529523Y135458D01*
X529755Y135666D01*
X541671D01*
X542025Y134396D01*
X539976Y132824D01*
X538173Y130473D01*
X537040Y127737D01*
X536653Y124800D01*
X537040Y121863D01*
X538173Y119127D01*
X539976Y116776D01*
X542326Y114973D01*
X545063Y113840D01*
X548000Y113453D01*
X550937Y113840D01*
X553674Y114973D01*
X556024Y116776D01*
X557827Y119127D01*
X558960Y121863D01*
X559347Y124800D01*
X558992Y127497D01*
X559997Y128288D01*
X576983Y111302D01*
X576264Y110225D01*
X575937Y110360D01*
X573000Y110747D01*
X570063Y110360D01*
X567326Y109227D01*
X564976Y107424D01*
X563173Y105073D01*
X562040Y102337D01*
X561653Y99400D01*
X562040Y96463D01*
X563173Y93727D01*
X564976Y91376D01*
X567326Y89573D01*
X570063Y88440D01*
X573000Y88053D01*
X575937Y88440D01*
X576901Y88839D01*
X578064Y87946D01*
X577940Y87000D01*
X578148Y85419D01*
X577624Y84820D01*
X577092Y84482D01*
X575937Y84960D01*
X573000Y85347D01*
X570063Y84960D01*
X567326Y83827D01*
X564976Y82024D01*
X563173Y79674D01*
X562040Y76937D01*
X561653Y74000D01*
X562040Y71063D01*
X563173Y68327D01*
X564976Y65976D01*
X567326Y64173D01*
X570063Y63040D01*
X573000Y62653D01*
X575937Y63040D01*
X578674Y64173D01*
X579187Y64567D01*
X580612Y63142D01*
X581694Y62420D01*
X582970Y62166D01*
X594584D01*
X594731Y61427D01*
X595611Y60111D01*
X596927Y59231D01*
X598480Y58922D01*
X603520D01*
X605073Y59231D01*
X606389Y60111D01*
X607269Y61427D01*
X607578Y62980D01*
Y69020D01*
X607269Y70573D01*
X606389Y71889D01*
X605073Y72769D01*
X603520Y73078D01*
X598480D01*
X596927Y72769D01*
X595611Y71889D01*
X594731Y70573D01*
X594422Y69020D01*
Y68834D01*
X584351D01*
X583422Y69763D01*
X583960Y71063D01*
X584347Y74000D01*
X583960Y76937D01*
X583146Y78903D01*
X584039Y80066D01*
X585000Y79940D01*
X586827Y80180D01*
X587024Y80261D01*
X587643Y79642D01*
X588724Y78920D01*
X590000Y78666D01*
X594484D01*
X594731Y77427D01*
X595611Y76111D01*
X596927Y75231D01*
X598480Y74922D01*
X603520D01*
X605073Y75231D01*
X606389Y76111D01*
X607269Y77427D01*
X607578Y78980D01*
Y85020D01*
X607269Y86573D01*
X606389Y87889D01*
X605073Y88769D01*
X603520Y89078D01*
X598480D01*
X596927Y88769D01*
X595611Y87889D01*
X594731Y86573D01*
X594484Y85334D01*
X592804D01*
X591967Y86289D01*
X592060Y87000D01*
X591820Y88827D01*
X591115Y90530D01*
X589992Y91992D01*
X588530Y93115D01*
X586827Y93820D01*
X585566Y93986D01*
X584843Y95073D01*
X584805Y95316D01*
X584830Y95366D01*
X594422D01*
Y94980D01*
X594731Y93427D01*
X595611Y92111D01*
X596927Y91231D01*
X598480Y90922D01*
X603520D01*
X605073Y91231D01*
X606389Y92111D01*
X607269Y93427D01*
X607578Y94980D01*
Y101020D01*
X607269Y102573D01*
X606389Y103889D01*
X605073Y104769D01*
X603520Y105078D01*
X598480D01*
X596927Y104769D01*
X595611Y103889D01*
X594731Y102573D01*
X594624Y102034D01*
X584000D01*
X583960Y102337D01*
X582827Y105073D01*
X581788Y106427D01*
X581832Y106684D01*
X582438Y107666D01*
X584804D01*
X584885Y107470D01*
X586008Y106008D01*
X587470Y104886D01*
X589173Y104180D01*
X591000Y103940D01*
X592827Y104180D01*
X594530Y104886D01*
X595993Y106008D01*
X597114Y107470D01*
X597820Y109173D01*
X598060Y111000D01*
X597820Y112827D01*
X597114Y114530D01*
X595993Y115992D01*
X594530Y117114D01*
X592827Y117820D01*
X591000Y118060D01*
X589173Y117820D01*
X587470Y117114D01*
X586008Y115992D01*
X584885Y114530D01*
X584804Y114334D01*
X583381D01*
X576222Y121493D01*
X576708Y122666D01*
X647235D01*
X655340Y114561D01*
X655152Y113882D01*
X654771Y113334D01*
X643500D01*
X642224Y113080D01*
X641143Y112358D01*
X633863Y105078D01*
X629480D01*
X627927Y104769D01*
X626611Y103889D01*
X625731Y102573D01*
X625422Y101020D01*
Y94980D01*
X625731Y93427D01*
X626611Y92111D01*
X627927Y91231D01*
X629480Y90922D01*
X633352D01*
X633788Y90348D01*
X633158Y89078D01*
X629480D01*
X627927Y88769D01*
X626611Y87889D01*
X625731Y86573D01*
X625422Y85020D01*
Y79637D01*
X624500Y78715D01*
X623578Y79637D01*
Y85020D01*
X623269Y86573D01*
X622389Y87889D01*
X621073Y88769D01*
X620334Y88916D01*
Y91084D01*
X621073Y91231D01*
X622389Y92111D01*
X623269Y93427D01*
X623578Y94980D01*
Y101020D01*
X623269Y102573D01*
X622389Y103889D01*
X621073Y104769D01*
X619520Y105078D01*
X614480D01*
X612927Y104769D01*
X611611Y103889D01*
X610731Y102573D01*
X610422Y101020D01*
Y94980D01*
X610731Y93427D01*
X611611Y92111D01*
X612927Y91231D01*
X613666Y91084D01*
Y88916D01*
X612927Y88769D01*
X611611Y87889D01*
X610731Y86573D01*
X610422Y85020D01*
Y78980D01*
X610731Y77427D01*
X611611Y76111D01*
X612927Y75231D01*
X614480Y74922D01*
X618863D01*
X619785Y74000D01*
X618863Y73078D01*
X614480D01*
X612927Y72769D01*
X611611Y71889D01*
X610731Y70573D01*
X610422Y69020D01*
Y62980D01*
X610731Y61427D01*
X611611Y60111D01*
X612927Y59231D01*
X614480Y58922D01*
X619520D01*
X621073Y59231D01*
X622389Y60111D01*
X623269Y61427D01*
X623578Y62980D01*
Y68363D01*
X624500Y69285D01*
X625422Y68363D01*
Y62980D01*
X625731Y61427D01*
X626611Y60111D01*
X627927Y59231D01*
X629480Y58922D01*
X634520D01*
X635008Y59019D01*
X635634Y57849D01*
X633863Y56078D01*
X629480D01*
X627927Y55769D01*
X626611Y54889D01*
X625731Y53573D01*
X625485Y52334D01*
X623516D01*
X623269Y53573D01*
X622389Y54889D01*
X621073Y55769D01*
X619520Y56078D01*
X614480D01*
X612927Y55769D01*
X611611Y54889D01*
X610731Y53573D01*
X610422Y52020D01*
Y45980D01*
X610731Y44427D01*
X611611Y43111D01*
X612927Y42231D01*
X614480Y41922D01*
X619520D01*
X621073Y42231D01*
X622389Y43111D01*
X623269Y44427D01*
X623516Y45666D01*
X625485D01*
X625731Y44427D01*
X626611Y43111D01*
X627927Y42231D01*
X629480Y41922D01*
X634520D01*
X636073Y42231D01*
X637389Y43111D01*
X638269Y44427D01*
X638578Y45980D01*
Y51363D01*
X640349Y53134D01*
X641519Y52508D01*
X641422Y52020D01*
Y45980D01*
X641731Y44427D01*
X642611Y43111D01*
X643927Y42231D01*
X645480Y41922D01*
X650520D01*
X652073Y42231D01*
X653389Y43111D01*
X654269Y44427D01*
X654578Y45980D01*
Y50698D01*
X655634Y51403D01*
X656173Y51180D01*
X658000Y50940D01*
X659827Y51180D01*
X661530Y51885D01*
X661797Y52090D01*
X662936Y51529D01*
Y44651D01*
X655619Y37334D01*
X646196D01*
X646115Y37530D01*
X644992Y38993D01*
X643530Y40114D01*
X641827Y40820D01*
X640000Y41060D01*
X638173Y40820D01*
X636470Y40114D01*
X635008Y38993D01*
X633885Y37530D01*
X633180Y35827D01*
X632940Y34000D01*
X633180Y32173D01*
X633885Y30470D01*
X635008Y29008D01*
X636470Y27885D01*
X638173Y27180D01*
X640000Y26940D01*
X641827Y27180D01*
X643530Y27885D01*
X644992Y29008D01*
X646115Y30470D01*
X646196Y30666D01*
X657000D01*
X658276Y30920D01*
X659358Y31642D01*
X668627Y40912D01*
X669350Y41994D01*
X669604Y43270D01*
Y66889D01*
X680841Y78126D01*
X790679D01*
X794163Y74643D01*
X795244Y73920D01*
X796520Y73666D01*
X820804D01*
X820885Y73470D01*
X822008Y72008D01*
X823470Y70886D01*
X825173Y70180D01*
X827000Y69940D01*
X828827Y70180D01*
X830530Y70886D01*
X831992Y72008D01*
X833114Y73470D01*
X833820Y75173D01*
X834060Y77000D01*
X833820Y78827D01*
X833114Y80530D01*
X831992Y81992D01*
X830530Y83115D01*
X828827Y83820D01*
X827000Y84060D01*
X825173Y83820D01*
X823470Y83115D01*
X822008Y81992D01*
X820885Y80530D01*
X820804Y80334D01*
X817076D01*
X816450Y81604D01*
X817114Y82470D01*
X817820Y84173D01*
X818060Y86000D01*
X817820Y87827D01*
X817114Y89530D01*
X816512Y90316D01*
X817138Y91586D01*
X896920D01*
X898196Y91840D01*
X899277Y92563D01*
X910358Y103643D01*
X911080Y104724D01*
X911334Y106000D01*
Y178264D01*
X911530Y178346D01*
X912992Y179468D01*
X914115Y180930D01*
X914820Y182633D01*
X915060Y184460D01*
X914820Y186287D01*
X914115Y187990D01*
X912992Y189452D01*
X911530Y190574D01*
X909827Y191280D01*
X908000Y191520D01*
X906173Y191280D01*
X904470Y190574D01*
X903604Y189910D01*
X902334Y190536D01*
Y193000D01*
X902080Y194276D01*
X901357Y195357D01*
X894445Y202269D01*
X893364Y202992D01*
X892088Y203246D01*
X866449D01*
X865472Y204516D01*
X865569Y205000D01*
X865297Y206366D01*
X864539Y207500D01*
X865297Y208634D01*
X865569Y210000D01*
X865297Y211366D01*
X864539Y212500D01*
X865297Y213634D01*
X865569Y215000D01*
X865490Y215396D01*
X866507Y216666D01*
X928619D01*
X965126Y180159D01*
X964040Y177537D01*
X963653Y174600D01*
X964040Y171663D01*
X965173Y168927D01*
X966976Y166576D01*
X969326Y164773D01*
X972063Y163640D01*
X975000Y163253D01*
X977937Y163640D01*
X980674Y164773D01*
X983024Y166576D01*
X984827Y168927D01*
X985960Y171663D01*
X986347Y174600D01*
X985960Y177537D01*
X984827Y180273D01*
X983024Y182624D01*
X980674Y184427D01*
X977937Y185560D01*
X975000Y185947D01*
X972063Y185560D01*
X970006Y184708D01*
X934222Y220493D01*
X934708Y221666D01*
X948619D01*
X965009Y205276D01*
X964040Y202937D01*
X963653Y200000D01*
X964040Y197063D01*
X965173Y194326D01*
X966976Y191976D01*
X969326Y190173D01*
X972063Y189040D01*
X975000Y188653D01*
X977937Y189040D01*
X980674Y190173D01*
X983024Y191976D01*
X984827Y194326D01*
X985960Y197063D01*
X986347Y200000D01*
X985960Y202937D01*
X984827Y205674D01*
X983024Y208024D01*
X980674Y209827D01*
X977937Y210960D01*
X975000Y211347D01*
X972063Y210960D01*
X969724Y209991D01*
X954222Y225493D01*
X954708Y226666D01*
X962857D01*
X963694Y225711D01*
X963653Y225400D01*
X964040Y222463D01*
X965173Y219727D01*
X966976Y217376D01*
X969326Y215573D01*
X972063Y214440D01*
X975000Y214053D01*
X977937Y214440D01*
X980674Y215573D01*
X983024Y217376D01*
X984827Y219727D01*
X985960Y222463D01*
X986347Y225400D01*
X985960Y228337D01*
X984827Y231073D01*
X983024Y233424D01*
X980674Y235227D01*
X977937Y236360D01*
X975000Y236747D01*
X972063Y236360D01*
X969326Y235227D01*
X966976Y233424D01*
X966908Y233334D01*
X964708D01*
X964222Y234507D01*
X969441Y239726D01*
X972063Y238640D01*
X975000Y238253D01*
X977937Y238640D01*
X980674Y239773D01*
X983024Y241576D01*
X984827Y243927D01*
X985960Y246663D01*
X986347Y249600D01*
X985960Y252537D01*
X984827Y255273D01*
X983024Y257624D01*
X980674Y259427D01*
X977937Y260560D01*
X975000Y260947D01*
X972063Y260560D01*
X969326Y259427D01*
X966976Y257624D01*
X965173Y255273D01*
X964040Y252537D01*
X963653Y249600D01*
X964040Y246663D01*
X964892Y244606D01*
X958619Y238334D01*
X955708D01*
X955222Y239507D01*
X958357Y242642D01*
X959080Y243724D01*
X959334Y245000D01*
Y254619D01*
X969724Y265009D01*
X972063Y264040D01*
X975000Y263653D01*
X977937Y264040D01*
X980674Y265173D01*
X983024Y266976D01*
X984827Y269326D01*
X985960Y272063D01*
X986347Y275000D01*
X985960Y277937D01*
X984827Y280674D01*
X983024Y283024D01*
X980674Y284827D01*
X977937Y285960D01*
X975000Y286347D01*
X972063Y285960D01*
X969326Y284827D01*
X966976Y283024D01*
X965173Y280674D01*
X964040Y277937D01*
X963653Y275000D01*
X964040Y272063D01*
X965009Y269724D01*
X953643Y258358D01*
X952920Y257276D01*
X952666Y256000D01*
Y246381D01*
X949619Y243334D01*
X935708D01*
X935222Y244507D01*
X958357Y267642D01*
X959080Y268724D01*
X959334Y270000D01*
Y284619D01*
X967041Y292327D01*
X969326Y290573D01*
X972063Y289440D01*
X975000Y289053D01*
X977937Y289440D01*
X980674Y290573D01*
X983024Y292376D01*
X984827Y294727D01*
X985960Y297463D01*
X986347Y300400D01*
X985960Y303337D01*
X984827Y306073D01*
X983024Y308424D01*
X980674Y310227D01*
X977937Y311360D01*
X975000Y311747D01*
X972063Y311360D01*
X969326Y310227D01*
X966976Y308424D01*
X965173Y306073D01*
X964040Y303337D01*
X963653Y300400D01*
X963889Y298604D01*
X953643Y288358D01*
X952920Y287276D01*
X952666Y286000D01*
Y271381D01*
X929619Y248334D01*
X919708D01*
X919222Y249507D01*
X935358Y265643D01*
X937977Y268262D01*
X938173Y268180D01*
X940000Y267940D01*
X941827Y268180D01*
X943530Y268885D01*
X944992Y270008D01*
X946115Y271470D01*
X946820Y273173D01*
X947060Y275000D01*
X946820Y276827D01*
X946115Y278530D01*
X944992Y279993D01*
X943530Y281115D01*
X941827Y281820D01*
X940000Y282060D01*
X938173Y281820D01*
X936470Y281115D01*
X935008Y279993D01*
X933885Y278530D01*
X933604Y277851D01*
X932334Y278103D01*
Y287619D01*
X937977Y293262D01*
X938173Y293180D01*
X940000Y292940D01*
X941827Y293180D01*
X943530Y293885D01*
X944992Y295008D01*
X946115Y296470D01*
X946820Y298173D01*
X947060Y300000D01*
X946820Y301827D01*
X946115Y303530D01*
X944992Y304993D01*
X943530Y306115D01*
X941827Y306820D01*
X940000Y307060D01*
X938173Y306820D01*
X936470Y306115D01*
X935008Y304993D01*
X933885Y303530D01*
X933180Y301827D01*
X932940Y300000D01*
X933180Y298173D01*
X933261Y297976D01*
X927604Y292319D01*
X926334Y292845D01*
Y306619D01*
X937977Y318261D01*
X938173Y318180D01*
X940000Y317940D01*
X941827Y318180D01*
X943530Y318885D01*
X944992Y320008D01*
X946115Y321470D01*
X946820Y323173D01*
X947060Y325000D01*
X946820Y326827D01*
X946115Y328530D01*
X944992Y329992D01*
X943530Y331115D01*
X941827Y331820D01*
X940000Y332060D01*
X938173Y331820D01*
X936470Y331115D01*
X935008Y329992D01*
X933885Y328530D01*
X933180Y326827D01*
X932940Y325000D01*
X933180Y323173D01*
X933261Y322976D01*
X920642Y310357D01*
X919920Y309276D01*
X919666Y308000D01*
Y273381D01*
X909619Y263334D01*
X899708D01*
X899222Y264507D01*
X902977Y268262D01*
X903173Y268180D01*
X905000Y267940D01*
X906827Y268180D01*
X908530Y268885D01*
X909992Y270008D01*
X911115Y271470D01*
X911820Y273173D01*
X912060Y275000D01*
X911820Y276827D01*
X911115Y278530D01*
X909992Y279993D01*
X908530Y281115D01*
X906827Y281820D01*
X905000Y282060D01*
X903173Y281820D01*
X901470Y281115D01*
X900007Y279993D01*
X898885Y278530D01*
X898180Y276827D01*
X897940Y275000D01*
X898180Y273173D01*
X898261Y272976D01*
X893619Y268334D01*
X879898D01*
X879467Y269604D01*
X879992Y270008D01*
X881115Y271470D01*
X881820Y273173D01*
X882060Y275000D01*
X881820Y276827D01*
X881115Y278530D01*
X879992Y279993D01*
X878530Y281115D01*
X876827Y281820D01*
X875000Y282060D01*
X873355Y281844D01*
X873013Y282223D01*
X872708Y282993D01*
X874381Y284666D01*
X880619D01*
X883261Y282024D01*
X883180Y281827D01*
X882940Y280000D01*
X883180Y278173D01*
X883885Y276470D01*
X885008Y275008D01*
X886470Y273885D01*
X888173Y273180D01*
X890000Y272940D01*
X891827Y273180D01*
X893530Y273885D01*
X894992Y275008D01*
X896115Y276470D01*
X896820Y278173D01*
X897060Y280000D01*
X896820Y281827D01*
X896115Y283530D01*
X894992Y284992D01*
X893530Y286115D01*
X891827Y286820D01*
X890000Y287060D01*
X888173Y286820D01*
X887977Y286738D01*
X884358Y290357D01*
X884300Y290396D01*
X884685Y291666D01*
X895000D01*
X896276Y291920D01*
X897357Y292642D01*
X897977Y293262D01*
X898173Y293180D01*
X900000Y292940D01*
X901827Y293180D01*
X903530Y293885D01*
X904992Y295008D01*
X906115Y296470D01*
X906820Y298173D01*
X907060Y300000D01*
X906820Y301827D01*
X906115Y303530D01*
X904992Y304993D01*
X903530Y306115D01*
X901827Y306820D01*
X900000Y307060D01*
X898173Y306820D01*
X896470Y306115D01*
X895008Y304993D01*
X893885Y303530D01*
X893180Y301827D01*
X892940Y300000D01*
X893033Y299289D01*
X892196Y298334D01*
X879708D01*
X879222Y299507D01*
X897977Y318261D01*
X898173Y318180D01*
X900000Y317940D01*
X901827Y318180D01*
X903530Y318885D01*
X904993Y320008D01*
X906115Y321470D01*
X906820Y323173D01*
X907060Y325000D01*
X906820Y326827D01*
X906115Y328530D01*
X904993Y329992D01*
X903530Y331115D01*
X901827Y331820D01*
X900000Y332060D01*
X898173Y331820D01*
X896470Y331115D01*
X895008Y329992D01*
X893886Y328530D01*
X893180Y326827D01*
X892940Y325000D01*
X893180Y323173D01*
X893261Y322976D01*
X873619Y303334D01*
X866507D01*
X865490Y304604D01*
X865569Y305000D01*
X865297Y306366D01*
X864539Y307500D01*
X865297Y308634D01*
X865569Y310000D01*
X865297Y311366D01*
X864523Y312523D01*
X864476Y312555D01*
X864390Y312697D01*
X864345Y314170D01*
X880358Y330182D01*
X881080Y331263D01*
X881334Y332539D01*
Y350282D01*
X882604Y350961D01*
X882945Y350733D01*
X884510Y350421D01*
X891490D01*
X893055Y350733D01*
X894381Y351619D01*
X895267Y352945D01*
X895579Y354510D01*
Y356490D01*
X895267Y358055D01*
X894381Y359381D01*
X893055Y360267D01*
X891490Y360579D01*
X884510D01*
X882945Y360267D01*
X882604Y360039D01*
X881334Y360718D01*
Y369288D01*
X882408Y370092D01*
X882945Y369733D01*
X884510Y369422D01*
X891490D01*
X893055Y369733D01*
X894077Y370416D01*
X902922D01*
Y370245D01*
X903232Y368686D01*
X904115Y367365D01*
X905436Y366482D01*
X906995Y366172D01*
X913005D01*
X914564Y366482D01*
X915885Y367365D01*
X916768Y368686D01*
X917078Y370245D01*
Y375755D01*
X916768Y377314D01*
X915885Y378635D01*
X914564Y379518D01*
X913005Y379828D01*
X906995D01*
X905436Y379518D01*
X904115Y378635D01*
X903232Y377314D01*
X903186Y377084D01*
X895248D01*
X894381Y378381D01*
X893055Y379267D01*
X891490Y379579D01*
X884510D01*
X882945Y379267D01*
X881619Y378381D01*
X881216Y377777D01*
X880224Y377580D01*
X879143Y376857D01*
X875922Y373637D01*
X875817Y373648D01*
X872607Y376857D01*
X871526Y377580D01*
X870250Y377834D01*
X868746D01*
X868381Y378381D01*
X867055Y379267D01*
X865490Y379579D01*
X858510D01*
X856945Y379267D01*
X855619Y378381D01*
X855254Y377834D01*
X844746D01*
X844381Y378381D01*
X843055Y379267D01*
X841490Y379579D01*
X841334D01*
Y386000D01*
X841080Y387276D01*
X840358Y388358D01*
X817334Y411381D01*
Y414583D01*
X817384Y414616D01*
X818268Y415939D01*
X818578Y417500D01*
Y436500D01*
X818268Y438061D01*
X817384Y439384D01*
X817334Y439417D01*
Y445694D01*
X817769Y446131D01*
X818604Y446628D01*
X820000Y446444D01*
X821697Y446667D01*
X823278Y447322D01*
X824636Y448364D01*
X825678Y449722D01*
X826333Y451303D01*
X826556Y453000D01*
X826333Y454697D01*
X825678Y456278D01*
X824636Y457636D01*
X823278Y458678D01*
X821697Y459333D01*
X820000Y459556D01*
X818303Y459333D01*
X816722Y458678D01*
X815364Y457636D01*
X814322Y456278D01*
X813667Y454697D01*
X813568Y453943D01*
X812763Y453554D01*
X812222Y453448D01*
X811276Y454080D01*
X810000Y454334D01*
X784988D01*
X783712Y454080D01*
X783696Y454069D01*
X782334Y454687D01*
X782333Y454697D01*
X781678Y456278D01*
X780636Y457636D01*
X779278Y458678D01*
X777697Y459333D01*
X776000Y459556D01*
X774303Y459333D01*
X772722Y458678D01*
X771364Y457636D01*
X770322Y456278D01*
X769667Y454697D01*
X769444Y453000D01*
X769667Y451303D01*
X770276Y449834D01*
X769942Y448904D01*
X769775Y448564D01*
X677029D01*
X652235Y473358D01*
X651154Y474080D01*
X649878Y474334D01*
D02*
G37*
G36*
X199490Y446230D02*
X187270D01*
Y434010D01*
X189535Y434309D01*
X192828Y435673D01*
X195657Y437843D01*
X197827Y440672D01*
X199191Y443965D01*
X199490Y446230D01*
D02*
G37*
G36*
X184730D02*
X172510D01*
X172808Y443965D01*
X174173Y440672D01*
X176343Y437843D01*
X179172Y435673D01*
X182465Y434309D01*
X184730Y434010D01*
Y446230D01*
D02*
G37*
G36*
X850500Y443129D02*
X843770D01*
Y429270D01*
X855129D01*
Y438500D01*
X854777Y440271D01*
X853773Y441773D01*
X852271Y442777D01*
X850500Y443129D01*
D02*
G37*
G36*
X841230D02*
X834500D01*
X832729Y442777D01*
X831227Y441773D01*
X830223Y440271D01*
X829871Y438500D01*
Y429270D01*
X841230D01*
Y443129D01*
D02*
G37*
G36*
X950000Y487114D02*
X944194Y486657D01*
X938531Y485298D01*
X933150Y483069D01*
X928185Y480026D01*
X923756Y476244D01*
X919974Y471815D01*
X916931Y466850D01*
X914702Y461469D01*
X913343Y455806D01*
X912886Y450000D01*
X913343Y444194D01*
X914702Y438531D01*
X916931Y433150D01*
X919974Y428185D01*
X923756Y423756D01*
X928185Y419974D01*
X933150Y416931D01*
X938531Y414702D01*
X944194Y413343D01*
X950000Y412886D01*
X955806Y413343D01*
X961469Y414702D01*
X966850Y416931D01*
X971815Y419974D01*
X976244Y423756D01*
X980026Y428185D01*
X983069Y433150D01*
X985298Y438531D01*
X986657Y444194D01*
X987114Y450000D01*
X986657Y455806D01*
X985298Y461469D01*
X983069Y466850D01*
X980026Y471815D01*
X976244Y476244D01*
X971815Y480026D01*
X966850Y483069D01*
X961469Y485298D01*
X955806Y486657D01*
X950000Y487114D01*
D02*
G37*
G36*
X50000D02*
X44194Y486657D01*
X38531Y485298D01*
X33150Y483069D01*
X28185Y480026D01*
X23756Y476244D01*
X19974Y471815D01*
X16931Y466850D01*
X14702Y461469D01*
X13342Y455806D01*
X12886Y450000D01*
X13342Y444194D01*
X14702Y438531D01*
X16931Y433150D01*
X19974Y428185D01*
X23756Y423756D01*
X28185Y419974D01*
X33150Y416931D01*
X38531Y414702D01*
X44194Y413343D01*
X50000Y412886D01*
X55806Y413343D01*
X61469Y414702D01*
X66850Y416931D01*
X71815Y419974D01*
X76244Y423756D01*
X80026Y428185D01*
X83069Y433150D01*
X85298Y438531D01*
X86657Y444194D01*
X87114Y450000D01*
X86657Y455806D01*
X85298Y461469D01*
X83069Y466850D01*
X80026Y471815D01*
X76244Y476244D01*
X71815Y480026D01*
X66850Y483069D01*
X61469Y485298D01*
X55806Y486657D01*
X50000Y487114D01*
D02*
G37*
G36*
X855129Y426730D02*
X843770D01*
Y412871D01*
X850500D01*
X852271Y413223D01*
X853773Y414227D01*
X854777Y415729D01*
X855129Y417500D01*
Y426730D01*
D02*
G37*
G36*
X841230D02*
X829871D01*
Y417500D01*
X830223Y415729D01*
X831227Y414227D01*
X832729Y413223D01*
X834500Y412871D01*
X841230D01*
Y426730D01*
D02*
G37*
G36*
X236000Y460612D02*
X232606Y460165D01*
X229444Y458856D01*
X226728Y456772D01*
X224645Y454056D01*
X223335Y450894D01*
X222888Y447500D01*
X223335Y444106D01*
X224645Y440944D01*
X226728Y438228D01*
X229444Y436144D01*
X232606Y434835D01*
X232666Y434827D01*
Y431381D01*
X222642Y421358D01*
X221920Y420276D01*
X221666Y419000D01*
Y406381D01*
X198619Y383334D01*
X195599D01*
Y386460D01*
X195286Y388036D01*
X194393Y389373D01*
X193056Y390266D01*
X191480Y390579D01*
X170560D01*
X168984Y390266D01*
X167647Y389373D01*
X166754Y388036D01*
X166441Y386460D01*
Y373540D01*
X166754Y371964D01*
X167647Y370627D01*
X168984Y369734D01*
X170560Y369421D01*
X191480D01*
X193056Y369734D01*
X194393Y370627D01*
X195286Y371964D01*
X195599Y373540D01*
Y376666D01*
X200000D01*
X201276Y376920D01*
X202358Y377643D01*
X227358Y402643D01*
X228080Y403724D01*
X228334Y405000D01*
Y417619D01*
X238358Y427643D01*
X239080Y428724D01*
X239334Y430000D01*
Y434827D01*
X239394Y434835D01*
X242556Y436144D01*
X245272Y438228D01*
X247355Y440944D01*
X248665Y444106D01*
X249112Y447500D01*
X248665Y450894D01*
X247355Y454056D01*
X245272Y456772D01*
X242556Y458856D01*
X239394Y460165D01*
X236000Y460612D01*
D02*
G37*
G36*
X84460Y390579D02*
X63540D01*
X61964Y390266D01*
X60627Y389373D01*
X59734Y388036D01*
X59421Y386460D01*
Y373540D01*
X59734Y371964D01*
X60627Y370627D01*
X61964Y369734D01*
X63540Y369421D01*
X84460D01*
X86036Y369734D01*
X87373Y370627D01*
X88266Y371964D01*
X88579Y373540D01*
Y376666D01*
X92084D01*
X92231Y375927D01*
X93111Y374611D01*
X94427Y373731D01*
X95980Y373422D01*
X102020D01*
X103573Y373731D01*
X104889Y374611D01*
X105769Y375927D01*
X106078Y377480D01*
Y382520D01*
X105769Y384073D01*
X104889Y385389D01*
X103573Y386269D01*
X102020Y386578D01*
X95980D01*
X94427Y386269D01*
X93111Y385389D01*
X92231Y384073D01*
X92084Y383334D01*
X88579D01*
Y386460D01*
X88266Y388036D01*
X87373Y389373D01*
X86036Y390266D01*
X84460Y390579D01*
D02*
G37*
G36*
X136000Y460612D02*
X132606Y460165D01*
X129444Y458856D01*
X126728Y456772D01*
X124644Y454056D01*
X123335Y450894D01*
X122888Y447500D01*
X123335Y444106D01*
X124644Y440944D01*
X126728Y438228D01*
X129444Y436144D01*
X132606Y434835D01*
X132666Y434827D01*
Y421947D01*
X118053Y407334D01*
X62000D01*
X60724Y407080D01*
X59643Y406357D01*
X43864Y390579D01*
X23540D01*
X21964Y390266D01*
X20627Y389373D01*
X19734Y388036D01*
X19421Y386460D01*
Y373540D01*
X19734Y371964D01*
X20627Y370627D01*
X21964Y369734D01*
X23540Y369421D01*
X44460D01*
X46036Y369734D01*
X47373Y370627D01*
X48266Y371964D01*
X48579Y373540D01*
Y385864D01*
X63381Y400666D01*
X119434D01*
X120710Y400920D01*
X121791Y401642D01*
X138358Y418209D01*
X139080Y419291D01*
X139334Y420566D01*
Y434827D01*
X139394Y434835D01*
X142556Y436144D01*
X145272Y438228D01*
X147355Y440944D01*
X148665Y444106D01*
X149112Y447500D01*
X148665Y450894D01*
X147355Y454056D01*
X145272Y456772D01*
X142556Y458856D01*
X139394Y460165D01*
X136000Y460612D01*
D02*
G37*
G36*
X913005Y364379D02*
X911270D01*
Y358270D01*
X917629D01*
Y359755D01*
X917277Y361525D01*
X916274Y363024D01*
X914774Y364027D01*
X913005Y364379D01*
D02*
G37*
G36*
X908730D02*
X906995D01*
X905226Y364027D01*
X903725Y363024D01*
X902723Y361525D01*
X902371Y359755D01*
Y358270D01*
X908730D01*
Y364379D01*
D02*
G37*
G36*
X29735Y359379D02*
X27770D01*
Y354770D01*
X34372D01*
X34026Y356512D01*
X33019Y358019D01*
X31512Y359026D01*
X29735Y359379D01*
D02*
G37*
G36*
X25230D02*
X23265D01*
X21488Y359026D01*
X19981Y358019D01*
X18974Y356512D01*
X18628Y354770D01*
X25230D01*
Y359379D01*
D02*
G37*
G36*
Y352230D02*
X18628D01*
X18974Y350488D01*
X19981Y348981D01*
X21488Y347974D01*
X23265Y347621D01*
X25230D01*
Y352230D01*
D02*
G37*
G36*
X34509D02*
X27770D01*
Y347621D01*
X28964D01*
X29829Y346390D01*
X29654Y345968D01*
X29562Y345270D01*
X35730D01*
Y351438D01*
X35504Y351408D01*
X34587Y352107D01*
X34575Y352120D01*
X34509Y352230D01*
D02*
G37*
G36*
X910000Y357000D02*
D01*
Y355730D01*
X902371D01*
Y354245D01*
X902723Y352476D01*
X903725Y350975D01*
X905226Y349973D01*
X906995Y349621D01*
X907988D01*
X908071Y348351D01*
X908032Y348346D01*
X906198Y347586D01*
X904622Y346378D01*
X903414Y344803D01*
X902654Y342968D01*
X902562Y342270D01*
X917438D01*
X917346Y342968D01*
X916586Y344803D01*
X915378Y346378D01*
X913802Y347586D01*
X911968Y348346D01*
X911929Y348351D01*
X912012Y349621D01*
X913005D01*
X914774Y349973D01*
X916274Y350975D01*
X917277Y352476D01*
X917629Y354245D01*
Y355730D01*
X910000D01*
Y357000D01*
D02*
G37*
G36*
X35730Y342730D02*
X29562D01*
X29654Y342032D01*
X30057Y341059D01*
X29991Y340807D01*
X29192Y339829D01*
X23265D01*
X21698Y339517D01*
X20370Y338630D01*
X19483Y337302D01*
X19171Y335735D01*
Y333265D01*
X19483Y331698D01*
X20370Y330370D01*
X21698Y329483D01*
X23265Y329171D01*
X29735D01*
X31302Y329483D01*
X32630Y330370D01*
X33517Y331698D01*
X33829Y333265D01*
Y335735D01*
X33784Y335958D01*
X34766Y336764D01*
X35032Y336654D01*
X35730Y336562D01*
Y342730D01*
D02*
G37*
G36*
X917438Y339730D02*
X911270D01*
Y333562D01*
X911968Y333654D01*
X913802Y334414D01*
X915378Y335622D01*
X916586Y337197D01*
X917346Y339032D01*
X917438Y339730D01*
D02*
G37*
G36*
X908730D02*
X902562D01*
X902654Y339032D01*
X903414Y337197D01*
X904622Y335622D01*
X906198Y334414D01*
X908032Y333654D01*
X908730Y333562D01*
Y339730D01*
D02*
G37*
G36*
X476520Y130578D02*
X471480D01*
X469927Y130269D01*
X468611Y129389D01*
X467731Y128073D01*
X467422Y126520D01*
Y120480D01*
X467519Y119992D01*
X466349Y119366D01*
X464578Y121137D01*
Y126520D01*
X464269Y128073D01*
X463389Y129389D01*
X462073Y130269D01*
X460520Y130578D01*
X455480D01*
X453927Y130269D01*
X452611Y129389D01*
X451731Y128073D01*
X451422Y126520D01*
Y120480D01*
X451731Y118927D01*
X452611Y117611D01*
X453927Y116731D01*
X454666Y116584D01*
Y114416D01*
X453927Y114269D01*
X452611Y113389D01*
X451731Y112073D01*
X451422Y110520D01*
Y104480D01*
X451731Y102927D01*
X452611Y101611D01*
X453927Y100731D01*
X455480Y100422D01*
X459157D01*
X459788Y99152D01*
X459352Y98578D01*
X455480D01*
X453927Y98269D01*
X452611Y97389D01*
X451731Y96073D01*
X451484Y94834D01*
X444601D01*
X443983Y96104D01*
X444760Y97267D01*
X445148Y99218D01*
Y108718D01*
X444760Y110668D01*
X443655Y112322D01*
X443384Y112503D01*
Y117916D01*
X443130Y119192D01*
X442407Y120273D01*
X441928Y120753D01*
Y126520D01*
X441619Y128073D01*
X440739Y129389D01*
X439423Y130269D01*
X437870Y130578D01*
X432830D01*
X431277Y130269D01*
X429961Y129389D01*
X429081Y128073D01*
X428772Y126520D01*
Y120480D01*
X429081Y118927D01*
X429961Y117611D01*
X431277Y116731D01*
X432830Y116422D01*
X436716D01*
Y112503D01*
X436445Y112322D01*
X435340Y110668D01*
X434952Y108718D01*
Y99218D01*
X435340Y97267D01*
X436117Y96104D01*
X435499Y94834D01*
X431346D01*
Y96198D01*
X432060Y97267D01*
X432448Y99218D01*
Y108718D01*
X432060Y110668D01*
X430955Y112322D01*
X429301Y113427D01*
X427350Y113815D01*
X425399Y113427D01*
X423745Y112322D01*
X422640Y110668D01*
X422252Y108718D01*
Y99218D01*
X422640Y97267D01*
X423745Y95613D01*
X424678Y94990D01*
Y92988D01*
X424932Y91712D01*
X425654Y90631D01*
X427142Y89143D01*
X428224Y88420D01*
X429500Y88166D01*
X451484D01*
X451731Y86927D01*
X452611Y85611D01*
X453927Y84731D01*
X455480Y84422D01*
X460520D01*
X462073Y84731D01*
X463389Y85611D01*
X464269Y86927D01*
X464578Y88480D01*
Y93863D01*
X466349Y95634D01*
X467519Y95008D01*
X467422Y94520D01*
Y88480D01*
X467731Y86927D01*
X468611Y85611D01*
X469927Y84731D01*
X471480Y84422D01*
X475998D01*
X476461Y83827D01*
X475824Y82578D01*
X471480D01*
X469927Y82269D01*
X468611Y81389D01*
X467731Y80073D01*
X467422Y78520D01*
Y72480D01*
X467731Y70927D01*
X468611Y69611D01*
X469927Y68731D01*
X471480Y68422D01*
X475863D01*
X498042Y46242D01*
X499124Y45520D01*
X500400Y45266D01*
X512204D01*
X513173Y42927D01*
X514976Y40576D01*
X517326Y38773D01*
X520063Y37640D01*
X523000Y37253D01*
X525937Y37640D01*
X528674Y38773D01*
X531024Y40576D01*
X532827Y42927D01*
X533960Y45663D01*
X534347Y48600D01*
X533960Y51537D01*
X532827Y54274D01*
X531024Y56624D01*
X528674Y58427D01*
X525937Y59560D01*
X523000Y59947D01*
X520063Y59560D01*
X517326Y58427D01*
X514976Y56624D01*
X513173Y54274D01*
X512204Y51934D01*
X501781D01*
X480578Y73137D01*
Y78411D01*
X480830Y78623D01*
X481776Y79009D01*
X489142Y71642D01*
X490224Y70920D01*
X491500Y70666D01*
X512204D01*
X513173Y68327D01*
X514976Y65976D01*
X517326Y64173D01*
X520063Y63040D01*
X523000Y62653D01*
X525937Y63040D01*
X528674Y64173D01*
X531024Y65976D01*
X532827Y68327D01*
X533960Y71063D01*
X534347Y74000D01*
X533960Y76937D01*
X532827Y79674D01*
X531106Y81916D01*
X531272Y82755D01*
X531418Y83186D01*
X535120D01*
X536396Y83440D01*
X537477Y84163D01*
X542724Y89409D01*
X545063Y88440D01*
X548000Y88053D01*
X550937Y88440D01*
X553674Y89573D01*
X556024Y91376D01*
X557827Y93727D01*
X558960Y96463D01*
X559347Y99400D01*
X558960Y102337D01*
X557827Y105073D01*
X556024Y107424D01*
X553674Y109227D01*
X550937Y110360D01*
X548000Y110747D01*
X545063Y110360D01*
X542326Y109227D01*
X539976Y107424D01*
X538173Y105073D01*
X537040Y102337D01*
X536653Y99400D01*
X537040Y96463D01*
X538009Y94124D01*
X533739Y89854D01*
X531015D01*
X530607Y91057D01*
X531024Y91376D01*
X532827Y93727D01*
X533960Y96463D01*
X534347Y99400D01*
X533960Y102337D01*
X532827Y105073D01*
X531024Y107424D01*
X528674Y109227D01*
X525937Y110360D01*
X523000Y110747D01*
X520063Y110360D01*
X517724Y109391D01*
X504757Y122358D01*
X503676Y123080D01*
X502400Y123334D01*
X487881D01*
X485358Y125857D01*
X484276Y126580D01*
X483000Y126834D01*
X480516D01*
X480269Y128073D01*
X479389Y129389D01*
X478073Y130269D01*
X476520Y130578D01*
D02*
G37*
G36*
X421870D02*
X416830D01*
X415277Y130269D01*
X413961Y129389D01*
X413081Y128073D01*
X412772Y126520D01*
Y120753D01*
X412293Y120273D01*
X411570Y119192D01*
X411316Y117916D01*
Y112503D01*
X411045Y112322D01*
X409940Y110668D01*
X409552Y108718D01*
Y99218D01*
X409940Y97267D01*
X411045Y95613D01*
X411316Y95432D01*
Y93350D01*
X411570Y92074D01*
X412293Y90992D01*
X430142Y73142D01*
X431224Y72420D01*
X432500Y72166D01*
X451484D01*
X451731Y70927D01*
X452611Y69611D01*
X453927Y68731D01*
X455480Y68422D01*
X460520D01*
X462073Y68731D01*
X463389Y69611D01*
X464269Y70927D01*
X464578Y72480D01*
Y78520D01*
X464269Y80073D01*
X463389Y81389D01*
X462073Y82269D01*
X460520Y82578D01*
X455480D01*
X453927Y82269D01*
X452611Y81389D01*
X451731Y80073D01*
X451484Y78834D01*
X433881D01*
X418397Y94318D01*
X418255Y95613D01*
X419360Y97267D01*
X419748Y99218D01*
Y108718D01*
X419360Y110668D01*
X418255Y112322D01*
X417984Y112503D01*
Y116422D01*
X421870D01*
X423423Y116731D01*
X424739Y117611D01*
X425619Y118927D01*
X425928Y120480D01*
Y126520D01*
X425619Y128073D01*
X424739Y129389D01*
X423423Y130269D01*
X421870Y130578D01*
D02*
G37*
G36*
X548000Y85347D02*
X545063Y84960D01*
X542326Y83827D01*
X539976Y82024D01*
X538173Y79674D01*
X537040Y76937D01*
X536653Y74000D01*
X537040Y71063D01*
X538173Y68327D01*
X539976Y65976D01*
X542326Y64173D01*
X545063Y63040D01*
X548000Y62653D01*
X550937Y63040D01*
X553674Y64173D01*
X556024Y65976D01*
X557827Y68327D01*
X558960Y71063D01*
X559347Y74000D01*
X558960Y76937D01*
X557827Y79674D01*
X556024Y82024D01*
X553674Y83827D01*
X550937Y84960D01*
X548000Y85347D01*
D02*
G37*
G36*
X197270Y62438D02*
Y56270D01*
X203438D01*
X203346Y56968D01*
X202586Y58802D01*
X201378Y60378D01*
X199802Y61586D01*
X197968Y62346D01*
X197270Y62438D01*
D02*
G37*
G36*
X179730Y62629D02*
X178480D01*
X176716Y62278D01*
X175221Y61279D01*
X174222Y59784D01*
X173871Y58020D01*
Y56270D01*
X179730D01*
Y62629D01*
D02*
G37*
G36*
X203438Y53730D02*
X197270D01*
Y47562D01*
X197968Y47654D01*
X199802Y48414D01*
X201378Y49622D01*
X202586Y51198D01*
X203346Y53032D01*
X203438Y53730D01*
D02*
G37*
G36*
X183520Y62629D02*
X182270D01*
Y55000D01*
Y47372D01*
X183520D01*
X185284Y47722D01*
X186779Y48721D01*
X187778Y50216D01*
X187994Y51305D01*
X189315Y51436D01*
X189414Y51198D01*
X190622Y49622D01*
X192197Y48414D01*
X194032Y47654D01*
X194730Y47562D01*
Y55000D01*
Y62438D01*
X194032Y62346D01*
X192197Y61586D01*
X190622Y60378D01*
X189414Y58802D01*
X189315Y58564D01*
X187994Y58694D01*
X187778Y59784D01*
X186779Y61279D01*
X185284Y62278D01*
X183520Y62629D01*
D02*
G37*
G36*
X179730Y53730D02*
X173871D01*
Y51980D01*
X174222Y50216D01*
X175221Y48721D01*
X176716Y47722D01*
X178480Y47372D01*
X179730D01*
Y53730D01*
D02*
G37*
G36*
X785520Y72078D02*
X780480D01*
X778927Y71769D01*
X777611Y70889D01*
X776731Y69573D01*
X776422Y68020D01*
Y61980D01*
X776731Y60427D01*
X777611Y59111D01*
X778927Y58231D01*
X779666Y58084D01*
Y56381D01*
X776643Y53358D01*
X775920Y52276D01*
X775716Y51250D01*
X767950D01*
Y43334D01*
X757963D01*
X757768Y44314D01*
X756885Y45635D01*
X755564Y46518D01*
X754005Y46828D01*
X747995D01*
X746436Y46518D01*
X745115Y45635D01*
X744232Y44314D01*
X743922Y42755D01*
Y37245D01*
X744232Y35686D01*
X745115Y34365D01*
X746436Y33482D01*
X747995Y33172D01*
X754005D01*
X755564Y33482D01*
X756885Y34365D01*
X757768Y35686D01*
X757963Y36666D01*
X767950D01*
Y32134D01*
X766680Y31384D01*
X766270Y31438D01*
Y25270D01*
X772438D01*
X772346Y25968D01*
X771720Y27480D01*
X772298Y28750D01*
X790450D01*
Y51250D01*
X785624D01*
X785138Y52423D01*
X785358Y52642D01*
X786080Y53724D01*
X786334Y55000D01*
Y58084D01*
X787073Y58231D01*
X788389Y59111D01*
X789269Y60427D01*
X789578Y61980D01*
Y68020D01*
X789269Y69573D01*
X788389Y70889D01*
X787073Y71769D01*
X785520Y72078D01*
D02*
G37*
G36*
X573000Y59947D02*
X570063Y59560D01*
X567326Y58427D01*
X564976Y56624D01*
X563173Y54274D01*
X562040Y51537D01*
X561653Y48600D01*
X562040Y45663D01*
X563173Y42927D01*
X564976Y40576D01*
X567326Y38773D01*
X570063Y37640D01*
X573000Y37253D01*
X575937Y37640D01*
X578674Y38773D01*
X581024Y40576D01*
X582827Y42927D01*
X583879Y45466D01*
X594524D01*
X594731Y44427D01*
X595611Y43111D01*
X596927Y42231D01*
X598480Y41922D01*
X603520D01*
X605073Y42231D01*
X606389Y43111D01*
X607269Y44427D01*
X607578Y45980D01*
Y52020D01*
X607269Y53573D01*
X606389Y54889D01*
X605073Y55769D01*
X603520Y56078D01*
X598480D01*
X596927Y55769D01*
X595611Y54889D01*
X594731Y53573D01*
X594445Y52134D01*
X583713D01*
X582827Y54274D01*
X581024Y56624D01*
X578674Y58427D01*
X575937Y59560D01*
X573000Y59947D01*
D02*
G37*
G36*
X831270Y51725D02*
Y41270D01*
X841724D01*
X841487Y43078D01*
X840298Y45946D01*
X838409Y48409D01*
X835946Y50299D01*
X833078Y51487D01*
X831270Y51725D01*
D02*
G37*
G36*
X828730D02*
X826922Y51487D01*
X824054Y50299D01*
X821591Y48409D01*
X819702Y45946D01*
X818513Y43078D01*
X818276Y41270D01*
X828730D01*
Y51725D01*
D02*
G37*
G36*
X476000Y52060D02*
X474173Y51820D01*
X472470Y51115D01*
X471007Y49992D01*
X469885Y48530D01*
X469180Y46827D01*
X468940Y45000D01*
X469180Y43173D01*
X469885Y41470D01*
X471007Y40008D01*
X472470Y38886D01*
X474173Y38180D01*
X476000Y37940D01*
X477827Y38180D01*
X479530Y38886D01*
X480992Y40008D01*
X482114Y41470D01*
X482820Y43173D01*
X483060Y45000D01*
X482820Y46827D01*
X482114Y48530D01*
X480992Y49992D01*
X479530Y51115D01*
X477827Y51820D01*
X476000Y52060D01*
D02*
G37*
G36*
X735000Y72060D02*
X733173Y71820D01*
X731470Y71115D01*
X730008Y69992D01*
X728885Y68530D01*
X728180Y66827D01*
X727940Y65000D01*
X728180Y63173D01*
X728261Y62976D01*
X689619Y24334D01*
X587000D01*
X585724Y24080D01*
X584642Y23358D01*
X574619Y13334D01*
X555709D01*
X555278Y14604D01*
X556024Y15176D01*
X557827Y17527D01*
X558960Y20263D01*
X559347Y23200D01*
X558960Y26137D01*
X557827Y28874D01*
X556024Y31224D01*
X553674Y33027D01*
X550937Y34160D01*
X548000Y34547D01*
X545063Y34160D01*
X542326Y33027D01*
X539976Y31224D01*
X538173Y28874D01*
X537040Y26137D01*
X536653Y23200D01*
X537040Y20263D01*
X538173Y17527D01*
X539976Y15176D01*
X540722Y14604D01*
X540291Y13334D01*
X516111D01*
X511469Y17976D01*
X511550Y18173D01*
X511790Y20000D01*
X511550Y21827D01*
X510844Y23530D01*
X510180Y24396D01*
X510807Y25666D01*
X528400D01*
X529676Y25920D01*
X530757Y26642D01*
X542724Y38609D01*
X545063Y37640D01*
X548000Y37253D01*
X550937Y37640D01*
X553674Y38773D01*
X556024Y40576D01*
X557827Y42927D01*
X558960Y45663D01*
X559347Y48600D01*
X558960Y51537D01*
X557827Y54274D01*
X556024Y56624D01*
X553674Y58427D01*
X550937Y59560D01*
X548000Y59947D01*
X545063Y59560D01*
X542326Y58427D01*
X539976Y56624D01*
X538173Y54274D01*
X537040Y51537D01*
X536653Y48600D01*
X537040Y45663D01*
X538009Y43324D01*
X527019Y32334D01*
X482196D01*
X482114Y32530D01*
X480992Y33992D01*
X479530Y35115D01*
X477827Y35820D01*
X476000Y36060D01*
X474173Y35820D01*
X472470Y35115D01*
X471007Y33992D01*
X469885Y32530D01*
X469180Y30827D01*
X468940Y29000D01*
X469180Y27173D01*
X469885Y25470D01*
X471007Y24007D01*
X472470Y22885D01*
X474173Y22180D01*
X476000Y21940D01*
X477827Y22180D01*
X479530Y22885D01*
X480992Y24007D01*
X482114Y25470D01*
X482196Y25666D01*
X498653D01*
X499280Y24396D01*
X498615Y23530D01*
X497910Y21827D01*
X497670Y20000D01*
X497910Y18173D01*
X498615Y16470D01*
X499738Y15008D01*
X501200Y13886D01*
X502903Y13180D01*
X504730Y12940D01*
X506557Y13180D01*
X506754Y13261D01*
X512373Y7642D01*
X513454Y6920D01*
X514730Y6666D01*
X576000D01*
X577276Y6920D01*
X578358Y7642D01*
X588381Y17666D01*
X691000D01*
X692276Y17920D01*
X693357Y18642D01*
X732977Y58261D01*
X733173Y58180D01*
X735000Y57940D01*
X736827Y58180D01*
X738530Y58885D01*
X739992Y60008D01*
X741115Y61470D01*
X741820Y63173D01*
X742060Y65000D01*
X741820Y66827D01*
X741115Y68530D01*
X739992Y69992D01*
X738530Y71115D01*
X736827Y71820D01*
X735000Y72060D01*
D02*
G37*
G36*
X763730Y31438D02*
X763032Y31346D01*
X761198Y30586D01*
X759622Y29378D01*
X759369Y29048D01*
X757853Y29158D01*
X757274Y30025D01*
X755775Y31027D01*
X754005Y31379D01*
X752270D01*
Y24000D01*
Y16621D01*
X754005D01*
X755775Y16973D01*
X757274Y17975D01*
X757853Y18842D01*
X759369Y18952D01*
X759622Y18622D01*
X761198Y17414D01*
X763032Y16654D01*
X763730Y16562D01*
Y24000D01*
Y31438D01*
D02*
G37*
G36*
X880800Y51347D02*
X877863Y50960D01*
X875126Y49827D01*
X872776Y48024D01*
X870973Y45673D01*
X869840Y42937D01*
X869453Y40000D01*
X869840Y37063D01*
X870973Y34327D01*
X872776Y31976D01*
X875126Y30173D01*
X877863Y29040D01*
X880800Y28653D01*
X883737Y29040D01*
X886473Y30173D01*
X888824Y31976D01*
X890627Y34327D01*
X891760Y37063D01*
X892147Y40000D01*
X891760Y42937D01*
X890627Y45673D01*
X888824Y48024D01*
X886473Y49827D01*
X883737Y50960D01*
X880800Y51347D01*
D02*
G37*
G36*
X855400D02*
X852463Y50960D01*
X849726Y49827D01*
X847376Y48024D01*
X845573Y45673D01*
X844440Y42937D01*
X844053Y40000D01*
X844440Y37063D01*
X845573Y34327D01*
X847376Y31976D01*
X849726Y30173D01*
X852463Y29040D01*
X855400Y28653D01*
X858337Y29040D01*
X861074Y30173D01*
X863424Y31976D01*
X865227Y34327D01*
X866360Y37063D01*
X866747Y40000D01*
X866360Y42937D01*
X865227Y45673D01*
X863424Y48024D01*
X861074Y49827D01*
X858337Y50960D01*
X855400Y51347D01*
D02*
G37*
G36*
X801520Y72078D02*
X796480D01*
X794927Y71769D01*
X793611Y70889D01*
X792731Y69573D01*
X792422Y68020D01*
Y61980D01*
X792731Y60427D01*
X793611Y59111D01*
X794927Y58231D01*
X796480Y57922D01*
X800479D01*
X801666Y56735D01*
Y50961D01*
X801663Y50960D01*
X798926Y49827D01*
X796576Y48024D01*
X794773Y45673D01*
X793640Y42937D01*
X793253Y40000D01*
X793640Y37063D01*
X794773Y34327D01*
X796576Y31976D01*
X798926Y30173D01*
X801663Y29040D01*
X804600Y28653D01*
X807537Y29040D01*
X810274Y30173D01*
X812624Y31976D01*
X814427Y34327D01*
X815560Y37063D01*
X815947Y40000D01*
X815560Y42937D01*
X814427Y45673D01*
X812624Y48024D01*
X810274Y49827D01*
X808334Y50630D01*
Y58116D01*
X808080Y59392D01*
X807357Y60473D01*
X805578Y62253D01*
Y68020D01*
X805269Y69573D01*
X804389Y70889D01*
X803073Y71769D01*
X801520Y72078D01*
D02*
G37*
G36*
X841724Y38730D02*
X831270D01*
Y28275D01*
X833078Y28514D01*
X835946Y29701D01*
X838409Y31591D01*
X840298Y34054D01*
X841487Y36922D01*
X841724Y38730D01*
D02*
G37*
G36*
X828730D02*
X818276D01*
X818513Y36922D01*
X819702Y34054D01*
X821591Y31591D01*
X824054Y29701D01*
X826922Y28514D01*
X828730Y28275D01*
Y38730D01*
D02*
G37*
G36*
X749730Y31379D02*
X747995D01*
X746226Y31027D01*
X744725Y30025D01*
X743723Y28524D01*
X743371Y26755D01*
Y25270D01*
X749730D01*
Y31379D01*
D02*
G37*
G36*
Y22730D02*
X743371D01*
Y21245D01*
X743723Y19476D01*
X744725Y17975D01*
X746226Y16973D01*
X747995Y16621D01*
X749730D01*
Y22730D01*
D02*
G37*
G36*
X772438D02*
X766270D01*
Y16562D01*
X766968Y16654D01*
X768802Y17414D01*
X770378Y18622D01*
X771586Y20198D01*
X772346Y22032D01*
X772438Y22730D01*
D02*
G37*
G36*
X950000Y87114D02*
X944194Y86657D01*
X938531Y85298D01*
X933150Y83069D01*
X928185Y80026D01*
X923756Y76244D01*
X919974Y71815D01*
X916931Y66850D01*
X914702Y61469D01*
X913343Y55806D01*
X912886Y50000D01*
X913343Y44194D01*
X914702Y38531D01*
X916931Y33150D01*
X919974Y28185D01*
X923756Y23756D01*
X928185Y19974D01*
X933150Y16931D01*
X938531Y14702D01*
X944194Y13342D01*
X950000Y12886D01*
X955806Y13342D01*
X961469Y14702D01*
X966850Y16931D01*
X971815Y19974D01*
X976244Y23756D01*
X980026Y28185D01*
X983069Y33150D01*
X985298Y38531D01*
X986657Y44194D01*
X987114Y50000D01*
X986657Y55806D01*
X985298Y61469D01*
X983069Y66850D01*
X980026Y71815D01*
X976244Y76244D01*
X971815Y80026D01*
X966850Y83069D01*
X961469Y85298D01*
X955806Y86657D01*
X950000Y87114D01*
D02*
G37*
G36*
X50000D02*
X44194Y86657D01*
X38531Y85298D01*
X33150Y83069D01*
X28185Y80026D01*
X23756Y76244D01*
X19974Y71815D01*
X16931Y66850D01*
X14702Y61469D01*
X13342Y55806D01*
X12886Y50000D01*
X13342Y44194D01*
X14702Y38531D01*
X16931Y33150D01*
X19974Y28185D01*
X23756Y23756D01*
X28185Y19974D01*
X33150Y16931D01*
X38531Y14702D01*
X44194Y13342D01*
X50000Y12886D01*
X55806Y13342D01*
X61469Y14702D01*
X66850Y16931D01*
X71815Y19974D01*
X76244Y23756D01*
X80026Y28185D01*
X83069Y33150D01*
X85298Y38531D01*
X86657Y44194D01*
X87114Y50000D01*
X86657Y55806D01*
X85298Y61469D01*
X83069Y66850D01*
X80026Y71815D01*
X76244Y76244D01*
X71815Y80026D01*
X66850Y83069D01*
X61469Y85298D01*
X55806Y86657D01*
X50000Y87114D01*
D02*
G37*
%LPD*%
G36*
X369396Y449889D02*
Y432250D01*
X368126Y431819D01*
X367993Y431992D01*
X366530Y433115D01*
X364827Y433820D01*
X363000Y434060D01*
X361173Y433820D01*
X359470Y433115D01*
X358008Y431992D01*
X356885Y430530D01*
X356742Y430184D01*
X351513D01*
X351432Y430305D01*
X349778Y431410D01*
X347827Y431798D01*
X338327D01*
X336376Y431410D01*
X334723Y430305D01*
X333617Y428651D01*
X333229Y426700D01*
X333617Y424749D01*
X334723Y423095D01*
X336376Y421990D01*
X338327Y421602D01*
X347827D01*
X349778Y421990D01*
X351432Y423095D01*
X351713Y423516D01*
X356866D01*
X356885Y423470D01*
X358008Y422008D01*
X359470Y420886D01*
X361173Y420180D01*
X363000Y419940D01*
X364827Y420180D01*
X366530Y420886D01*
X367993Y422008D01*
X368126Y422182D01*
X369396Y421750D01*
Y419270D01*
X369650Y417994D01*
X370373Y416912D01*
X374203Y413082D01*
X374116Y412614D01*
X373663Y412363D01*
X372745Y412182D01*
X371530Y413115D01*
X369827Y413820D01*
X368000Y414060D01*
X366173Y413820D01*
X365976Y413739D01*
X363358Y416357D01*
X362276Y417080D01*
X361000Y417334D01*
X351613D01*
X351432Y417605D01*
X349778Y418710D01*
X347827Y419098D01*
X338327D01*
X336376Y418710D01*
X334723Y417605D01*
X334542Y417334D01*
X316655D01*
Y422020D01*
X316346Y423573D01*
X315467Y424889D01*
X314150Y425769D01*
X312597Y426078D01*
X307557D01*
X306004Y425769D01*
X304688Y424889D01*
X303808Y423573D01*
X303499Y422020D01*
Y415980D01*
X303808Y414427D01*
X304688Y413111D01*
X306004Y412231D01*
X306743Y412084D01*
Y409916D01*
X306004Y409769D01*
X304688Y408889D01*
X303808Y407573D01*
X303499Y406020D01*
Y399980D01*
X303808Y398427D01*
X304688Y397110D01*
X306004Y396231D01*
X307557Y395922D01*
X312597D01*
X314150Y396231D01*
X315467Y397110D01*
X316346Y398427D01*
X316655Y399980D01*
Y406020D01*
X316346Y407573D01*
X315467Y408889D01*
X315049Y409169D01*
X315041Y409418D01*
X316245Y410666D01*
X334542D01*
X334723Y410395D01*
X336376Y409290D01*
X338327Y408902D01*
X347827D01*
X349778Y409290D01*
X351432Y410395D01*
X351613Y410666D01*
X359619D01*
X361261Y409024D01*
X361180Y408827D01*
X360940Y407000D01*
X361180Y405173D01*
X361885Y403470D01*
X363008Y402008D01*
X364470Y400886D01*
X366173Y400180D01*
X368000Y399940D01*
X369827Y400180D01*
X371530Y400886D01*
X372992Y402008D01*
X373396Y402533D01*
X374666Y402102D01*
Y373500D01*
X374920Y372224D01*
X375643Y371143D01*
X385981Y360804D01*
X385455Y359534D01*
X383181D01*
X367334Y375381D01*
Y394000D01*
X367080Y395276D01*
X366357Y396357D01*
X359058Y403657D01*
X357976Y404380D01*
X356700Y404634D01*
X351613D01*
X351432Y404905D01*
X349778Y406010D01*
X347827Y406398D01*
X338327D01*
X336376Y406010D01*
X334723Y404905D01*
X333617Y403251D01*
X333229Y401300D01*
X333617Y399349D01*
X334723Y397695D01*
X336376Y396590D01*
X338327Y396202D01*
X347827D01*
X349778Y396590D01*
X351432Y397695D01*
X351613Y397966D01*
X355319D01*
X360666Y392619D01*
Y374000D01*
X360920Y372724D01*
X361642Y371642D01*
X379442Y353843D01*
X380524Y353120D01*
X381800Y352866D01*
X537204D01*
X538173Y350527D01*
X539976Y348176D01*
X541270Y347184D01*
X540839Y345914D01*
X304801D01*
X301357Y349357D01*
X300276Y350080D01*
X299000Y350334D01*
X249000D01*
X247724Y350080D01*
X246642Y349357D01*
X237209Y339924D01*
X236486Y338842D01*
X236232Y337566D01*
Y335613D01*
X235836Y335349D01*
X235000Y335246D01*
X234164Y335349D01*
X232853Y336224D01*
X231000Y336593D01*
X229147Y336224D01*
X227836Y335349D01*
X227000Y335246D01*
X226164Y335349D01*
X224853Y336224D01*
X223000Y336593D01*
X221147Y336224D01*
X219576Y335174D01*
X218464Y335797D01*
X218220Y335960D01*
X218345Y337224D01*
X218803Y337414D01*
X220378Y338622D01*
X221586Y340197D01*
X222346Y342032D01*
X222438Y342730D01*
X215000D01*
Y344000D01*
X213730D01*
Y351438D01*
X213032Y351346D01*
X211197Y350586D01*
X209622Y349378D01*
X208414Y347803D01*
X207654Y345968D01*
X207525Y344986D01*
X206184Y344531D01*
X202715Y348000D01*
X230381Y375666D01*
X252000D01*
X253276Y375920D01*
X254357Y376642D01*
X265357Y387643D01*
X265396Y387700D01*
X266666Y387315D01*
Y384000D01*
X266920Y382724D01*
X267642Y381642D01*
X280643Y368642D01*
X281724Y367920D01*
X283000Y367666D01*
X286161D01*
X286308Y366927D01*
X287188Y365611D01*
X288504Y364731D01*
X289743Y364484D01*
Y359923D01*
X289997Y358647D01*
X290720Y357565D01*
X293643Y354642D01*
X294724Y353920D01*
X296000Y353666D01*
X316804D01*
X316886Y353470D01*
X318008Y352008D01*
X319470Y350886D01*
X321173Y350180D01*
X323000Y349940D01*
X324827Y350180D01*
X326530Y350886D01*
X327992Y352008D01*
X329114Y353470D01*
X329820Y355173D01*
X330060Y357000D01*
X329820Y358827D01*
X329114Y360530D01*
X327992Y361992D01*
X326530Y363115D01*
X324827Y363820D01*
X323000Y364060D01*
X321173Y363820D01*
X319470Y363115D01*
X318008Y361992D01*
X316886Y360530D01*
X316804Y360334D01*
X297381D01*
X296411Y361304D01*
Y364484D01*
X297650Y364731D01*
X298967Y365611D01*
X299846Y366927D01*
X300155Y368480D01*
Y373520D01*
X299846Y375073D01*
X298967Y376389D01*
X297650Y377269D01*
X296097Y377578D01*
X290057D01*
X288504Y377269D01*
X287188Y376389D01*
X286308Y375073D01*
X286161Y374334D01*
X284381D01*
X273334Y385381D01*
Y398102D01*
X274604Y398533D01*
X275008Y398008D01*
X276470Y396885D01*
X278173Y396180D01*
X280000Y395940D01*
X281827Y396180D01*
X283530Y396885D01*
X284992Y398008D01*
X286115Y399470D01*
X286196Y399666D01*
X287562D01*
X287808Y398427D01*
X288688Y397110D01*
X290004Y396231D01*
X291557Y395922D01*
X296597D01*
X298150Y396231D01*
X299467Y397110D01*
X300346Y398427D01*
X300655Y399980D01*
Y406020D01*
X300346Y407573D01*
X299467Y408889D01*
X298150Y409769D01*
X296597Y410078D01*
X291557D01*
X290004Y409769D01*
X288688Y408889D01*
X287808Y407573D01*
X287562Y406334D01*
X286196D01*
X286115Y406530D01*
X284992Y407993D01*
X283530Y409114D01*
X281827Y409820D01*
X280000Y410060D01*
X278173Y409820D01*
X276470Y409114D01*
X275008Y407993D01*
X274604Y407467D01*
X273334Y407898D01*
Y414102D01*
X274604Y414533D01*
X275008Y414008D01*
X276470Y412886D01*
X278173Y412180D01*
X280000Y411940D01*
X281827Y412180D01*
X283530Y412886D01*
X284992Y414008D01*
X286115Y415470D01*
X286196Y415666D01*
X287562D01*
X287808Y414427D01*
X288688Y413111D01*
X290004Y412231D01*
X291557Y411922D01*
X296597D01*
X298150Y412231D01*
X299467Y413111D01*
X300346Y414427D01*
X300655Y415980D01*
Y422020D01*
X300346Y423573D01*
X299467Y424889D01*
X298150Y425769D01*
X296597Y426078D01*
X291557D01*
X290004Y425769D01*
X288688Y424889D01*
X287808Y423573D01*
X287562Y422334D01*
X286196D01*
X286115Y422530D01*
X284992Y423992D01*
X283530Y425115D01*
X281827Y425820D01*
X280000Y426060D01*
X278173Y425820D01*
X276470Y425115D01*
X275008Y423992D01*
X274604Y423467D01*
X273334Y423898D01*
Y430933D01*
X286307D01*
X286308Y430927D01*
X287188Y429610D01*
X288504Y428731D01*
X290057Y428422D01*
X296097D01*
X297650Y428731D01*
X298967Y429610D01*
X299846Y430927D01*
X300155Y432480D01*
Y437520D01*
X300058Y438008D01*
X301229Y438634D01*
X302999Y436863D01*
Y432480D01*
X303308Y430927D01*
X304188Y429610D01*
X305504Y428731D01*
X307057Y428422D01*
X313097D01*
X314650Y428731D01*
X315967Y429610D01*
X316846Y430927D01*
X316993Y431666D01*
X321000D01*
X322276Y431920D01*
X323358Y432642D01*
X326781Y436066D01*
X334542D01*
X334723Y435795D01*
X336376Y434690D01*
X338327Y434302D01*
X347827D01*
X349778Y434690D01*
X351432Y435795D01*
X352537Y437449D01*
X352925Y439400D01*
X352537Y441351D01*
X351432Y443005D01*
X349778Y444110D01*
X347827Y444498D01*
X338327D01*
X336376Y444110D01*
X334723Y443005D01*
X334542Y442734D01*
X325400D01*
X324124Y442480D01*
X323042Y441758D01*
X319619Y438334D01*
X316993D01*
X316846Y439073D01*
X315967Y440389D01*
X314650Y441269D01*
X313097Y441578D01*
X307714D01*
X305944Y443349D01*
X306569Y444519D01*
X307057Y444422D01*
X313097D01*
X314650Y444731D01*
X315967Y445611D01*
X316846Y446927D01*
X317103Y448216D01*
X335140D01*
X336376Y447390D01*
X338327Y447002D01*
X347827D01*
X349778Y447390D01*
X351432Y448495D01*
X352537Y450149D01*
X352925Y452100D01*
X352537Y454051D01*
X351432Y455705D01*
X349778Y456810D01*
X347827Y457198D01*
X338327D01*
X336376Y456810D01*
X334723Y455705D01*
X334174Y454884D01*
X316884D01*
X316846Y455073D01*
X315967Y456389D01*
X314650Y457269D01*
X313097Y457578D01*
X307057D01*
X305504Y457269D01*
X304188Y456389D01*
X303308Y455073D01*
X302999Y453520D01*
Y448480D01*
X303096Y447992D01*
X301926Y447366D01*
X300155Y449137D01*
Y453520D01*
X299846Y455073D01*
X298967Y456389D01*
X297650Y457269D01*
X296097Y457578D01*
X290057D01*
X288504Y457269D01*
X287188Y456389D01*
X286308Y455073D01*
X285999Y453520D01*
Y448480D01*
X286308Y446927D01*
X287188Y445611D01*
X288504Y444731D01*
X290057Y444422D01*
X295440D01*
X297211Y442651D01*
X296585Y441481D01*
X296097Y441578D01*
X290057D01*
X288504Y441269D01*
X287188Y440389D01*
X286308Y439073D01*
X286015Y437601D01*
X273334D01*
Y451131D01*
X284869Y462666D01*
X356619D01*
X369396Y449889D01*
D02*
G37*
G36*
X673290Y442873D02*
X674372Y442150D01*
X675648Y441896D01*
X740781D01*
X741460Y440626D01*
X741223Y440271D01*
X740871Y438500D01*
Y429270D01*
X753500D01*
X766129D01*
Y438500D01*
X765777Y440271D01*
X765540Y440626D01*
X766219Y441896D01*
X779218D01*
X779323Y441917D01*
X779729Y440777D01*
X778227Y439773D01*
X777223Y438271D01*
X776871Y436500D01*
Y428270D01*
X782000D01*
Y427000D01*
X783270D01*
Y413024D01*
X784271Y413223D01*
X785773Y414227D01*
X787269Y414180D01*
X787939Y413732D01*
X789500Y413422D01*
X790500D01*
X792061Y413732D01*
X793180Y414480D01*
X793513Y414531D01*
X794666Y413721D01*
Y406000D01*
X794920Y404724D01*
X795642Y403643D01*
X798666Y400619D01*
Y391000D01*
X798920Y389724D01*
X799642Y388643D01*
X807594Y380691D01*
X807384Y379355D01*
X806945Y379267D01*
X805619Y378381D01*
X805487Y378184D01*
X804100D01*
X802824Y377930D01*
X801742Y377207D01*
X799642Y375107D01*
X798920Y374026D01*
X798666Y372750D01*
Y352000D01*
X798920Y350724D01*
X799642Y349642D01*
X800013Y349272D01*
X799495Y347994D01*
X798173Y347820D01*
X796470Y347114D01*
X796100Y346831D01*
X795791Y346830D01*
X794624Y347299D01*
X794115Y348530D01*
X793479Y349358D01*
X793717Y350450D01*
X793922Y350811D01*
X794982Y351519D01*
X795788Y352726D01*
X796071Y354150D01*
Y360850D01*
X795788Y362274D01*
X794982Y363481D01*
X793774Y364288D01*
X793451Y364353D01*
Y365648D01*
X793774Y365712D01*
X794982Y366519D01*
X795788Y367726D01*
X796071Y369150D01*
Y375850D01*
X795788Y377274D01*
X794982Y378481D01*
X793774Y379288D01*
X792350Y379571D01*
X790334D01*
Y388037D01*
X791314Y388232D01*
X792635Y389115D01*
X793518Y390436D01*
X793828Y391995D01*
Y398005D01*
X793518Y399564D01*
X792635Y400885D01*
X791314Y401768D01*
X789755Y402078D01*
X784245D01*
X782686Y401768D01*
X781365Y400885D01*
X780482Y399564D01*
X780172Y398005D01*
Y391995D01*
X780482Y390436D01*
X781365Y389115D01*
X782686Y388232D01*
X783666Y388037D01*
Y379376D01*
X783226Y379288D01*
X782019Y378481D01*
X781212Y377274D01*
X780928Y375850D01*
Y370144D01*
X778169Y367384D01*
X776863Y367742D01*
X776806Y367818D01*
X777072Y369150D01*
Y375850D01*
X776788Y377274D01*
X775982Y378481D01*
X774774Y379288D01*
X773350Y379571D01*
X765650D01*
X764226Y379288D01*
X763018Y378481D01*
X762212Y377274D01*
X761928Y375850D01*
Y370946D01*
X760755Y370460D01*
X758357Y372858D01*
X757276Y373580D01*
X756000Y373834D01*
X754523D01*
X753078Y375279D01*
Y379755D01*
X752768Y381314D01*
X751885Y382635D01*
X750564Y383518D01*
X749005Y383828D01*
X742995D01*
X741436Y383518D01*
X740115Y382635D01*
X739232Y381314D01*
X738922Y379755D01*
Y374245D01*
X739232Y372686D01*
X740115Y371365D01*
X741436Y370482D01*
X742995Y370172D01*
X748756D01*
X750785Y368142D01*
X751867Y367420D01*
X753142Y367166D01*
X754619D01*
X761928Y359856D01*
Y354150D01*
X762185Y352862D01*
X762150Y352626D01*
X761479Y351536D01*
X760032Y351346D01*
X758197Y350586D01*
X756622Y349378D01*
X755414Y347803D01*
X754654Y345968D01*
X754562Y345270D01*
X762000D01*
Y342730D01*
X754017D01*
X753326Y342389D01*
X751786Y343929D01*
Y356389D01*
X751532Y357665D01*
X750809Y358747D01*
X723357Y386199D01*
X722276Y386921D01*
X721000Y387175D01*
X712540D01*
X703738Y395976D01*
X703820Y396173D01*
X704060Y398000D01*
X703820Y399827D01*
X703114Y401530D01*
X701992Y402992D01*
X700530Y404114D01*
X698827Y404820D01*
X697000Y405060D01*
X695173Y404820D01*
X693470Y404114D01*
X692008Y402992D01*
X690885Y401530D01*
X690180Y399827D01*
X690008Y398520D01*
X688917Y397891D01*
X688689Y397866D01*
X688334Y398099D01*
Y415000D01*
X688080Y416276D01*
X687357Y417357D01*
X652357Y452357D01*
X651276Y453080D01*
X650000Y453334D01*
X565600D01*
X564324Y453080D01*
X563242Y452357D01*
X553276Y442391D01*
X550937Y443360D01*
X548000Y443747D01*
X545063Y443360D01*
X542724Y442391D01*
X534757Y450358D01*
X533676Y451080D01*
X532400Y451334D01*
X514000D01*
X512724Y451080D01*
X511642Y450358D01*
X470643Y409357D01*
X469920Y408276D01*
X469666Y407000D01*
Y394381D01*
X467024Y391739D01*
X466827Y391820D01*
X465000Y392060D01*
X463173Y391820D01*
X461470Y391115D01*
X460008Y389992D01*
X458885Y388530D01*
X458180Y386827D01*
X457940Y385000D01*
X458180Y383173D01*
X458885Y381470D01*
X460008Y380008D01*
X461470Y378885D01*
X463173Y378180D01*
X465000Y377940D01*
X466827Y378180D01*
X468530Y378885D01*
X469992Y380008D01*
X471115Y381470D01*
X471820Y383173D01*
X472060Y385000D01*
X471820Y386827D01*
X471739Y387024D01*
X475358Y390642D01*
X476080Y391724D01*
X476334Y393000D01*
Y405619D01*
X515381Y444666D01*
X520250D01*
X520333Y443396D01*
X520063Y443360D01*
X517326Y442227D01*
X514976Y440424D01*
X513173Y438074D01*
X512039Y435337D01*
X511653Y432400D01*
X512039Y429463D01*
X513173Y426726D01*
X514976Y424376D01*
X517326Y422573D01*
X520063Y421440D01*
X523000Y421053D01*
X525937Y421440D01*
X528674Y422573D01*
X531024Y424376D01*
X532827Y426726D01*
X533960Y429463D01*
X534347Y432400D01*
X533960Y435337D01*
X532827Y438074D01*
X531024Y440424D01*
X528674Y442227D01*
X525937Y443360D01*
X525667Y443396D01*
X525750Y444666D01*
X531019D01*
X538009Y437676D01*
X537039Y435337D01*
X536653Y432400D01*
X537039Y429463D01*
X538173Y426726D01*
X539976Y424376D01*
X542326Y422573D01*
X545063Y421440D01*
X548000Y421053D01*
X550937Y421440D01*
X553674Y422573D01*
X556024Y424376D01*
X557827Y426726D01*
X558960Y429463D01*
X559347Y432400D01*
X558960Y435337D01*
X557991Y437676D01*
X566981Y446666D01*
X648619D01*
X681666Y413619D01*
Y396000D01*
X681920Y394724D01*
X682643Y393643D01*
X692778Y383507D01*
X692291Y382334D01*
X688696D01*
X687420Y382080D01*
X686338Y381357D01*
X669066Y364086D01*
X667864Y364494D01*
X667820Y364827D01*
X667114Y366530D01*
X665992Y367993D01*
X664530Y369114D01*
X664334Y369196D01*
Y425000D01*
X664080Y426276D01*
X663357Y427357D01*
X657357Y433358D01*
X656276Y434080D01*
X655000Y434334D01*
X654516D01*
X654269Y435573D01*
X653389Y436889D01*
X652073Y437769D01*
X650520Y438078D01*
X645480D01*
X643927Y437769D01*
X642611Y436889D01*
X641731Y435573D01*
X641422Y434020D01*
Y427980D01*
X641519Y427492D01*
X640349Y426866D01*
X638578Y428637D01*
Y434020D01*
X638269Y435573D01*
X637389Y436889D01*
X636073Y437769D01*
X634520Y438078D01*
X629480D01*
X627927Y437769D01*
X626611Y436889D01*
X625731Y435573D01*
X625422Y434020D01*
Y427980D01*
X625731Y426427D01*
X626611Y425111D01*
X627927Y424231D01*
X629480Y423922D01*
X633352D01*
X633788Y423348D01*
X633158Y422078D01*
X629480D01*
X627927Y421769D01*
X626611Y420889D01*
X625731Y419573D01*
X625422Y418020D01*
Y412637D01*
X624500Y411715D01*
X623578Y412637D01*
Y418020D01*
X623269Y419573D01*
X622389Y420889D01*
X621073Y421769D01*
X620334Y421916D01*
Y424084D01*
X621073Y424231D01*
X622389Y425111D01*
X623269Y426427D01*
X623578Y427980D01*
Y434020D01*
X623269Y435573D01*
X622389Y436889D01*
X621073Y437769D01*
X619520Y438078D01*
X614480D01*
X612927Y437769D01*
X611611Y436889D01*
X610731Y435573D01*
X610422Y434020D01*
Y427980D01*
X610731Y426427D01*
X611611Y425111D01*
X612927Y424231D01*
X613666Y424084D01*
Y421916D01*
X612927Y421769D01*
X611611Y420889D01*
X610731Y419573D01*
X610422Y418020D01*
Y411980D01*
X610731Y410427D01*
X611611Y409111D01*
X612927Y408231D01*
X614480Y407922D01*
X617868D01*
X618455Y406652D01*
X617967Y406078D01*
X614480D01*
X612927Y405769D01*
X611611Y404889D01*
X610731Y403573D01*
X610422Y402020D01*
Y395980D01*
X610731Y394427D01*
X611611Y393111D01*
X612927Y392231D01*
X614480Y391922D01*
X619520D01*
X621073Y392231D01*
X622389Y393111D01*
X623269Y394427D01*
X623578Y395980D01*
Y401363D01*
X624500Y402285D01*
X625422Y401363D01*
Y395980D01*
X625731Y394427D01*
X626611Y393111D01*
X627927Y392231D01*
X629480Y391922D01*
X633158D01*
X633788Y390652D01*
X633352Y390078D01*
X629480D01*
X627927Y389769D01*
X626611Y388889D01*
X625731Y387573D01*
X625485Y386334D01*
X623516D01*
X623269Y387573D01*
X622389Y388889D01*
X621073Y389769D01*
X619520Y390078D01*
X614480D01*
X612927Y389769D01*
X611611Y388889D01*
X610731Y387573D01*
X610422Y386020D01*
Y379980D01*
X610731Y378427D01*
X611611Y377111D01*
X612927Y376231D01*
X614480Y375922D01*
X619520D01*
X620417Y375033D01*
X620422Y374950D01*
X620346Y374020D01*
X619008Y372992D01*
X617886Y371530D01*
X617180Y369827D01*
X616940Y368000D01*
X617180Y366173D01*
X617886Y364470D01*
X619008Y363008D01*
X620470Y361885D01*
X622173Y361180D01*
X624000Y360940D01*
X625827Y361180D01*
X627530Y361885D01*
X628992Y363008D01*
X630115Y364470D01*
X630820Y366173D01*
X631060Y368000D01*
X630820Y369827D01*
X630115Y371530D01*
X628992Y372992D01*
X627588Y374070D01*
X627543Y374766D01*
X627555Y375369D01*
X628604Y376096D01*
X629480Y375922D01*
X634520D01*
X636073Y376231D01*
X637389Y377111D01*
X638269Y378427D01*
X638578Y379980D01*
Y385363D01*
X640349Y387134D01*
X641519Y386508D01*
X641422Y386020D01*
Y379980D01*
X641731Y378427D01*
X642611Y377111D01*
X643183Y376728D01*
X643241Y375171D01*
X643008Y374992D01*
X641886Y373530D01*
X641180Y371827D01*
X640940Y370000D01*
X641180Y368173D01*
X641886Y366470D01*
X643008Y365008D01*
X644470Y363885D01*
X646173Y363180D01*
X648000Y362940D01*
X649827Y363180D01*
X651530Y363885D01*
X652915Y364948D01*
X653221Y364884D01*
X654123Y364395D01*
X653940Y363000D01*
X654180Y361173D01*
X654885Y359470D01*
X655090Y359203D01*
X654529Y358064D01*
X582308D01*
X582114Y358530D01*
X580992Y359992D01*
X579530Y361115D01*
X577827Y361820D01*
X576000Y362060D01*
X574173Y361820D01*
X572470Y361115D01*
X571007Y359992D01*
X569885Y358530D01*
X569180Y356827D01*
X568940Y355000D01*
X569180Y353173D01*
X569885Y351470D01*
X571007Y350008D01*
X572470Y348885D01*
X574173Y348180D01*
X576000Y347940D01*
X577827Y348180D01*
X579530Y348885D01*
X580992Y350008D01*
X582058Y351396D01*
X664426D01*
X665701Y351650D01*
X665770Y351696D01*
X667132Y351078D01*
X667180Y350717D01*
X667886Y349014D01*
X669008Y347552D01*
X669486Y347184D01*
X669055Y345914D01*
X555161D01*
X554730Y347184D01*
X556024Y348176D01*
X557827Y350527D01*
X558960Y353263D01*
X559347Y356200D01*
X558960Y359137D01*
X557827Y361874D01*
X556024Y364224D01*
X553674Y366027D01*
X550937Y367160D01*
X548000Y367547D01*
X545063Y367160D01*
X542326Y366027D01*
X539976Y364224D01*
X538173Y361874D01*
X537204Y359534D01*
X477230D01*
X476705Y360599D01*
X477400Y361666D01*
X531400D01*
X532676Y361920D01*
X533758Y362643D01*
X542724Y371609D01*
X545063Y370640D01*
X548000Y370253D01*
X550937Y370640D01*
X553674Y371773D01*
X556024Y373576D01*
X557827Y375927D01*
X558960Y378663D01*
X559347Y381600D01*
X558960Y384537D01*
X557827Y387273D01*
X556024Y389624D01*
X553674Y391427D01*
X550937Y392560D01*
X548000Y392947D01*
X545063Y392560D01*
X542326Y391427D01*
X539976Y389624D01*
X538173Y387273D01*
X537039Y384537D01*
X536653Y381600D01*
X537039Y378663D01*
X538009Y376324D01*
X530019Y368334D01*
X477196D01*
X477114Y368530D01*
X475992Y369992D01*
X474530Y371115D01*
X472827Y371820D01*
X471000Y372060D01*
X469173Y371820D01*
X467470Y371115D01*
X466008Y369992D01*
X464885Y368530D01*
X464180Y366827D01*
X463940Y365000D01*
X464180Y363173D01*
X464885Y361470D01*
X465396Y360804D01*
X464770Y359534D01*
X452045D01*
X451519Y360804D01*
X457358Y366642D01*
X458080Y367724D01*
X458334Y369000D01*
Y378577D01*
X458080Y379853D01*
X457357Y380935D01*
X449155Y389137D01*
Y393520D01*
X448846Y395073D01*
X447967Y396389D01*
X447508Y396696D01*
X447893Y397966D01*
X453300D01*
X454576Y398220D01*
X455658Y398942D01*
X511181Y454466D01*
X537204D01*
X538173Y452127D01*
X539976Y449776D01*
X542326Y447973D01*
X545063Y446840D01*
X548000Y446453D01*
X550937Y446840D01*
X553674Y447973D01*
X556024Y449776D01*
X557827Y452127D01*
X558960Y454863D01*
X559347Y457800D01*
X558960Y460737D01*
X557827Y463474D01*
X556024Y465824D01*
X555278Y466396D01*
X555709Y467666D01*
X648497D01*
X673290Y442873D01*
D02*
G37*
G36*
X540722Y466396D02*
X539976Y465824D01*
X538173Y463474D01*
X537204Y461134D01*
X509800D01*
X508524Y460880D01*
X507443Y460158D01*
X459674Y412389D01*
X458982Y412730D01*
X451000D01*
Y414000D01*
X449730D01*
Y421438D01*
X449032Y421346D01*
X447197Y420586D01*
X446524Y420069D01*
X444856Y420279D01*
X443361Y421278D01*
X441597Y421628D01*
X440347D01*
Y414000D01*
Y406371D01*
X441597D01*
X443361Y406722D01*
X444856Y407721D01*
X446524Y407931D01*
X447197Y407414D01*
X449032Y406654D01*
X451000Y406395D01*
X451410Y406449D01*
X452099Y405259D01*
X451621Y404634D01*
X405613D01*
X405432Y404905D01*
X403778Y406010D01*
X401827Y406398D01*
X392327D01*
X390376Y406010D01*
X388722Y404905D01*
X387617Y403251D01*
X387229Y401300D01*
X387617Y399349D01*
X388722Y397695D01*
X390376Y396590D01*
X392327Y396202D01*
X401827D01*
X403778Y396590D01*
X405432Y397695D01*
X405613Y397966D01*
X413261D01*
X413647Y396696D01*
X413188Y396389D01*
X412308Y395073D01*
X411999Y393520D01*
Y392596D01*
X404846D01*
X403778Y393310D01*
X401827Y393698D01*
X392327D01*
X390376Y393310D01*
X388722Y392205D01*
X387617Y390551D01*
X387229Y388600D01*
X387617Y386649D01*
X388722Y384995D01*
X390376Y383890D01*
X392327Y383502D01*
X401827D01*
X403778Y383890D01*
X405432Y384995D01*
X406055Y385928D01*
X412976D01*
X413188Y385611D01*
X414504Y384731D01*
X416057Y384422D01*
X422097D01*
X423650Y384731D01*
X424417Y385243D01*
X426619D01*
X434999Y376863D01*
Y372480D01*
X435308Y370927D01*
X436188Y369610D01*
X437504Y368731D01*
X439057Y368422D01*
X445097D01*
X446650Y368731D01*
X447967Y369610D01*
X448846Y370927D01*
X449155Y372480D01*
Y377520D01*
X449058Y378008D01*
X450229Y378634D01*
X451666Y377196D01*
Y370381D01*
X446619Y365334D01*
X390881D01*
X381334Y374881D01*
Y410666D01*
X388542D01*
X388722Y410395D01*
X390376Y409290D01*
X392327Y408902D01*
X401827D01*
X403778Y409290D01*
X405432Y410395D01*
X405613Y410666D01*
X416562D01*
X416808Y409427D01*
X417688Y408111D01*
X419004Y407231D01*
X420557Y406922D01*
X425597D01*
X427150Y407231D01*
X428467Y408111D01*
X429346Y409427D01*
X429655Y410980D01*
Y417020D01*
X429598Y417306D01*
X430987Y418695D01*
X432157Y418069D01*
X431949Y417020D01*
Y415270D01*
X437807D01*
Y421628D01*
X436557D01*
X435508Y421420D01*
X434883Y422590D01*
X439714Y427422D01*
X445097D01*
X446650Y427731D01*
X447967Y428610D01*
X448846Y429927D01*
X449155Y431480D01*
Y436520D01*
X448846Y438073D01*
X447967Y439389D01*
X446650Y440269D01*
X445097Y440578D01*
X439057D01*
X438569Y440481D01*
X437944Y441651D01*
X439714Y443422D01*
X445097D01*
X446650Y443731D01*
X447967Y444610D01*
X448846Y445927D01*
X449155Y447480D01*
Y452520D01*
X448846Y454073D01*
X447967Y455389D01*
X446650Y456269D01*
X445097Y456578D01*
X439057D01*
X437504Y456269D01*
X436188Y455389D01*
X435308Y454073D01*
X434999Y452520D01*
Y448137D01*
X427891Y441028D01*
X426208D01*
X425967Y441389D01*
X424650Y442269D01*
X423097Y442578D01*
X417057D01*
X415504Y442269D01*
X415210Y442072D01*
X406055D01*
X405432Y443005D01*
X403778Y444110D01*
X401827Y444498D01*
X392327D01*
X390376Y444110D01*
X388722Y443005D01*
X387617Y441351D01*
X387229Y439400D01*
X387617Y437449D01*
X388722Y435795D01*
X390376Y434690D01*
X392327Y434302D01*
X401827D01*
X403778Y434690D01*
X404846Y435404D01*
X412999D01*
Y433480D01*
X413308Y431927D01*
X414188Y430611D01*
X415504Y429731D01*
X417057Y429422D01*
X423097D01*
X424650Y429731D01*
X425967Y430611D01*
X426846Y431927D01*
X427155Y433480D01*
Y434360D01*
X429272D01*
X430547Y434614D01*
X431629Y435337D01*
X433926Y437634D01*
X435096Y437008D01*
X434999Y436520D01*
Y432137D01*
X423940Y421078D01*
X420557D01*
X419004Y420769D01*
X417688Y419889D01*
X416808Y418573D01*
X416562Y417334D01*
X405613D01*
X405432Y417605D01*
X403778Y418710D01*
X401827Y419098D01*
X392327D01*
X390376Y418710D01*
X388722Y417605D01*
X388542Y417334D01*
X379381D01*
X377016Y419699D01*
X377736Y420775D01*
X379173Y420180D01*
X381000Y419940D01*
X382827Y420180D01*
X384530Y420886D01*
X385992Y422008D01*
X387114Y423470D01*
X387134Y423516D01*
X388441D01*
X388722Y423095D01*
X390376Y421990D01*
X392327Y421602D01*
X401827D01*
X403778Y421990D01*
X405432Y423095D01*
X406537Y424749D01*
X406925Y426700D01*
X406537Y428651D01*
X405432Y430305D01*
X403778Y431410D01*
X401827Y431798D01*
X392327D01*
X390376Y431410D01*
X388722Y430305D01*
X388642Y430184D01*
X387258D01*
X387114Y430530D01*
X385992Y431992D01*
X384530Y433115D01*
X382827Y433820D01*
X381000Y434060D01*
X379173Y433820D01*
X377470Y433115D01*
X377203Y432910D01*
X376064Y433471D01*
Y451270D01*
X375810Y452546D01*
X375088Y453628D01*
X362222Y466493D01*
X362709Y467666D01*
X540291D01*
X540722Y466396D01*
D02*
G37*
G36*
X657666Y423619D02*
Y369196D01*
X657470Y369114D01*
X656085Y368052D01*
X655779Y368116D01*
X654877Y368605D01*
X655060Y370000D01*
X654820Y371827D01*
X654115Y373530D01*
X652992Y374992D01*
X652759Y375171D01*
X652817Y376728D01*
X653389Y377111D01*
X654269Y378427D01*
X654578Y379980D01*
Y386020D01*
X654269Y387573D01*
X653389Y388889D01*
X652073Y389769D01*
X651334Y389916D01*
Y392084D01*
X652073Y392231D01*
X653389Y393111D01*
X654269Y394427D01*
X654578Y395980D01*
Y402020D01*
X654269Y403573D01*
X653389Y404889D01*
X652073Y405769D01*
X650520Y406078D01*
X645480D01*
X645333Y406049D01*
X644141Y407000D01*
X645333Y407951D01*
X645480Y407922D01*
X650520D01*
X652073Y408231D01*
X653389Y409111D01*
X654269Y410427D01*
X654578Y411980D01*
Y418020D01*
X654269Y419573D01*
X653389Y420889D01*
X652073Y421769D01*
X651334Y421916D01*
Y424084D01*
X652073Y424231D01*
X653389Y425111D01*
X653785Y425703D01*
X655365Y425920D01*
X657666Y423619D01*
D02*
G37*
G36*
X834666Y384619D02*
Y379579D01*
X834510D01*
X832945Y379267D01*
X831619Y378381D01*
X830733Y377055D01*
X830422Y375490D01*
Y373510D01*
X830733Y371945D01*
X831061Y371454D01*
X830122Y370574D01*
X828802Y371586D01*
X826968Y372346D01*
X826270Y372438D01*
Y365000D01*
X823730D01*
Y372438D01*
X823032Y372346D01*
X821198Y371586D01*
X819878Y370574D01*
X818939Y371454D01*
X819267Y371945D01*
X819578Y373510D01*
Y375490D01*
X819267Y377055D01*
X818381Y378381D01*
X817055Y379267D01*
X815490Y379579D01*
X814524D01*
Y381810D01*
X814270Y383086D01*
X813548Y384168D01*
X809913Y387802D01*
X810507Y389005D01*
X811000Y388940D01*
X812827Y389180D01*
X814530Y389885D01*
X815992Y391007D01*
X817114Y392470D01*
X817820Y394173D01*
X818060Y396000D01*
X817820Y397827D01*
X817114Y399530D01*
X815992Y400992D01*
X814530Y402114D01*
X813524Y402531D01*
Y403965D01*
X814794Y404491D01*
X834666Y384619D01*
D02*
G37*
G36*
X246886Y399470D02*
X248008Y398008D01*
X249470Y396885D01*
X251173Y396180D01*
X253000Y395940D01*
X254827Y396180D01*
X256530Y396885D01*
X257992Y398008D01*
X258396Y398533D01*
X259666Y398102D01*
Y391381D01*
X250619Y382334D01*
X229000D01*
X227724Y382080D01*
X226642Y381357D01*
X196619Y351334D01*
X177519D01*
X177032Y352507D01*
X181616Y357091D01*
X197425D01*
X198701Y357345D01*
X199782Y358067D01*
X241381Y399666D01*
X246804D01*
X246886Y399470D01*
D02*
G37*
G36*
X154488Y332973D02*
X142007Y320492D01*
X141762Y320537D01*
X140774Y321988D01*
X140829Y322265D01*
Y328735D01*
X140517Y330302D01*
X139630Y331630D01*
X138302Y332517D01*
X136735Y332829D01*
X134265D01*
X132698Y332517D01*
X131370Y331630D01*
X130483Y330302D01*
X130171Y328735D01*
Y322265D01*
X130483Y320698D01*
X131370Y319370D01*
X132698Y318483D01*
X134265Y318171D01*
X136735D01*
X137012Y318226D01*
X138463Y317238D01*
X138508Y316993D01*
X118250Y296734D01*
X90796D01*
X89827Y299074D01*
X88024Y301424D01*
X85674Y303227D01*
X82937Y304360D01*
X80000Y304747D01*
X77063Y304360D01*
X74327Y303227D01*
X71976Y301424D01*
X70173Y299074D01*
X69950Y298534D01*
X58078D01*
Y299520D01*
X57769Y301073D01*
X56889Y302389D01*
X55573Y303269D01*
X54020Y303578D01*
X47980D01*
X46427Y303269D01*
X45111Y302389D01*
X44231Y301073D01*
X43922Y299520D01*
Y294480D01*
X44231Y292927D01*
X45111Y291611D01*
X46427Y290731D01*
X47980Y290422D01*
X54020D01*
X55573Y290731D01*
X56889Y291611D01*
X57060Y291866D01*
X68855D01*
X69040Y290463D01*
X70173Y287726D01*
X71976Y285376D01*
X74327Y283573D01*
X77063Y282440D01*
X80000Y282053D01*
X82937Y282440D01*
X85674Y283573D01*
X88024Y285376D01*
X89827Y287726D01*
X90796Y290066D01*
X119630D01*
X120906Y290320D01*
X121988Y291042D01*
X155536Y324590D01*
X156612Y323871D01*
X156180Y322827D01*
X155940Y321000D01*
X156180Y319173D01*
X156885Y317470D01*
X157927Y316113D01*
X157838Y315660D01*
X157439Y314843D01*
X153250D01*
X151397Y314474D01*
X149825Y313424D01*
X148776Y311853D01*
X148407Y310000D01*
X148776Y308147D01*
X149651Y306836D01*
X149754Y306000D01*
X149651Y305164D01*
X148776Y303853D01*
X148407Y302000D01*
X148776Y300147D01*
X149651Y298836D01*
X149754Y298000D01*
X149651Y297164D01*
X148776Y295853D01*
X148407Y294000D01*
X148776Y292147D01*
X149651Y290836D01*
X149754Y290000D01*
X149651Y289164D01*
X148776Y287853D01*
X148407Y286000D01*
X148776Y284147D01*
X149651Y282836D01*
X149754Y282000D01*
X149651Y281164D01*
X148776Y279853D01*
X148407Y278000D01*
X148776Y276147D01*
X149825Y274576D01*
X149202Y273464D01*
X148267Y272064D01*
X148109Y271270D01*
X167891D01*
X167733Y272064D01*
X167222Y272830D01*
X167900Y274100D01*
X171185D01*
X182642Y262642D01*
X183724Y261920D01*
X185000Y261666D01*
X203619D01*
X208262Y257024D01*
X208180Y256827D01*
X207940Y255000D01*
X208180Y253173D01*
X208885Y251470D01*
X209797Y250282D01*
X209592Y249307D01*
X209355Y248907D01*
X208894Y248821D01*
X201357Y256357D01*
X200276Y257080D01*
X199000Y257334D01*
X167096D01*
X166305Y258481D01*
X166348Y258836D01*
X167224Y260147D01*
X167593Y262000D01*
X167224Y263853D01*
X166175Y265424D01*
X166798Y266536D01*
X167733Y267936D01*
X167891Y268730D01*
X148109D01*
X148267Y267936D01*
X149157Y266604D01*
X148603Y265343D01*
X148594Y265334D01*
X131963D01*
X131768Y266314D01*
X130885Y267635D01*
X129564Y268518D01*
X128005Y268828D01*
X121995D01*
X120436Y268518D01*
X119115Y267635D01*
X118232Y266314D01*
X117922Y264755D01*
Y259245D01*
X118049Y258604D01*
X117056Y257334D01*
X91400D01*
X90124Y257080D01*
X89043Y256357D01*
X85276Y252591D01*
X82937Y253560D01*
X80000Y253947D01*
X77063Y253560D01*
X74327Y252427D01*
X71976Y250624D01*
X70173Y248274D01*
X69040Y245537D01*
X68653Y242600D01*
X69040Y239663D01*
X70173Y236926D01*
X71976Y234576D01*
X74327Y232773D01*
X77063Y231640D01*
X80000Y231253D01*
X82937Y231640D01*
X85674Y232773D01*
X88024Y234576D01*
X89827Y236926D01*
X90960Y239663D01*
X91347Y242600D01*
X90960Y245537D01*
X89991Y247876D01*
X92781Y250666D01*
X119714D01*
X119814Y250646D01*
X130186D01*
X130287Y250666D01*
X147978D01*
X148363Y250000D01*
X147978Y249334D01*
X108800D01*
X107524Y249080D01*
X106442Y248358D01*
X85276Y227191D01*
X82937Y228160D01*
X80000Y228547D01*
X77063Y228160D01*
X74327Y227027D01*
X71976Y225224D01*
X70173Y222873D01*
X69040Y220137D01*
X68653Y217200D01*
X69040Y214263D01*
X70173Y211527D01*
X71976Y209176D01*
X74327Y207373D01*
X77063Y206240D01*
X80000Y205853D01*
X82937Y206240D01*
X85674Y207373D01*
X88024Y209176D01*
X89827Y211527D01*
X90960Y214263D01*
X91347Y217200D01*
X90960Y220137D01*
X89991Y222476D01*
X110181Y242666D01*
X147978D01*
X148363Y242000D01*
X147978Y241334D01*
X141000D01*
X139724Y241080D01*
X138642Y240357D01*
X117642Y219357D01*
X116920Y218276D01*
X116666Y217000D01*
Y206196D01*
X116470Y206115D01*
X115007Y204993D01*
X113885Y203530D01*
X113180Y201827D01*
X112940Y200000D01*
X113180Y198173D01*
X113885Y196470D01*
X115007Y195008D01*
X116470Y193885D01*
X117149Y193604D01*
X116897Y192334D01*
X69802D01*
X60874Y201262D01*
Y234460D01*
X60620Y235736D01*
X59897Y236817D01*
X25334Y271381D01*
Y289158D01*
X26604Y289898D01*
X27995Y289621D01*
X29730D01*
Y297000D01*
Y304379D01*
X27995D01*
X26604Y304102D01*
X25523Y304732D01*
X25532Y305823D01*
X26619Y306446D01*
X27995Y306172D01*
X34005D01*
X35564Y306482D01*
X36885Y307365D01*
X37768Y308686D01*
X37963Y309666D01*
X44084D01*
X44231Y308927D01*
X45111Y307611D01*
X46427Y306731D01*
X47980Y306422D01*
X54020D01*
X55573Y306731D01*
X56889Y307611D01*
X57769Y308927D01*
X57916Y309666D01*
X59200D01*
X60476Y309920D01*
X61557Y310643D01*
X66381Y315466D01*
X68750D01*
Y307550D01*
X91250D01*
Y330050D01*
X68750D01*
Y322134D01*
X65000D01*
X63724Y321880D01*
X62642Y321157D01*
X58898Y317413D01*
X57366Y317677D01*
X56889Y318389D01*
X55573Y319269D01*
X54020Y319578D01*
X53865D01*
X53480Y320848D01*
X53730Y321015D01*
X66861Y334146D01*
X113052D01*
X113130Y333946D01*
X113264Y332876D01*
X111981Y332019D01*
X111394Y331140D01*
X111269Y331046D01*
X109895Y330805D01*
X109780Y330836D01*
X108802Y331586D01*
X106968Y332346D01*
X106270Y332438D01*
Y325000D01*
Y317562D01*
X106968Y317654D01*
X108802Y318414D01*
X110145Y319444D01*
X111619Y319523D01*
X111981Y318981D01*
X113488Y317974D01*
X115230Y317628D01*
Y325500D01*
X116500D01*
Y326770D01*
X122379D01*
Y328735D01*
X122026Y330512D01*
X121019Y332019D01*
X119736Y332876D01*
X119870Y333946D01*
X119948Y334146D01*
X154002D01*
X154488Y332973D01*
D02*
G37*
G36*
X296501Y331943D02*
X297272Y331109D01*
X296497Y330234D01*
X293596Y327334D01*
X266150D01*
X264874Y327080D01*
X263792Y326357D01*
X261016Y323581D01*
X259843Y324067D01*
Y331750D01*
X259532Y333316D01*
X260040Y334241D01*
X260345Y334586D01*
X293858D01*
X296501Y331943D01*
D02*
G37*
G36*
X732634Y317703D02*
X733839Y317464D01*
X734098Y316968D01*
X734264Y316189D01*
X734007Y315992D01*
X732886Y314530D01*
X732180Y312827D01*
X731940Y311000D01*
X732180Y309173D01*
X732886Y307470D01*
X734007Y306007D01*
X735470Y304886D01*
X737173Y304180D01*
X739000Y303940D01*
X740827Y304180D01*
X742530Y304886D01*
X743992Y306007D01*
X745115Y307470D01*
X745772Y309057D01*
X747729Y311013D01*
X749006Y310495D01*
X749180Y309173D01*
X749885Y307470D01*
X751008Y306007D01*
X752470Y304886D01*
X754173Y304180D01*
X755480Y304008D01*
X756109Y302917D01*
X756134Y302689D01*
X755901Y302334D01*
X755696D01*
X754420Y302080D01*
X753338Y301357D01*
X753222Y301242D01*
X751827Y301820D01*
X750000Y302060D01*
X748173Y301820D01*
X746470Y301115D01*
X745008Y299992D01*
X743885Y298530D01*
X743180Y296827D01*
X743122Y296389D01*
X741781Y295933D01*
X721912Y315803D01*
X722042Y317285D01*
X722217Y317408D01*
X722872Y317656D01*
X724000Y317431D01*
X725366Y317703D01*
X726500Y318461D01*
X727634Y317703D01*
X729000Y317431D01*
X730366Y317703D01*
X731500Y318461D01*
X732634Y317703D01*
D02*
G37*
G36*
X407918Y306033D02*
X404353Y302468D01*
X404157Y302550D01*
X402330Y302790D01*
X400503Y302550D01*
X398800Y301845D01*
X397337Y300722D01*
X396216Y299260D01*
X395510Y297557D01*
X395295Y295925D01*
X394060Y296000D01*
X393820Y297827D01*
X393115Y299530D01*
X391992Y300992D01*
X390530Y302115D01*
X388827Y302820D01*
X387000Y303060D01*
X385173Y302820D01*
X383470Y302115D01*
X382007Y300992D01*
X380886Y299530D01*
X380180Y297827D01*
X379940Y296000D01*
X380180Y294173D01*
X380886Y292470D01*
X382007Y291007D01*
X383470Y289886D01*
X384149Y289604D01*
X383897Y288334D01*
X310000D01*
X308724Y288080D01*
X307642Y287358D01*
X305023Y284739D01*
X304827Y284820D01*
X303000Y285060D01*
X301173Y284820D01*
X299470Y284114D01*
X298008Y282992D01*
X297008Y281689D01*
X295682Y281572D01*
X295586Y281803D01*
X294378Y283378D01*
X292803Y284586D01*
X290968Y285346D01*
X289103Y285592D01*
X288775Y286061D01*
X288445Y286730D01*
X308921Y307206D01*
X407431D01*
X407918Y306033D01*
D02*
G37*
G36*
X212968Y302317D02*
X212481Y301144D01*
X210810D01*
X209534Y300890D01*
X208452Y300168D01*
X201349Y293064D01*
X195956D01*
X185112Y303907D01*
X185706Y305110D01*
X187000Y304940D01*
X188827Y305180D01*
X190530Y305886D01*
X190831Y306116D01*
X192180Y305598D01*
X192885Y303895D01*
X194008Y302433D01*
X195470Y301311D01*
X197173Y300606D01*
X199000Y300365D01*
X200827Y300606D01*
X202530Y301311D01*
X203993Y302433D01*
X205114Y303895D01*
X205820Y305598D01*
X206060Y307425D01*
X206060Y307429D01*
X207263Y308022D01*
X212968Y302317D01*
D02*
G37*
G36*
X647643Y306642D02*
X648724Y305920D01*
X650000Y305666D01*
X659619D01*
X672013Y293272D01*
X671495Y291994D01*
X670173Y291820D01*
X668470Y291115D01*
X667008Y289993D01*
X666338Y289119D01*
X665228Y289760D01*
X665399Y290173D01*
X665640Y292000D01*
X665399Y293827D01*
X664694Y295530D01*
X663572Y296992D01*
X662110Y298114D01*
X660407Y298820D01*
X658579Y299060D01*
X656752Y298820D01*
X655049Y298114D01*
X653587Y296992D01*
X652465Y295530D01*
X652384Y295334D01*
X624099D01*
X623866Y295689D01*
X623890Y295917D01*
X624520Y297008D01*
X625827Y297180D01*
X627530Y297885D01*
X628992Y299008D01*
X630115Y300470D01*
X630820Y302173D01*
X631016Y303664D01*
X632318Y303840D01*
X632886Y302470D01*
X634007Y301008D01*
X635470Y299886D01*
X637173Y299180D01*
X639000Y298940D01*
X640827Y299180D01*
X642530Y299886D01*
X643992Y301008D01*
X645115Y302470D01*
X645820Y304173D01*
X646060Y306000D01*
X645995Y306493D01*
X647198Y307087D01*
X647643Y306642D01*
D02*
G37*
G36*
X619642Y289643D02*
X620724Y288920D01*
X622000Y288666D01*
X652384D01*
X652465Y288470D01*
X653129Y287604D01*
X652503Y286334D01*
X614580D01*
X613304Y286080D01*
X612222Y285357D01*
X595199Y268334D01*
X566898D01*
X566467Y269604D01*
X566992Y270008D01*
X568115Y271470D01*
X568820Y273173D01*
X569060Y275000D01*
X568820Y276827D01*
X568115Y278530D01*
X566992Y279993D01*
X565530Y281115D01*
X563827Y281820D01*
X562000Y282060D01*
X560173Y281820D01*
X558470Y281115D01*
X557007Y279993D01*
X555886Y278530D01*
X555804Y278334D01*
X479381D01*
X469319Y288396D01*
X469845Y289666D01*
X477804D01*
X477886Y289470D01*
X479008Y288008D01*
X480470Y286886D01*
X482173Y286180D01*
X484000Y285940D01*
X485827Y286180D01*
X487530Y286886D01*
X488992Y288008D01*
X490115Y289470D01*
X490820Y291173D01*
X491060Y293000D01*
X490820Y294827D01*
X490170Y296396D01*
X490530Y297373D01*
X490675Y297666D01*
X537804D01*
X537886Y297470D01*
X539008Y296008D01*
X540470Y294886D01*
X542173Y294180D01*
X544000Y293940D01*
X545827Y294180D01*
X547530Y294886D01*
X548993Y296008D01*
X550115Y297470D01*
X550820Y299173D01*
X551060Y301000D01*
X550820Y302827D01*
X550115Y304530D01*
X549036Y305936D01*
X549077Y306196D01*
X549497Y307206D01*
X602079D01*
X619642Y289643D01*
D02*
G37*
G36*
X235936Y281929D02*
Y262881D01*
X235000Y262060D01*
X233173Y261820D01*
X232523Y261551D01*
X231551Y262523D01*
X231820Y263173D01*
X232060Y265000D01*
X231820Y266827D01*
X231115Y268530D01*
X229993Y269992D01*
X228530Y271115D01*
X226827Y271820D01*
X225000Y272060D01*
X223173Y271820D01*
X222523Y271551D01*
X221551Y272523D01*
X221820Y273173D01*
X222060Y275000D01*
X221820Y276827D01*
X221551Y277477D01*
X222523Y278449D01*
X223173Y278180D01*
X225000Y277940D01*
X226827Y278180D01*
X228530Y278885D01*
X229993Y280007D01*
X231115Y281470D01*
X231820Y283173D01*
X231945Y284123D01*
X233286Y284579D01*
X235936Y281929D01*
D02*
G37*
G36*
X475643Y272642D02*
X476724Y271920D01*
X478000Y271666D01*
X555804D01*
X555886Y271470D01*
X557007Y270008D01*
X557533Y269604D01*
X557102Y268334D01*
X420863D01*
X418570Y270627D01*
X417488Y271350D01*
X416212Y271604D01*
X361534D01*
X360927Y272544D01*
X361506Y273666D01*
X430000D01*
X431276Y273920D01*
X432357Y274643D01*
X435381Y277666D01*
X448804D01*
X448885Y277470D01*
X450008Y276008D01*
X451470Y274886D01*
X453173Y274180D01*
X455000Y273940D01*
X456827Y274180D01*
X458530Y274886D01*
X459992Y276008D01*
X461115Y277470D01*
X461820Y279173D01*
X462060Y281000D01*
X461820Y282827D01*
X461115Y284530D01*
X459992Y285992D01*
X458530Y287115D01*
X456827Y287820D01*
X455000Y288060D01*
X453173Y287820D01*
X451470Y287115D01*
X450008Y285992D01*
X448885Y284530D01*
X448804Y284334D01*
X434000D01*
X432724Y284080D01*
X432324Y283813D01*
X431515Y284799D01*
X437381Y290666D01*
X457619D01*
X475643Y272642D01*
D02*
G37*
G36*
X383310Y281604D02*
X382631Y280334D01*
X336000D01*
X334724Y280080D01*
X333643Y279357D01*
X322271Y267987D01*
X320994Y268505D01*
X320820Y269827D01*
X320115Y271530D01*
X318993Y272992D01*
X317530Y274114D01*
X315827Y274820D01*
X314000Y275060D01*
X312173Y274820D01*
X310470Y274114D01*
X310249Y273945D01*
X309239Y274771D01*
X309820Y276173D01*
X310060Y278000D01*
X309820Y279827D01*
X309739Y280023D01*
X311381Y281666D01*
X383269D01*
X383310Y281604D01*
D02*
G37*
G36*
X656687Y273348D02*
X655982Y272078D01*
X651245D01*
X649686Y271768D01*
X648365Y270885D01*
X647482Y269564D01*
X647172Y268005D01*
Y261995D01*
X647482Y260436D01*
X648365Y259115D01*
X649686Y258232D01*
X651245Y257922D01*
X656755D01*
X658314Y258232D01*
X659635Y259115D01*
X660518Y260436D01*
X660763Y261666D01*
X691493D01*
X692510Y260396D01*
X692431Y260000D01*
X692703Y258634D01*
X693461Y257500D01*
X692703Y256366D01*
X692431Y255000D01*
X692510Y254604D01*
X691493Y253334D01*
X371898Y253334D01*
X371467Y254604D01*
X371992Y255007D01*
X373115Y256470D01*
X373196Y256666D01*
X598000D01*
X599276Y256920D01*
X600358Y257642D01*
X616381Y273666D01*
X622328D01*
X622411Y272396D01*
X622032Y272346D01*
X620197Y271586D01*
X618622Y270378D01*
X617414Y268803D01*
X616654Y266968D01*
X616562Y266270D01*
X624000D01*
Y265000D01*
X625270D01*
Y257562D01*
X625968Y257654D01*
X627803Y258414D01*
X629378Y259622D01*
X629712Y260058D01*
X630077Y260106D01*
X631191Y259900D01*
X631975Y258725D01*
X633475Y257723D01*
X635245Y257371D01*
X636730D01*
Y265000D01*
X638000D01*
Y266270D01*
X645379D01*
Y268005D01*
X645027Y269774D01*
X644025Y271275D01*
X642524Y272277D01*
X641926Y272396D01*
X642051Y273666D01*
X656488D01*
X656687Y273348D01*
D02*
G37*
G36*
X243180Y253173D02*
X243885Y251470D01*
X245008Y250008D01*
X246470Y248885D01*
X248173Y248180D01*
X250000Y247940D01*
X251827Y248180D01*
X253530Y248885D01*
X253797Y249090D01*
X254936Y248528D01*
Y244651D01*
X251642Y241357D01*
X250920Y240276D01*
X250666Y239000D01*
Y228000D01*
X250920Y226724D01*
X251642Y225642D01*
X253790Y223494D01*
X253422Y222279D01*
X253147Y222224D01*
X251836Y221348D01*
X251000Y221245D01*
X250164Y221348D01*
X248853Y222224D01*
X247000Y222593D01*
X245147Y222224D01*
X243836Y221348D01*
X243000Y221245D01*
X242480Y221310D01*
X241959Y221917D01*
X241931Y222187D01*
X242250Y223355D01*
X243530Y223885D01*
X244992Y225008D01*
X246115Y226470D01*
X246820Y228173D01*
X247060Y230000D01*
X246820Y231827D01*
X246115Y233530D01*
X244992Y234992D01*
X243530Y236115D01*
X241827Y236820D01*
X240000Y237060D01*
X238173Y236820D01*
X236470Y236115D01*
X235008Y234992D01*
X233885Y233530D01*
X233804Y233334D01*
X229381D01*
X225933Y236782D01*
X226389Y238122D01*
X226827Y238180D01*
X228530Y238885D01*
X229993Y240007D01*
X231115Y241470D01*
X231820Y243173D01*
X232060Y245000D01*
X231820Y246827D01*
X231551Y247477D01*
X232523Y248449D01*
X233173Y248180D01*
X235000Y247940D01*
X236827Y248180D01*
X238530Y248885D01*
X239993Y250008D01*
X241115Y251470D01*
X241820Y253173D01*
X241859Y253474D01*
X243141D01*
X243180Y253173D01*
D02*
G37*
G36*
X749007Y263008D02*
X750470Y261886D01*
X752173Y261180D01*
X754000Y260940D01*
X755827Y261180D01*
X757530Y261886D01*
X758396Y262550D01*
X759666Y261924D01*
Y240898D01*
X758396Y240467D01*
X757992Y240993D01*
X756530Y242115D01*
X754827Y242820D01*
X753000Y243060D01*
X751173Y242820D01*
X749470Y242115D01*
X748008Y240993D01*
X746886Y239530D01*
X746180Y237827D01*
X745948Y236063D01*
X745757Y235923D01*
X744726Y235489D01*
X742858Y237358D01*
X741776Y238080D01*
X740500Y238334D01*
X712507D01*
X711490Y239604D01*
X711569Y240000D01*
X711297Y241366D01*
X710539Y242500D01*
X711297Y243634D01*
X711569Y245000D01*
X711297Y246366D01*
X710539Y247500D01*
X711297Y248634D01*
X711569Y250000D01*
X711490Y250396D01*
X712507Y251666D01*
X735881D01*
X737156Y251920D01*
X738238Y252642D01*
X746357Y260762D01*
X747080Y261844D01*
X747331Y263106D01*
X747369Y263131D01*
X748604Y263533D01*
X749007Y263008D01*
D02*
G37*
G36*
X333006Y267495D02*
X333180Y266173D01*
X333885Y264470D01*
X335008Y263008D01*
X336470Y261886D01*
X338173Y261180D01*
X340000Y260940D01*
X341827Y261180D01*
X342024Y261262D01*
X353778Y249507D01*
X353292Y248334D01*
X339000D01*
X337724Y248080D01*
X336642Y247358D01*
X326189Y236904D01*
X325000Y237060D01*
X323173Y236820D01*
X321470Y236115D01*
X320008Y234992D01*
X318885Y233530D01*
X318180Y231827D01*
X317940Y230000D01*
X318180Y228173D01*
X318885Y226470D01*
X320008Y225008D01*
X321470Y223885D01*
X323173Y223180D01*
X325000Y222940D01*
X326827Y223180D01*
X328530Y223885D01*
X329992Y225008D01*
X331115Y226470D01*
X331820Y228173D01*
X332060Y230000D01*
X331820Y231827D01*
X331446Y232731D01*
X340381Y241666D01*
X350291D01*
X350778Y240493D01*
X347024Y236738D01*
X346827Y236820D01*
X345000Y237060D01*
X343173Y236820D01*
X341470Y236115D01*
X340008Y234992D01*
X338885Y233530D01*
X338180Y231827D01*
X337940Y230000D01*
X338180Y228173D01*
X338885Y226470D01*
X340008Y225008D01*
X341470Y223885D01*
X343173Y223180D01*
X345000Y222940D01*
X346827Y223180D01*
X348530Y223885D01*
X349992Y225008D01*
X351115Y226470D01*
X351820Y228173D01*
X351860Y228474D01*
X353140D01*
X353180Y228173D01*
X353885Y226470D01*
X355008Y225008D01*
X356470Y223885D01*
X358173Y223180D01*
X360000Y222940D01*
X361827Y223180D01*
X362024Y223262D01*
X371318Y213967D01*
X370831Y212794D01*
X329921D01*
X294358Y248358D01*
X293276Y249080D01*
X292000Y249334D01*
X282022D01*
X281637Y250000D01*
X282022Y250666D01*
X313000D01*
X314276Y250920D01*
X315357Y251642D01*
X331729Y268013D01*
X333006Y267495D01*
D02*
G37*
G36*
X201217Y234643D02*
X201274Y234604D01*
X200889Y233334D01*
X174000D01*
X172724Y233080D01*
X171642Y232358D01*
X168789Y229505D01*
X167918Y229865D01*
X167576Y230087D01*
X167224Y231853D01*
X166348Y233164D01*
X166245Y234000D01*
X166348Y234836D01*
X167224Y236147D01*
X167593Y238000D01*
X167224Y239853D01*
X166348Y241164D01*
X166305Y241519D01*
X167096Y242666D01*
X193193D01*
X201217Y234643D01*
D02*
G37*
G36*
X619727Y229558D02*
X619718Y229480D01*
X619155Y228334D01*
X525381D01*
X523222Y230493D01*
X523708Y231666D01*
X617619D01*
X619727Y229558D01*
D02*
G37*
G36*
X441778Y230493D02*
X434469Y223184D01*
X394702D01*
X394271Y224454D01*
X394992Y225008D01*
X396115Y226470D01*
X396196Y226666D01*
X432000D01*
X433276Y226920D01*
X434357Y227642D01*
X438381Y231666D01*
X441292D01*
X441778Y230493D01*
D02*
G37*
G36*
X219666Y223619D02*
Y222096D01*
X218519Y221305D01*
X218164Y221348D01*
X216853Y222224D01*
X215000Y222593D01*
X213147Y222224D01*
X211836Y221348D01*
X211000Y221245D01*
X210164Y221348D01*
X208853Y222224D01*
X207000Y222593D01*
X205147Y222224D01*
X203836Y221348D01*
X203000Y221245D01*
X202164Y221348D01*
X200853Y222224D01*
X199000Y222593D01*
X197147Y222224D01*
X195836Y221348D01*
X195000Y221245D01*
X194164Y221348D01*
X192853Y222224D01*
X191000Y222593D01*
X189147Y222224D01*
X187836Y221348D01*
X187000Y221245D01*
X186164Y221348D01*
X184853Y222224D01*
X183000Y222593D01*
X181147Y222224D01*
X179836Y221348D01*
X179000Y221245D01*
X178164Y221348D01*
X176853Y222224D01*
X175000Y222593D01*
X173147Y222224D01*
X171908Y221397D01*
X171098Y222383D01*
X175381Y226666D01*
X216619D01*
X219666Y223619D01*
D02*
G37*
G36*
X799007Y276008D02*
X800470Y274886D01*
X802173Y274180D01*
X804000Y273940D01*
X805827Y274180D01*
X806023Y274261D01*
X808643Y271642D01*
X809724Y270920D01*
X811000Y270666D01*
X821619D01*
X829555Y262731D01*
X830636Y262008D01*
X831912Y261754D01*
X845551D01*
X846528Y260484D01*
X846431Y260000D01*
X846703Y258634D01*
X847461Y257500D01*
X846703Y256366D01*
X846431Y255000D01*
X846703Y253634D01*
X847461Y252500D01*
X846703Y251366D01*
X846431Y250000D01*
X846703Y248634D01*
X847461Y247500D01*
X846703Y246366D01*
X846431Y245000D01*
X846703Y243634D01*
X847461Y242500D01*
X846703Y241366D01*
X846431Y240000D01*
X846703Y238634D01*
X847461Y237500D01*
X846703Y236366D01*
X846431Y235000D01*
X846703Y233634D01*
X847461Y232500D01*
X846703Y231366D01*
X846431Y230000D01*
X846703Y228634D01*
X847461Y227500D01*
X846703Y226366D01*
X846431Y225000D01*
X846703Y223634D01*
X847461Y222500D01*
X846703Y221366D01*
X846431Y220000D01*
X846510Y219604D01*
X845493Y218334D01*
X827196D01*
X827114Y218530D01*
X825993Y219992D01*
X824530Y221115D01*
X822827Y221820D01*
X821000Y222060D01*
X819173Y221820D01*
X817470Y221115D01*
X816604Y220450D01*
X815334Y221077D01*
Y226000D01*
X815080Y227276D01*
X814358Y228358D01*
X807334Y235381D01*
Y246804D01*
X807530Y246886D01*
X808992Y248008D01*
X810115Y249470D01*
X810820Y251173D01*
X811060Y253000D01*
X810820Y254827D01*
X810115Y256530D01*
X808992Y257992D01*
X807530Y259114D01*
X805827Y259820D01*
X804000Y260060D01*
X802173Y259820D01*
X800470Y259114D01*
X799007Y257992D01*
X798604Y257467D01*
X797334Y257898D01*
Y276102D01*
X798604Y276533D01*
X799007Y276008D01*
D02*
G37*
G36*
X692510Y235396D02*
X692431Y235000D01*
X692703Y233634D01*
X693461Y232500D01*
X692703Y231366D01*
X692431Y230000D01*
X692703Y228634D01*
X693461Y227500D01*
X692703Y226366D01*
X692431Y225000D01*
X692703Y223634D01*
X693461Y222500D01*
X692703Y221366D01*
X692431Y220000D01*
X692510Y219604D01*
X691493Y218334D01*
X690090D01*
X688977Y219604D01*
X689060Y220240D01*
X688820Y222067D01*
X688114Y223770D01*
X686992Y225232D01*
X685530Y226354D01*
X683827Y227060D01*
X682000Y227300D01*
X680173Y227060D01*
X678470Y226354D01*
X677008Y225232D01*
X675885Y223770D01*
X675180Y222067D01*
X674940Y220240D01*
X675180Y218413D01*
X675885Y216710D01*
X677008Y215247D01*
X677846Y214604D01*
X677415Y213334D01*
X672255D01*
X672174Y213530D01*
X671052Y214993D01*
X669590Y216115D01*
X667887Y216820D01*
X666059Y217060D01*
X664232Y216820D01*
X662529Y216115D01*
X661067Y214993D01*
X659945Y213530D01*
X659240Y211827D01*
X658999Y210000D01*
X659240Y208173D01*
X659945Y206470D01*
X661067Y205008D01*
X661698Y204523D01*
X661609Y203808D01*
X661323Y203210D01*
X660264Y202999D01*
X659183Y202277D01*
X648970Y192064D01*
X614029D01*
X606141Y199952D01*
X606627Y201125D01*
X612804D01*
X612886Y200929D01*
X614008Y199467D01*
X615470Y198345D01*
X617173Y197639D01*
X619000Y197399D01*
X620827Y197639D01*
X622530Y198345D01*
X623993Y199467D01*
X625115Y200929D01*
X625820Y202632D01*
X626060Y204459D01*
X625888Y205768D01*
X626254Y206115D01*
X627069Y206469D01*
X627892Y205919D01*
X629168Y205665D01*
X635998D01*
X637274Y205919D01*
X638356Y206642D01*
X638975Y207261D01*
X639171Y207180D01*
X640999Y206939D01*
X642826Y207180D01*
X644529Y207885D01*
X645991Y209007D01*
X647113Y210469D01*
X647819Y212172D01*
X648059Y214000D01*
X647819Y215827D01*
X647113Y217530D01*
X645991Y218992D01*
X644529Y220114D01*
X642826Y220819D01*
X640999Y221060D01*
X639171Y220819D01*
X638997Y220747D01*
X637989Y221520D01*
X638060Y222060D01*
X637868Y223520D01*
X638583Y224256D01*
X638965Y224440D01*
X639593Y224180D01*
X641421Y223940D01*
X643248Y224180D01*
X644951Y224886D01*
X646413Y226007D01*
X647535Y227470D01*
X648240Y229173D01*
X648481Y231000D01*
X648240Y232827D01*
X647535Y234530D01*
X646871Y235396D01*
X647497Y236666D01*
X691493D01*
X692510Y235396D01*
D02*
G37*
G36*
X496395Y225805D02*
X488923Y218334D01*
X440709D01*
X440222Y219507D01*
X447693Y226978D01*
X495909D01*
X496395Y225805D01*
D02*
G37*
G36*
X519642Y217642D02*
X520724Y216920D01*
X522000Y216666D01*
X545543D01*
X546069Y215396D01*
X538927Y208254D01*
X513793D01*
X513362Y209524D01*
X513992Y210008D01*
X515115Y211470D01*
X515820Y213173D01*
X516060Y215000D01*
X515820Y216827D01*
X515115Y218530D01*
X513992Y219992D01*
X513467Y220396D01*
X513898Y221666D01*
X515619D01*
X519642Y217642D01*
D02*
G37*
G36*
X323858Y209427D02*
X323372Y208254D01*
X308461D01*
X306904Y209811D01*
X307060Y211000D01*
X306820Y212827D01*
X306115Y214530D01*
X304993Y215993D01*
X303530Y217115D01*
X301827Y217820D01*
X300000Y218060D01*
X298173Y217820D01*
X296470Y217115D01*
X295008Y215993D01*
X293885Y214530D01*
X293180Y212827D01*
X292940Y211000D01*
X293156Y209355D01*
X292777Y209013D01*
X292007Y208708D01*
X278814Y221901D01*
Y225666D01*
X280175Y226575D01*
X281224Y228147D01*
X281593Y230000D01*
X281224Y231853D01*
X280348Y233164D01*
X280245Y234000D01*
X280348Y234836D01*
X281224Y236147D01*
X281593Y238000D01*
X281224Y239853D01*
X280348Y241164D01*
X280305Y241519D01*
X281096Y242666D01*
X290619D01*
X323858Y209427D01*
D02*
G37*
G36*
X795697Y289413D02*
X791643Y285358D01*
X790920Y284276D01*
X790666Y283000D01*
Y238196D01*
X790470Y238114D01*
X789008Y236992D01*
X787886Y235530D01*
X787180Y233827D01*
X786940Y232000D01*
X787180Y230173D01*
X787262Y229977D01*
X786643Y229357D01*
X785920Y228276D01*
X785666Y227000D01*
Y202708D01*
X784493Y202222D01*
X781334Y205381D01*
Y260804D01*
X781530Y260886D01*
X782992Y262008D01*
X784115Y263470D01*
X784820Y265173D01*
X785060Y267000D01*
X784820Y268827D01*
X784115Y270530D01*
X782992Y271992D01*
X781530Y273114D01*
X781552Y274480D01*
X782530Y274886D01*
X783992Y276008D01*
X785115Y277470D01*
X785820Y279173D01*
X786060Y281000D01*
X785820Y282827D01*
X785115Y284530D01*
X783992Y285992D01*
X782530Y287115D01*
X780827Y287820D01*
X779000Y288060D01*
X777173Y287820D01*
X776127Y287387D01*
X774962Y288266D01*
X775059Y288999D01*
X774980Y289597D01*
X776131Y290586D01*
X795211D01*
X795697Y289413D01*
D02*
G37*
G36*
X149825Y226575D02*
X151397Y225526D01*
X152746Y225257D01*
X153202Y224070D01*
X153195Y223910D01*
X146130Y216845D01*
X145408Y215764D01*
X145154Y214488D01*
Y197869D01*
X139619Y192334D01*
X138103D01*
X137851Y193604D01*
X138530Y193885D01*
X139993Y195008D01*
X141115Y196470D01*
X141820Y198173D01*
X142060Y200000D01*
X141820Y201827D01*
X141115Y203530D01*
X139993Y204993D01*
X138530Y206115D01*
X138334Y206196D01*
Y221143D01*
X143857Y226666D01*
X149765D01*
X149825Y226575D01*
D02*
G37*
G36*
X848634Y186703D02*
X850000Y186431D01*
X862000D01*
X862737Y186578D01*
X871707D01*
X873292Y184993D01*
X872987Y184223D01*
X872645Y183844D01*
X871000Y184060D01*
X869173Y183820D01*
X867470Y183114D01*
X866008Y181992D01*
X864885Y180530D01*
X864180Y178827D01*
X863940Y177000D01*
X864180Y175173D01*
X864885Y173470D01*
X866008Y172008D01*
X867470Y170886D01*
X867666Y170804D01*
Y154260D01*
X866396Y153875D01*
X866358Y153933D01*
X855076Y165215D01*
X855375Y166080D01*
X855629Y166457D01*
X857327Y166680D01*
X859030Y167386D01*
X860492Y168508D01*
X861615Y169970D01*
X862320Y171673D01*
X862560Y173500D01*
X862320Y175327D01*
X861615Y177030D01*
X860492Y178493D01*
X859030Y179615D01*
X857327Y180320D01*
X855500Y180560D01*
X853673Y180320D01*
X851970Y179615D01*
X850508Y178493D01*
X849386Y177030D01*
X848680Y175327D01*
X848604Y174749D01*
X847334Y174832D01*
Y186045D01*
X848604Y186723D01*
X848634Y186703D01*
D02*
G37*
G36*
X243666Y203000D02*
X243920Y201724D01*
X244643Y200643D01*
X248643Y196642D01*
X249724Y195920D01*
X251000Y195666D01*
X267619D01*
X284681Y178604D01*
X284155Y177334D01*
X281196D01*
X281115Y177530D01*
X279993Y178993D01*
X278530Y180114D01*
X276827Y180820D01*
X275000Y181060D01*
X273173Y180820D01*
X271470Y180114D01*
X270008Y178993D01*
X268885Y177530D01*
X268180Y175827D01*
X267940Y174000D01*
X268180Y172173D01*
X268761Y170771D01*
X267751Y169945D01*
X267530Y170114D01*
X265827Y170820D01*
X264000Y171060D01*
X262173Y170820D01*
X260470Y170114D01*
X259008Y168992D01*
X257885Y167530D01*
X257180Y165827D01*
X256940Y164000D01*
X257180Y162173D01*
X257773Y160742D01*
X256848Y159870D01*
X256834Y159861D01*
X256530Y160094D01*
X254827Y160800D01*
X253000Y161040D01*
X251173Y160800D01*
X249470Y160094D01*
X248008Y158972D01*
X246886Y157510D01*
X246180Y155807D01*
X245940Y153980D01*
X246001Y153510D01*
X244799Y152916D01*
X242334Y155381D01*
Y202978D01*
X243009Y203368D01*
X243666Y203000D01*
D02*
G37*
G36*
X820754Y162551D02*
Y156856D01*
X820231Y156073D01*
X819922Y154520D01*
Y149480D01*
X820231Y147927D01*
X821111Y146611D01*
X822427Y145731D01*
X823980Y145422D01*
X830020D01*
X830796Y145576D01*
X832066Y144649D01*
Y143351D01*
X830796Y142424D01*
X830020Y142578D01*
X823980D01*
X822427Y142269D01*
X821111Y141389D01*
X820231Y140073D01*
X819922Y138520D01*
Y133480D01*
X820231Y131927D01*
X821111Y130611D01*
X821602Y130282D01*
X821742Y129835D01*
X821758Y128668D01*
X820885Y127530D01*
X820180Y125827D01*
X819940Y124000D01*
X820180Y122173D01*
X820885Y120470D01*
X822008Y119008D01*
X823470Y117886D01*
X825173Y117180D01*
X827000Y116940D01*
X828827Y117180D01*
X830530Y117886D01*
X831992Y119008D01*
X833114Y120470D01*
X833157Y120572D01*
X834665Y120894D01*
X835072Y120508D01*
X834940Y119500D01*
X835180Y117673D01*
X835885Y115970D01*
X837008Y114508D01*
X838185Y113604D01*
X837861Y112334D01*
X686259D01*
X658940Y139653D01*
X659426Y140826D01*
X729160D01*
X730436Y141080D01*
X731517Y141803D01*
X739493Y149778D01*
X740666Y149291D01*
Y131196D01*
X740470Y131115D01*
X739007Y129993D01*
X737886Y128530D01*
X737180Y126827D01*
X736940Y125000D01*
X737180Y123173D01*
X737886Y121470D01*
X739007Y120008D01*
X740470Y118885D01*
X742173Y118180D01*
X744000Y117940D01*
X745827Y118180D01*
X747530Y118885D01*
X748992Y120008D01*
X750115Y121470D01*
X750820Y123173D01*
X751060Y125000D01*
X750820Y126827D01*
X750115Y128530D01*
X748992Y129993D01*
X747530Y131115D01*
X747334Y131196D01*
Y136292D01*
X748507Y136778D01*
X758261Y127023D01*
X758180Y126827D01*
X757940Y125000D01*
X758180Y123173D01*
X758885Y121470D01*
X760007Y120008D01*
X761470Y118885D01*
X763173Y118180D01*
X765000Y117940D01*
X766827Y118180D01*
X768530Y118885D01*
X769992Y120008D01*
X771115Y121470D01*
X771820Y123173D01*
X772060Y125000D01*
X771820Y126827D01*
X771115Y128530D01*
X769992Y129993D01*
X768530Y131115D01*
X766827Y131820D01*
X766526Y131860D01*
Y133140D01*
X766827Y133180D01*
X768530Y133885D01*
X769992Y135008D01*
X771115Y136470D01*
X771820Y138173D01*
X772000Y139538D01*
X773291Y139942D01*
X774007Y139008D01*
X775470Y137886D01*
X777173Y137180D01*
X779000Y136940D01*
X780827Y137180D01*
X782530Y137886D01*
X783992Y139008D01*
X785115Y140470D01*
X785820Y142173D01*
X786060Y144000D01*
X785820Y145827D01*
X786815Y146744D01*
X787032Y146654D01*
X787730Y146562D01*
Y154000D01*
X790270D01*
Y146562D01*
X790968Y146654D01*
X791185Y146744D01*
X792180Y145827D01*
X791940Y144000D01*
X792180Y142173D01*
X792886Y140470D01*
X794008Y139008D01*
X795470Y137886D01*
X797173Y137180D01*
X799000Y136940D01*
X800827Y137180D01*
X802530Y137886D01*
X802652Y137979D01*
X803922Y137353D01*
Y133480D01*
X804231Y131927D01*
X805111Y130611D01*
X805602Y130282D01*
X805742Y129835D01*
X805758Y128668D01*
X804885Y127530D01*
X804180Y125827D01*
X803940Y124000D01*
X804180Y122173D01*
X804885Y120470D01*
X806008Y119008D01*
X807470Y117886D01*
X809173Y117180D01*
X811000Y116940D01*
X812827Y117180D01*
X814530Y117886D01*
X815992Y119008D01*
X817114Y120470D01*
X817820Y122173D01*
X818060Y124000D01*
X817820Y125827D01*
X817114Y127530D01*
X816242Y128668D01*
X816257Y129835D01*
X816398Y130282D01*
X816889Y130611D01*
X817769Y131927D01*
X818078Y133480D01*
Y138520D01*
X817769Y140073D01*
X816889Y141389D01*
X815573Y142269D01*
X814020Y142578D01*
X807980D01*
X807132Y142409D01*
X805979Y143381D01*
X806060Y144000D01*
X805979Y144619D01*
X807132Y145591D01*
X807980Y145422D01*
X814020D01*
X815573Y145731D01*
X816889Y146611D01*
X817769Y147927D01*
X818078Y149480D01*
Y154520D01*
X817769Y156073D01*
X817246Y156856D01*
Y162551D01*
X818516Y163528D01*
X819000Y163431D01*
X819484Y163528D01*
X820754Y162551D01*
D02*
G37*
G36*
X602768Y168213D02*
X603850Y167490D01*
X605126Y167236D01*
X662673D01*
X663949Y167490D01*
X665030Y168213D01*
X673684Y176866D01*
X686363D01*
X686794Y175596D01*
X686008Y174992D01*
X684885Y173530D01*
X684180Y171827D01*
X683940Y170000D01*
X684180Y168173D01*
X684885Y166470D01*
X686008Y165007D01*
X686533Y164604D01*
X686102Y163334D01*
X597381D01*
X575544Y185171D01*
X574462Y185894D01*
X573186Y186148D01*
X568196D01*
X568115Y186344D01*
X566992Y187806D01*
X566224Y188396D01*
X566655Y189666D01*
X581315D01*
X602768Y168213D01*
D02*
G37*
G36*
X860666Y149362D02*
Y131806D01*
X857598Y128739D01*
X857402Y128820D01*
X855575Y129060D01*
X853748Y128820D01*
X852045Y128115D01*
X850583Y126993D01*
X849461Y125530D01*
X848877Y124122D01*
X847980Y123847D01*
X847478Y123859D01*
X846992Y124493D01*
X845530Y125615D01*
X843827Y126320D01*
X842000Y126560D01*
X840173Y126320D01*
X839977Y126239D01*
X838734Y127481D01*
Y134340D01*
X840004Y134423D01*
X840180Y133085D01*
X840885Y131382D01*
X842008Y129920D01*
X843470Y128798D01*
X845173Y128092D01*
X847000Y127852D01*
X848827Y128092D01*
X850530Y128798D01*
X851638Y129648D01*
X852013Y129899D01*
X852264Y130274D01*
X853114Y131382D01*
X853820Y133085D01*
X854060Y134912D01*
X853820Y136739D01*
X853114Y138442D01*
X851992Y139904D01*
X850530Y141026D01*
X848827Y141732D01*
X847000Y141972D01*
X845352Y141755D01*
X844529Y142417D01*
X844314Y142647D01*
Y147946D01*
X845583Y148199D01*
X845885Y147470D01*
X847008Y146008D01*
X848470Y144886D01*
X850173Y144180D01*
X852000Y143940D01*
X853827Y144180D01*
X855530Y144886D01*
X856992Y146008D01*
X858114Y147470D01*
X858820Y149173D01*
X860174Y149731D01*
X860666Y149362D01*
D02*
G37*
G36*
X204245Y183922D02*
X206666D01*
Y138075D01*
X205396Y137822D01*
X205095Y138550D01*
X203972Y140013D01*
X202510Y141135D01*
X202314Y141216D01*
Y183069D01*
X203584Y184053D01*
X204245Y183922D01*
D02*
G37*
G36*
X877666Y172102D02*
Y123196D01*
X877470Y123115D01*
X876008Y121992D01*
X875604Y121467D01*
X874334Y121898D01*
Y170804D01*
X874530Y170886D01*
X875993Y172008D01*
X876396Y172533D01*
X877666Y172102D01*
D02*
G37*
G36*
X154008Y213496D02*
X153940Y212980D01*
X154180Y211153D01*
X154886Y209450D01*
X156008Y207987D01*
X157470Y206866D01*
X159173Y206160D01*
X161000Y205920D01*
X162827Y206160D01*
X164530Y206866D01*
X165993Y207987D01*
X167115Y209450D01*
X167204Y209666D01*
X170157D01*
Y208250D01*
X170526Y206397D01*
X171576Y204825D01*
X172821Y203993D01*
X172775Y202748D01*
X172736Y202639D01*
X171470Y202115D01*
X170008Y200992D01*
X168885Y199530D01*
X168180Y197827D01*
X167940Y196000D01*
X168180Y194173D01*
X168885Y192470D01*
X170008Y191007D01*
X171470Y189886D01*
X173173Y189180D01*
X175000Y188940D01*
X176827Y189180D01*
X178530Y189886D01*
X179993Y191007D01*
X181115Y192470D01*
X181406Y193174D01*
X182108Y193643D01*
X185357Y196892D01*
X186080Y197974D01*
X186334Y199250D01*
Y202978D01*
X187000Y203363D01*
X187666Y202978D01*
Y147381D01*
X184023Y143738D01*
X183827Y143820D01*
X182000Y144060D01*
X180173Y143820D01*
X178470Y143115D01*
X177008Y141993D01*
X175886Y140530D01*
X175180Y138827D01*
X174940Y137000D01*
X175180Y135173D01*
X175886Y133470D01*
X177008Y132008D01*
X178470Y130885D01*
X180173Y130180D01*
X182000Y129940D01*
X183827Y130180D01*
X185530Y130885D01*
X186992Y132008D01*
X188114Y133470D01*
X188820Y135173D01*
X189060Y137000D01*
X188820Y138827D01*
X188738Y139024D01*
X193358Y143643D01*
X194080Y144724D01*
X194334Y146000D01*
Y202980D01*
X194933Y203324D01*
X195646Y202923D01*
Y141216D01*
X195450Y141135D01*
X193988Y140013D01*
X192866Y138550D01*
X192160Y136847D01*
X191920Y135020D01*
X192160Y133193D01*
X192866Y131490D01*
X193988Y130028D01*
X195450Y128906D01*
X197153Y128200D01*
X198980Y127960D01*
X200807Y128200D01*
X202510Y128906D01*
X203972Y130028D01*
X205095Y131490D01*
X205396Y132218D01*
X206666Y131965D01*
Y113881D01*
X183114Y90329D01*
X177265D01*
X175698Y90017D01*
X174370Y89130D01*
X173604Y87983D01*
X172854Y88017D01*
X172334Y88194D01*
Y94177D01*
X179357Y101200D01*
X180080Y102282D01*
X180334Y103558D01*
Y108084D01*
X181073Y108231D01*
X182389Y109111D01*
X183183Y110299D01*
X183878Y110485D01*
X184589Y110553D01*
X185008Y110008D01*
X186470Y108885D01*
X188173Y108180D01*
X190000Y107940D01*
X191827Y108180D01*
X193530Y108885D01*
X194992Y110008D01*
X196115Y111470D01*
X196820Y113173D01*
X197060Y115000D01*
X196820Y116827D01*
X196115Y118530D01*
X194992Y119992D01*
X193530Y121115D01*
X191827Y121820D01*
X190000Y122060D01*
X188173Y121820D01*
X186470Y121115D01*
X185008Y119992D01*
X184589Y119447D01*
X183878Y119515D01*
X183183Y119701D01*
X182389Y120889D01*
X181073Y121769D01*
X179520Y122078D01*
X174480D01*
X172927Y121769D01*
X171611Y120889D01*
X170731Y119573D01*
X170422Y118020D01*
Y111980D01*
X170731Y110427D01*
X171611Y109111D01*
X172927Y108231D01*
X173666Y108084D01*
Y104939D01*
X166642Y97915D01*
X165920Y96834D01*
X165912Y96797D01*
X164618D01*
X164517Y97302D01*
X163630Y98630D01*
X162584Y99328D01*
Y107922D01*
X163520D01*
X165073Y108231D01*
X166389Y109111D01*
X167269Y110427D01*
X167578Y111980D01*
Y118020D01*
X167269Y119573D01*
X166389Y120889D01*
X165073Y121769D01*
X163520Y122078D01*
X158480D01*
X156927Y121769D01*
X155611Y120889D01*
X154731Y119573D01*
X154422Y118020D01*
Y111980D01*
X154731Y110427D01*
X155611Y109111D01*
X155916Y108907D01*
Y99829D01*
X154265D01*
X152698Y99517D01*
X151370Y98630D01*
X150839Y97834D01*
X148488D01*
X147212Y97580D01*
X146130Y96858D01*
X143076Y93803D01*
X142353Y92722D01*
X142348Y92694D01*
X141078Y92819D01*
Y95520D01*
X140769Y97073D01*
X139889Y98390D01*
X138573Y99269D01*
X137334Y99515D01*
Y176000D01*
X137080Y177276D01*
X136357Y178358D01*
X130222Y184493D01*
X130709Y185666D01*
X141000D01*
X142276Y185920D01*
X143358Y186642D01*
X150845Y194130D01*
X151568Y195212D01*
X151822Y196488D01*
Y213107D01*
X152805Y214090D01*
X154008Y213496D01*
D02*
G37*
G36*
X904470Y178346D02*
X904666Y178264D01*
Y107381D01*
X902800Y105515D01*
X901813Y106324D01*
X902080Y106724D01*
X902334Y108000D01*
Y178384D01*
X903604Y179010D01*
X904470Y178346D01*
D02*
G37*
G36*
X895666Y178923D02*
Y109381D01*
X889492Y103207D01*
X888945Y103284D01*
X888496Y104631D01*
X892357Y108492D01*
X893080Y109574D01*
X893334Y110850D01*
Y178804D01*
X893530Y178885D01*
X894396Y179550D01*
X895666Y178923D01*
D02*
G37*
G36*
X791080Y91586D02*
X804862D01*
X805489Y90316D01*
X804885Y89530D01*
X804804Y89334D01*
X680381D01*
X679276Y90439D01*
X679465Y91118D01*
X679845Y91666D01*
X790678D01*
X791080Y91586D01*
D02*
G37*
G36*
X676643Y83643D02*
X676668Y83383D01*
X663913Y70627D01*
X663190Y69546D01*
X662936Y68270D01*
Y64472D01*
X661797Y63910D01*
X661530Y64114D01*
X659827Y64820D01*
X658000Y65060D01*
X656173Y64820D01*
X655634Y64597D01*
X654578Y65302D01*
Y69020D01*
X654269Y70573D01*
X653389Y71889D01*
X652073Y72769D01*
X650520Y73078D01*
X645480D01*
X645333Y73049D01*
X644141Y74000D01*
X645333Y74951D01*
X645480Y74922D01*
X650520D01*
X652073Y75231D01*
X653389Y76111D01*
X654269Y77427D01*
X654578Y78980D01*
Y82698D01*
X655634Y83403D01*
X656173Y83180D01*
X658000Y82940D01*
X659827Y83180D01*
X661530Y83885D01*
X662992Y85008D01*
X664115Y86470D01*
X664820Y88173D01*
X665060Y90000D01*
X664820Y91827D01*
X664115Y93530D01*
X662992Y94992D01*
X661530Y96115D01*
X659827Y96820D01*
X658000Y97060D01*
X656173Y96820D01*
X655634Y96597D01*
X654578Y97302D01*
Y101020D01*
X654269Y102573D01*
X653389Y103889D01*
X652073Y104769D01*
X650520Y105078D01*
X646010D01*
X645319Y106173D01*
X645299Y106310D01*
X645531Y106666D01*
X653619D01*
X676643Y83643D01*
D02*
G37*
G36*
X344408Y134994D02*
X344964Y133632D01*
X344885Y133530D01*
X344180Y131827D01*
X343940Y130000D01*
X344180Y128173D01*
X344885Y126470D01*
X346007Y125007D01*
X347470Y123885D01*
X349173Y123180D01*
X351000Y122940D01*
X352827Y123180D01*
X354530Y123885D01*
X355992Y125007D01*
X357114Y126470D01*
X357196Y126666D01*
X388119D01*
X398620Y116165D01*
Y112503D01*
X398349Y112322D01*
X397244Y110668D01*
X396856Y108718D01*
Y99218D01*
X397244Y97267D01*
X398349Y95613D01*
X399258Y95005D01*
Y92408D01*
X399512Y91132D01*
X400235Y90050D01*
X428643Y61642D01*
X429724Y60920D01*
X431000Y60666D01*
X437792D01*
X438071Y59492D01*
X438052Y59396D01*
X436445Y58322D01*
X435340Y56669D01*
X434952Y54718D01*
Y45218D01*
X435340Y43267D01*
X436445Y41613D01*
X436716Y41432D01*
Y31631D01*
X430333Y25248D01*
X429991Y25299D01*
X429889Y25359D01*
X429077Y26719D01*
X429228Y27480D01*
Y33247D01*
X429707Y33727D01*
X430430Y34808D01*
X430684Y36084D01*
Y41432D01*
X430955Y41613D01*
X432060Y43267D01*
X432448Y45218D01*
Y54718D01*
X432060Y56669D01*
X430955Y58322D01*
X429301Y59427D01*
X427350Y59816D01*
X425399Y59427D01*
X423745Y58322D01*
X422640Y56669D01*
X422252Y54718D01*
Y45218D01*
X422640Y43267D01*
X423745Y41613D01*
X424016Y41432D01*
Y37578D01*
X420130D01*
X418577Y37269D01*
X417261Y36389D01*
X416381Y35073D01*
X416072Y33520D01*
Y27480D01*
X416381Y25927D01*
X416597Y25604D01*
X415918Y24334D01*
X413382D01*
X412703Y25604D01*
X412919Y25927D01*
X413228Y27480D01*
Y33520D01*
X412919Y35073D01*
X412039Y36389D01*
X410723Y37269D01*
X409170Y37578D01*
X405288D01*
Y41432D01*
X405559Y41613D01*
X406664Y43267D01*
X407052Y45218D01*
Y54718D01*
X406664Y56669D01*
X405559Y58322D01*
X403905Y59427D01*
X401954Y59816D01*
X400003Y59427D01*
X398349Y58322D01*
X397244Y56669D01*
X396856Y54718D01*
Y50834D01*
X390516D01*
X390269Y52073D01*
X389389Y53389D01*
X388073Y54269D01*
X386520Y54578D01*
X381480D01*
X379927Y54269D01*
X378611Y53389D01*
X377731Y52073D01*
X377422Y50520D01*
Y44480D01*
X377721Y42976D01*
X377604Y42814D01*
X376807Y42108D01*
X376768Y42082D01*
X375500Y42334D01*
X375284D01*
X374404Y43604D01*
X374578Y44480D01*
Y50520D01*
X374269Y52073D01*
X373389Y53389D01*
X372073Y54269D01*
X370520Y54578D01*
X365480D01*
X363927Y54269D01*
X362611Y53389D01*
X362425Y53111D01*
X361161Y52987D01*
X360171Y53976D01*
X360253Y54173D01*
X360493Y56000D01*
X360253Y57827D01*
X359547Y59530D01*
X358499Y60896D01*
X358579Y61316D01*
X358982Y62166D01*
X361484D01*
X361731Y60927D01*
X362611Y59611D01*
X363927Y58731D01*
X365480Y58422D01*
X370520D01*
X372073Y58731D01*
X373389Y59611D01*
X374269Y60927D01*
X374578Y62480D01*
Y68520D01*
X374269Y70073D01*
X373389Y71389D01*
X372073Y72269D01*
X370520Y72578D01*
X365480D01*
X363927Y72269D01*
X362611Y71389D01*
X361731Y70073D01*
X361484Y68834D01*
X357881D01*
X352489Y74226D01*
X352923Y75257D01*
X353063Y75448D01*
X354827Y75680D01*
X356530Y76385D01*
X357993Y77508D01*
X359114Y78970D01*
X359196Y79166D01*
X361484D01*
X361731Y77927D01*
X362611Y76611D01*
X363927Y75731D01*
X365480Y75422D01*
X370520D01*
X372073Y75731D01*
X373389Y76611D01*
X374269Y77927D01*
X374578Y79480D01*
Y85520D01*
X374269Y87073D01*
X373389Y88389D01*
X372073Y89269D01*
X370520Y89578D01*
X365480D01*
X363927Y89269D01*
X362611Y88389D01*
X361731Y87073D01*
X361484Y85834D01*
X359196D01*
X359114Y86030D01*
X357993Y87492D01*
X356530Y88615D01*
X354827Y89320D01*
X353000Y89560D01*
X351173Y89320D01*
X349470Y88615D01*
X348008Y87492D01*
X346885Y86030D01*
X346180Y84327D01*
X345948Y82563D01*
X345757Y82423D01*
X344726Y81989D01*
X340334Y86381D01*
Y131619D01*
X343796Y135081D01*
X344408Y134994D01*
D02*
G37*
G36*
X333666Y124897D02*
Y85000D01*
X333920Y83724D01*
X334642Y82642D01*
X353000Y64284D01*
X352545Y62944D01*
X351605Y62820D01*
X349903Y62115D01*
X348440Y60992D01*
X347318Y59530D01*
X346613Y57827D01*
X346372Y56000D01*
X346613Y54173D01*
X347318Y52470D01*
X348440Y51007D01*
X349903Y49886D01*
X351605Y49180D01*
X353433Y48940D01*
X355260Y49180D01*
X355456Y49261D01*
X359575Y45142D01*
X360657Y44420D01*
X360686Y44414D01*
X361025Y43476D01*
X360227Y42334D01*
X349381D01*
X329334Y62381D01*
Y121804D01*
X329530Y121885D01*
X330993Y123008D01*
X332114Y124470D01*
X332396Y125149D01*
X333666Y124897D01*
D02*
G37*
G36*
X397244Y43267D02*
X398349Y41613D01*
X398620Y41432D01*
Y36080D01*
X398874Y34804D01*
X399597Y33723D01*
X400072Y33247D01*
Y27480D01*
X400381Y25927D01*
X400597Y25604D01*
X399918Y24334D01*
X394381D01*
X390578Y28137D01*
Y33020D01*
X390269Y34573D01*
X389389Y35889D01*
X388073Y36769D01*
X386520Y37078D01*
X382137D01*
X379742Y39473D01*
X380368Y40643D01*
X381480Y40422D01*
X386520D01*
X388073Y40731D01*
X389389Y41611D01*
X390269Y42927D01*
X390516Y44166D01*
X397065D01*
X397244Y43267D01*
D02*
G37*
%LPC*%
G36*
X347827Y393698D02*
X338327D01*
X336376Y393310D01*
X334723Y392205D01*
X334099Y391272D01*
X317713D01*
X316967Y392389D01*
X315650Y393269D01*
X314097Y393578D01*
X308057D01*
X306504Y393269D01*
X305188Y392389D01*
X304308Y391073D01*
X304161Y390334D01*
X299993D01*
X299846Y391073D01*
X298967Y392389D01*
X297650Y393269D01*
X296097Y393578D01*
X290057D01*
X288504Y393269D01*
X287188Y392389D01*
X286308Y391073D01*
X285999Y389520D01*
Y384480D01*
X286308Y382927D01*
X287188Y381610D01*
X288504Y380731D01*
X290057Y380422D01*
X296097D01*
X297650Y380731D01*
X298967Y381610D01*
X299846Y382927D01*
X299993Y383666D01*
X304161D01*
X304308Y382927D01*
X305188Y381610D01*
X306504Y380731D01*
X308057Y380422D01*
X314097D01*
X315650Y380731D01*
X316967Y381610D01*
X317846Y382927D01*
X318155Y384480D01*
Y384604D01*
X335308D01*
X336376Y383890D01*
X338327Y383502D01*
X347827D01*
X349778Y383890D01*
X351432Y384995D01*
X352537Y386649D01*
X352925Y388600D01*
X352537Y390551D01*
X351432Y392205D01*
X349778Y393310D01*
X347827Y393698D01*
D02*
G37*
G36*
Y380998D02*
X338327D01*
X336376Y380610D01*
X334723Y379505D01*
X334542Y379234D01*
X316862D01*
X315586Y378980D01*
X314504Y378257D01*
X313824Y377578D01*
X308057D01*
X306504Y377269D01*
X305188Y376389D01*
X304308Y375073D01*
X303999Y373520D01*
Y368480D01*
X304308Y366927D01*
X305188Y365611D01*
X306504Y364731D01*
X308057Y364422D01*
X314097D01*
X315650Y364731D01*
X316967Y365611D01*
X317846Y366927D01*
X318155Y368480D01*
Y372479D01*
X318243Y372566D01*
X334542D01*
X334723Y372295D01*
X336376Y371190D01*
X338327Y370802D01*
X347827D01*
X349778Y371190D01*
X351432Y372295D01*
X352537Y373949D01*
X352925Y375900D01*
X352537Y377851D01*
X351432Y379505D01*
X349778Y380610D01*
X347827Y380998D01*
D02*
G37*
G36*
X216270Y351438D02*
Y345270D01*
X222438D01*
X222346Y345968D01*
X221586Y347803D01*
X220378Y349378D01*
X218803Y350586D01*
X216968Y351346D01*
X216270Y351438D01*
D02*
G37*
G36*
X573000Y443747D02*
X570063Y443360D01*
X567326Y442227D01*
X564976Y440424D01*
X563173Y438074D01*
X562039Y435337D01*
X561653Y432400D01*
X562039Y429463D01*
X563173Y426726D01*
X564976Y424376D01*
X567326Y422573D01*
X570063Y421440D01*
X573000Y421053D01*
X575937Y421440D01*
X578674Y422573D01*
X581024Y424376D01*
X582827Y426726D01*
X583506Y428366D01*
X594422D01*
Y427980D01*
X594731Y426427D01*
X595611Y425111D01*
X596927Y424231D01*
X598480Y423922D01*
X603520D01*
X605073Y424231D01*
X606389Y425111D01*
X607269Y426427D01*
X607578Y427980D01*
Y434020D01*
X607269Y435573D01*
X606389Y436889D01*
X605073Y437769D01*
X603520Y438078D01*
X598480D01*
X596927Y437769D01*
X595611Y436889D01*
X594731Y435573D01*
X594624Y435034D01*
X584000D01*
X583960Y435337D01*
X582827Y438074D01*
X581024Y440424D01*
X578674Y442227D01*
X575937Y443360D01*
X573000Y443747D01*
D02*
G37*
G36*
X603520Y422078D02*
X598480D01*
X596927Y421769D01*
X595611Y420889D01*
X594731Y419573D01*
X594484Y418334D01*
X583470D01*
X582194Y418080D01*
X581112Y417357D01*
X579753Y415998D01*
X578674Y416827D01*
X575937Y417960D01*
X573000Y418347D01*
X570063Y417960D01*
X567326Y416827D01*
X564976Y415024D01*
X563173Y412673D01*
X562039Y409937D01*
X561653Y407000D01*
X562039Y404063D01*
X563173Y401326D01*
X564976Y398976D01*
X567326Y397173D01*
X570063Y396040D01*
X573000Y395653D01*
X575937Y396040D01*
X578674Y397173D01*
X579684Y397949D01*
X580727Y397148D01*
X580180Y395827D01*
X579940Y394000D01*
X580180Y392173D01*
X580363Y391731D01*
X579320Y390931D01*
X578674Y391427D01*
X575937Y392560D01*
X573000Y392947D01*
X570063Y392560D01*
X567326Y391427D01*
X564976Y389624D01*
X563173Y387273D01*
X562039Y384537D01*
X561653Y381600D01*
X562039Y378663D01*
X563173Y375927D01*
X564976Y373576D01*
X567326Y371773D01*
X570063Y370640D01*
X573000Y370253D01*
X575937Y370640D01*
X578674Y371773D01*
X581024Y373576D01*
X582827Y375927D01*
X583960Y378663D01*
X584000Y378966D01*
X594624D01*
X594731Y378427D01*
X595611Y377111D01*
X596927Y376231D01*
X598480Y375922D01*
X603520D01*
X605073Y376231D01*
X606389Y377111D01*
X607269Y378427D01*
X607578Y379980D01*
Y386020D01*
X607269Y387573D01*
X606389Y388889D01*
X605073Y389769D01*
X603520Y390078D01*
X598480D01*
X596927Y389769D01*
X595611Y388889D01*
X594731Y387573D01*
X594422Y386020D01*
Y385634D01*
X583629D01*
X583162Y386762D01*
X584047Y387646D01*
X585173Y387180D01*
X587000Y386940D01*
X588827Y387180D01*
X590530Y387886D01*
X591992Y389008D01*
X593115Y390470D01*
X593820Y392173D01*
X593966Y393285D01*
X595288Y393594D01*
X595611Y393111D01*
X596927Y392231D01*
X598480Y391922D01*
X603520D01*
X605073Y392231D01*
X606389Y393111D01*
X607269Y394427D01*
X607578Y395980D01*
Y402020D01*
X607269Y403573D01*
X606389Y404889D01*
X605073Y405769D01*
X603520Y406078D01*
X598480D01*
X596927Y405769D01*
X595611Y404889D01*
X594731Y403573D01*
X594422Y402020D01*
Y401005D01*
X592690D01*
X591414Y400752D01*
X590487Y400132D01*
X588827Y400820D01*
X587000Y401060D01*
X585173Y400820D01*
X583470Y400115D01*
X582632Y401072D01*
X582827Y401326D01*
X583960Y404063D01*
X584347Y407000D01*
X583960Y409937D01*
X583715Y410530D01*
X584851Y411666D01*
X594484D01*
X594731Y410427D01*
X595611Y409111D01*
X596927Y408231D01*
X598480Y407922D01*
X603520D01*
X605073Y408231D01*
X606389Y409111D01*
X607269Y410427D01*
X607578Y411980D01*
Y418020D01*
X607269Y419573D01*
X606389Y420889D01*
X605073Y421769D01*
X603520Y422078D01*
D02*
G37*
G36*
X780730Y425730D02*
X776871D01*
Y417500D01*
X777223Y415729D01*
X778227Y414227D01*
X779729Y413223D01*
X780730Y413024D01*
Y425730D01*
D02*
G37*
G36*
X766129Y426730D02*
X754770D01*
Y412871D01*
X761500D01*
X763271Y413223D01*
X764773Y414227D01*
X765777Y415729D01*
X766129Y417500D01*
Y426730D01*
D02*
G37*
G36*
X752230D02*
X740871D01*
Y417500D01*
X741223Y415729D01*
X742227Y414227D01*
X743729Y413223D01*
X745500Y412871D01*
X752230D01*
Y426730D01*
D02*
G37*
G36*
X769730Y402629D02*
X768245D01*
X766476Y402277D01*
X764975Y401274D01*
X764200Y400115D01*
X763073Y399688D01*
X762653Y399648D01*
X760968Y400346D01*
X760270Y400438D01*
Y393000D01*
Y385562D01*
X760968Y385654D01*
X762803Y386414D01*
X764378Y387622D01*
X765140Y388616D01*
X766476Y387723D01*
X768245Y387371D01*
X769730D01*
Y395000D01*
Y402629D01*
D02*
G37*
G36*
X757730Y400438D02*
X757032Y400346D01*
X755198Y399586D01*
X754027Y398688D01*
X752471Y398730D01*
X752274Y399025D01*
X750775Y400027D01*
X749005Y400379D01*
X747270D01*
Y393000D01*
Y385621D01*
X749005D01*
X750775Y385973D01*
X752274Y386976D01*
X752471Y387270D01*
X754027Y387312D01*
X755198Y386414D01*
X757032Y385654D01*
X757730Y385562D01*
Y393000D01*
Y400438D01*
D02*
G37*
G36*
X773755Y402629D02*
X772270D01*
Y396270D01*
X778379D01*
Y398005D01*
X778027Y399775D01*
X777025Y401274D01*
X775525Y402277D01*
X773755Y402629D01*
D02*
G37*
G36*
X548000Y418347D02*
X545063Y417960D01*
X542326Y416827D01*
X539976Y415024D01*
X538173Y412673D01*
X537039Y409937D01*
X536653Y407000D01*
X537039Y404063D01*
X538173Y401326D01*
X539976Y398976D01*
X542326Y397173D01*
X545063Y396040D01*
X548000Y395653D01*
X550937Y396040D01*
X553674Y397173D01*
X556024Y398976D01*
X557827Y401326D01*
X558960Y404063D01*
X559347Y407000D01*
X558960Y409937D01*
X557827Y412673D01*
X556024Y415024D01*
X553674Y416827D01*
X550937Y417960D01*
X548000Y418347D01*
D02*
G37*
G36*
X523000D02*
X520063Y417960D01*
X517326Y416827D01*
X514976Y415024D01*
X513173Y412673D01*
X512039Y409937D01*
X511653Y407000D01*
X512039Y404063D01*
X513173Y401326D01*
X514976Y398976D01*
X517326Y397173D01*
X520063Y396040D01*
X523000Y395653D01*
X525937Y396040D01*
X528674Y397173D01*
X531024Y398976D01*
X532827Y401326D01*
X533960Y404063D01*
X534347Y407000D01*
X533960Y409937D01*
X532827Y412673D01*
X531024Y415024D01*
X528674Y416827D01*
X525937Y417960D01*
X523000Y418347D01*
D02*
G37*
G36*
X744730Y400379D02*
X742995D01*
X741226Y400027D01*
X739725Y399025D01*
X738723Y397524D01*
X738371Y395755D01*
Y394270D01*
X744730D01*
Y400379D01*
D02*
G37*
G36*
X778379Y393730D02*
X772270D01*
Y387371D01*
X773755D01*
X775525Y387723D01*
X777025Y388726D01*
X778027Y390225D01*
X778379Y391995D01*
Y393730D01*
D02*
G37*
G36*
X744730Y391730D02*
X738371D01*
Y390245D01*
X738723Y388475D01*
X739725Y386976D01*
X741226Y385973D01*
X742995Y385621D01*
X744730D01*
Y391730D01*
D02*
G37*
G36*
X523000Y392947D02*
X520063Y392560D01*
X517326Y391427D01*
X514976Y389624D01*
X513173Y387273D01*
X512039Y384537D01*
X511653Y381600D01*
X512039Y378663D01*
X513173Y375927D01*
X514976Y373576D01*
X517326Y371773D01*
X520063Y370640D01*
X523000Y370253D01*
X525937Y370640D01*
X528674Y371773D01*
X531024Y373576D01*
X532827Y375927D01*
X533960Y378663D01*
X534347Y381600D01*
X533960Y384537D01*
X532827Y387273D01*
X531024Y389624D01*
X528674Y391427D01*
X525937Y392560D01*
X523000Y392947D01*
D02*
G37*
G36*
X423097Y458578D02*
X417057D01*
X415504Y458269D01*
X414188Y457389D01*
X413308Y456073D01*
X413171Y455384D01*
X405646D01*
X405432Y455705D01*
X403778Y456810D01*
X401827Y457198D01*
X392327D01*
X390376Y456810D01*
X388722Y455705D01*
X387617Y454051D01*
X387229Y452100D01*
X387617Y450149D01*
X388722Y448495D01*
X390376Y447390D01*
X392327Y447002D01*
X401827D01*
X403778Y447390D01*
X405432Y448495D01*
X405580Y448716D01*
X413151D01*
X413308Y447927D01*
X414188Y446610D01*
X415504Y445731D01*
X417057Y445422D01*
X423097D01*
X424650Y445731D01*
X425967Y446610D01*
X426846Y447927D01*
X427155Y449480D01*
Y454520D01*
X426846Y456073D01*
X425967Y457389D01*
X424650Y458269D01*
X423097Y458578D01*
D02*
G37*
G36*
X452270Y421438D02*
Y415270D01*
X458438D01*
X458346Y415968D01*
X457586Y417803D01*
X456378Y419378D01*
X454803Y420586D01*
X452968Y421346D01*
X452270Y421438D01*
D02*
G37*
G36*
X437807Y412730D02*
X431949D01*
Y410980D01*
X432300Y409216D01*
X433299Y407721D01*
X434794Y406722D01*
X436557Y406371D01*
X437807D01*
Y412730D01*
D02*
G37*
G36*
X422097Y381578D02*
X416057D01*
X414504Y381269D01*
X413188Y380389D01*
X412308Y379073D01*
X412251Y378784D01*
X405914D01*
X405432Y379505D01*
X403778Y380610D01*
X401827Y380998D01*
X392327D01*
X390376Y380610D01*
X388722Y379505D01*
X387617Y377851D01*
X387229Y375900D01*
X387617Y373949D01*
X388722Y372295D01*
X390376Y371190D01*
X392327Y370802D01*
X401827D01*
X403778Y371190D01*
X405164Y372116D01*
X412072D01*
X412308Y370927D01*
X413188Y369610D01*
X414504Y368731D01*
X416057Y368422D01*
X422097D01*
X423650Y368731D01*
X424967Y369610D01*
X425846Y370927D01*
X426155Y372480D01*
Y377520D01*
X425846Y379073D01*
X424967Y380389D01*
X423650Y381269D01*
X422097Y381578D01*
D02*
G37*
G36*
X103730Y332438D02*
X103032Y332346D01*
X101198Y331586D01*
X99622Y330378D01*
X98414Y328802D01*
X97654Y326968D01*
X97562Y326270D01*
X103730D01*
Y332438D01*
D02*
G37*
G36*
X122379Y324230D02*
X117770D01*
Y317628D01*
X119512Y317974D01*
X121019Y318981D01*
X122026Y320488D01*
X122379Y322265D01*
Y324230D01*
D02*
G37*
G36*
X103730Y323730D02*
X97562D01*
X97654Y323032D01*
X98414Y321198D01*
X99622Y319622D01*
X101198Y318414D01*
X103032Y317654D01*
X103730Y317562D01*
Y323730D01*
D02*
G37*
G36*
X34005Y304379D02*
X32270D01*
Y298270D01*
X38629D01*
Y299755D01*
X38277Y301524D01*
X37275Y303025D01*
X35775Y304027D01*
X34005Y304379D01*
D02*
G37*
G36*
X38629Y295730D02*
X32270D01*
Y289621D01*
X34005D01*
X35775Y289973D01*
X37275Y290975D01*
X38277Y292475D01*
X38629Y294245D01*
Y295730D01*
D02*
G37*
G36*
X136164Y285438D02*
X135465Y285346D01*
X133631Y284586D01*
X132835Y283975D01*
X131274Y284025D01*
X129775Y285027D01*
X128005Y285379D01*
X126270D01*
Y278000D01*
Y270621D01*
X128005D01*
X129775Y270973D01*
X131274Y271975D01*
X132835Y272025D01*
X133631Y271414D01*
X135465Y270654D01*
X136164Y270562D01*
Y278000D01*
Y285438D01*
D02*
G37*
G36*
X138704D02*
Y279270D01*
X144872D01*
X144780Y279968D01*
X144020Y281803D01*
X142811Y283378D01*
X141236Y284586D01*
X139402Y285346D01*
X138704Y285438D01*
D02*
G37*
G36*
X123730Y285379D02*
X121995D01*
X120225Y285027D01*
X118726Y284025D01*
X117723Y282525D01*
X117371Y280755D01*
Y279270D01*
X123730D01*
Y285379D01*
D02*
G37*
G36*
Y276730D02*
X117371D01*
Y275245D01*
X117723Y273475D01*
X118726Y271975D01*
X120225Y270973D01*
X121995Y270621D01*
X123730D01*
Y276730D01*
D02*
G37*
G36*
X144872D02*
X138704D01*
Y270562D01*
X139402Y270654D01*
X141236Y271414D01*
X142811Y272622D01*
X144020Y274198D01*
X144780Y276032D01*
X144872Y276730D01*
D02*
G37*
G36*
X81270Y279725D02*
Y269270D01*
X91725D01*
X91487Y271078D01*
X90299Y273946D01*
X88409Y276409D01*
X85946Y278298D01*
X83078Y279487D01*
X81270Y279725D01*
D02*
G37*
G36*
X78730D02*
X76922Y279487D01*
X74054Y278298D01*
X71591Y276409D01*
X69701Y273946D01*
X68513Y271078D01*
X68275Y269270D01*
X78730D01*
Y279725D01*
D02*
G37*
G36*
Y266730D02*
X68275D01*
X68513Y264922D01*
X69701Y262054D01*
X71591Y259591D01*
X74054Y257701D01*
X76922Y256514D01*
X78730Y256276D01*
Y266730D01*
D02*
G37*
G36*
X91725D02*
X81270D01*
Y256276D01*
X83078Y256514D01*
X85946Y257701D01*
X88409Y259591D01*
X90299Y262054D01*
X91487Y264922D01*
X91725Y266730D01*
D02*
G37*
G36*
X622730Y263730D02*
X616562D01*
X616654Y263032D01*
X617414Y261197D01*
X618622Y259622D01*
X620197Y258414D01*
X622032Y257654D01*
X622730Y257562D01*
Y263730D01*
D02*
G37*
G36*
X645379Y263730D02*
X639270D01*
Y257371D01*
X640755D01*
X642524Y257723D01*
X644025Y258725D01*
X645027Y260226D01*
X645379Y261995D01*
Y263730D01*
D02*
G37*
G36*
X370520Y108578D02*
X365480D01*
X363927Y108269D01*
X362611Y107389D01*
X361731Y106073D01*
X361484Y104834D01*
X358196D01*
X358115Y105030D01*
X356992Y106492D01*
X355530Y107614D01*
X353827Y108320D01*
X352000Y108560D01*
X350173Y108320D01*
X348470Y107614D01*
X347008Y106492D01*
X345886Y105030D01*
X345180Y103327D01*
X344940Y101500D01*
X345180Y99673D01*
X345886Y97970D01*
X347008Y96508D01*
X348470Y95386D01*
X350173Y94680D01*
X352000Y94440D01*
X353827Y94680D01*
X355530Y95386D01*
X356992Y96508D01*
X358115Y97970D01*
X358196Y98166D01*
X361484D01*
X361731Y96927D01*
X362611Y95611D01*
X363927Y94731D01*
X365480Y94422D01*
X370520D01*
X372073Y94731D01*
X373389Y95611D01*
X374269Y96927D01*
X374578Y98480D01*
Y104520D01*
X374269Y106073D01*
X373389Y107389D01*
X372073Y108269D01*
X370520Y108578D01*
D02*
G37*
G36*
X386520D02*
X381480D01*
X379927Y108269D01*
X378611Y107389D01*
X377731Y106073D01*
X377422Y104520D01*
Y98480D01*
X377731Y96927D01*
X378611Y95611D01*
X379927Y94731D01*
X380666Y94584D01*
Y89416D01*
X379927Y89269D01*
X378611Y88389D01*
X377731Y87073D01*
X377422Y85520D01*
Y79480D01*
X377731Y77927D01*
X378611Y76611D01*
X379927Y75731D01*
X380666Y75584D01*
Y72416D01*
X379927Y72269D01*
X378611Y71389D01*
X377731Y70073D01*
X377422Y68520D01*
Y62480D01*
X377731Y60927D01*
X378611Y59611D01*
X379927Y58731D01*
X381480Y58422D01*
X386520D01*
X388073Y58731D01*
X389389Y59611D01*
X390269Y60927D01*
X390516Y62166D01*
X408619D01*
X411124Y59661D01*
X411045Y58322D01*
X409940Y56669D01*
X409552Y54718D01*
Y45218D01*
X409940Y43267D01*
X411045Y41613D01*
X412699Y40508D01*
X414650Y40120D01*
X416601Y40508D01*
X418255Y41613D01*
X419360Y43267D01*
X419748Y45218D01*
Y54718D01*
X419360Y56669D01*
X418255Y58322D01*
X417984Y58503D01*
Y60850D01*
X417730Y62126D01*
X417007Y63208D01*
X412357Y67857D01*
X411276Y68580D01*
X410000Y68834D01*
X390516D01*
X390269Y70073D01*
X389389Y71389D01*
X388073Y72269D01*
X387334Y72416D01*
Y75584D01*
X388073Y75731D01*
X389389Y76611D01*
X390269Y77927D01*
X390578Y79480D01*
Y85520D01*
X390269Y87073D01*
X389389Y88389D01*
X388073Y89269D01*
X387334Y89416D01*
Y94584D01*
X388073Y94731D01*
X389389Y95611D01*
X390269Y96927D01*
X390578Y98480D01*
Y104520D01*
X390269Y106073D01*
X389389Y107389D01*
X388073Y108269D01*
X386520Y108578D01*
D02*
G37*
%LPD*%
G36*
X484142Y117642D02*
X485224Y116920D01*
X486500Y116666D01*
X501019D01*
X513009Y104676D01*
X512040Y102337D01*
X511653Y99400D01*
X512040Y96463D01*
X513173Y93727D01*
X514976Y91376D01*
X515393Y91057D01*
X514985Y89854D01*
X500676D01*
X500594Y90050D01*
X499472Y91512D01*
X498010Y92634D01*
X496307Y93340D01*
X494480Y93580D01*
X492653Y93340D01*
X490950Y92634D01*
X489487Y91512D01*
X488366Y90050D01*
X487660Y88347D01*
X487420Y86520D01*
X487660Y84693D01*
X487902Y84109D01*
X486825Y83390D01*
X480578Y89637D01*
Y94520D01*
X480269Y96073D01*
X479389Y97389D01*
X478073Y98269D01*
X476520Y98578D01*
X471480D01*
X470542Y98391D01*
X469984Y98807D01*
X469561Y99295D01*
X469887Y100260D01*
X470604Y100596D01*
X471480Y100422D01*
X476520D01*
X478073Y100731D01*
X479389Y101611D01*
X480269Y102927D01*
X480516Y104166D01*
X486804D01*
X486885Y103970D01*
X488008Y102507D01*
X489470Y101385D01*
X491173Y100680D01*
X493000Y100440D01*
X494827Y100680D01*
X496530Y101385D01*
X497993Y102507D01*
X499114Y103970D01*
X499820Y105673D01*
X500060Y107500D01*
X499820Y109327D01*
X499114Y111030D01*
X497993Y112492D01*
X496530Y113615D01*
X494827Y114320D01*
X493000Y114560D01*
X491173Y114320D01*
X489470Y113615D01*
X488008Y112492D01*
X486885Y111030D01*
X486804Y110834D01*
X480516D01*
X480269Y112073D01*
X479389Y113389D01*
X478073Y114269D01*
X476520Y114578D01*
X471480D01*
X470604Y114404D01*
X469887Y114740D01*
X469561Y115705D01*
X469984Y116193D01*
X470542Y116609D01*
X471480Y116422D01*
X476520D01*
X478073Y116731D01*
X479389Y117611D01*
X480269Y118927D01*
X480462Y119894D01*
X481735Y120050D01*
X484142Y117642D01*
D02*
G37*
D14*
X819000Y312000D02*
Y327000D01*
Y307000D02*
Y312000D01*
X775659Y293920D02*
X818761D01*
X778384Y298460D02*
X816880D01*
X823301D02*
X837880D01*
X818761Y293920D02*
X823301Y298460D01*
X821421Y303000D02*
X836000D01*
X816880Y298460D02*
X821421Y303000D01*
X815000D02*
X819000Y307000D01*
X790500Y303000D02*
X815000D01*
X829000Y312000D02*
X836000D01*
X819000D02*
X829000D01*
X836000D02*
X840000Y316000D01*
X813374Y289380D02*
X819754Y283000D01*
X800380Y289380D02*
X813374D01*
X839074Y289770D02*
X855770D01*
X832304Y283000D02*
X839074Y289770D01*
X855770D02*
X856000Y290000D01*
X819754Y283000D02*
X832304D01*
X804000Y318000D02*
X807570Y314430D01*
X804000Y318000D02*
Y327000D01*
X794000Y314000D02*
X796000Y312000D01*
X794000Y314000D02*
Y327000D01*
X798000Y341500D02*
X799000Y340500D01*
Y327000D02*
Y340500D01*
X788500Y342000D02*
X789000Y341500D01*
Y327000D02*
Y341500D01*
X762000Y303000D02*
X773844D01*
X778384Y298460D01*
X811190Y373690D02*
Y381810D01*
X809000Y327000D02*
Y345000D01*
X802000Y352000D02*
X809000Y345000D01*
X802000Y352000D02*
Y372750D01*
X787375Y306125D02*
X790500Y303000D01*
X787375Y306125D02*
Y312861D01*
X784088Y316148D02*
X787375Y312861D01*
X771120Y298460D02*
X775659Y293920D01*
X794000Y283000D02*
X800380Y289380D01*
X763000Y286000D02*
X769000Y292000D01*
X768000Y310540D02*
X778000D01*
X765460Y298460D02*
X771120D01*
X784088Y316148D02*
Y326912D01*
X718000Y293000D02*
X718000Y293000D01*
X718000Y293000D02*
Y301746D01*
X709834Y309912D02*
X718000Y301746D01*
X702088Y309912D02*
X709834D01*
X702000Y310000D02*
X702088Y309912D01*
X716981Y278000D02*
X719000D01*
X714981Y280000D02*
X716981Y278000D01*
X702000Y280000D02*
X714981D01*
X733000Y268000D02*
Y293239D01*
X710239Y316000D02*
X733000Y293239D01*
X698000Y316000D02*
X710239D01*
X712000Y321000D02*
X744000Y289000D01*
X715000Y260000D02*
X719000Y264000D01*
X702000Y260000D02*
X715000D01*
X878000Y332539D02*
Y371000D01*
X861461Y316000D02*
X878000Y332539D01*
X840000Y316000D02*
X861461D01*
X868000Y343000D02*
X869000Y344000D01*
X835834Y343000D02*
X868000D01*
X829088Y336254D02*
X835834Y343000D01*
X829088Y327088D02*
Y336254D01*
X829000Y327000D02*
X829088Y327088D01*
X853912Y338088D02*
X859000Y333000D01*
X837342Y338088D02*
X853912D01*
X834088Y334834D02*
X837342Y338088D01*
X834088Y327088D02*
Y334834D01*
X834000Y327000D02*
X834088Y327088D01*
X799000Y193609D02*
Y200141D01*
X803000Y204141D01*
Y209000D01*
X838000Y352000D02*
Y355500D01*
X824088Y338088D02*
X838000Y352000D01*
Y355500D02*
X862000D01*
X836000Y303000D02*
X843000Y310000D01*
X856000D01*
X844420Y305000D02*
X856000D01*
X837880Y298460D02*
X844420Y305000D01*
X799000Y193609D02*
X804000Y188609D01*
Y173000D02*
Y188609D01*
X825824Y188000D02*
X831998D01*
X809000Y173000D02*
Y197540D01*
X794000Y215437D02*
X801000Y222437D01*
X794000Y191850D02*
Y215437D01*
Y191850D02*
X799000Y186850D01*
X789000Y227000D02*
X794000Y232000D01*
X789000Y188500D02*
Y227000D01*
X794000Y173000D02*
Y183500D01*
X789000Y188500D02*
X794000Y183500D01*
X804000Y234000D02*
Y253000D01*
Y234000D02*
X812000Y226000D01*
Y212000D02*
Y226000D01*
Y212000D02*
X827270Y196730D01*
X799000Y173000D02*
Y186850D01*
X827270Y196730D02*
X839130D01*
X822824Y185000D02*
X825824Y188000D01*
X818912Y181088D02*
X822824Y185000D01*
X839130Y196730D02*
X847400Y205000D01*
X840980Y140933D02*
X849656Y132256D01*
X840980Y140933D02*
Y158020D01*
X848000Y155000D02*
X853000Y150000D01*
X844000Y171575D02*
X864000Y151575D01*
Y130425D02*
Y151575D01*
X855575Y122000D02*
X864000Y130425D01*
X848000Y155000D02*
Y158000D01*
X839000Y167000D02*
X848000Y158000D01*
X839000Y167000D02*
Y173000D01*
X834088Y164912D02*
X840980Y158020D01*
X834088Y164912D02*
Y172912D01*
X835400Y126100D02*
Y156600D01*
X829088Y162912D02*
X835400Y156600D01*
X829088Y162912D02*
Y172912D01*
X835400Y126100D02*
X842000Y119500D01*
X844000Y171575D02*
Y191412D01*
X834000Y173000D02*
X834088Y172912D01*
X842000Y116119D02*
Y119500D01*
X829000Y173000D02*
X829088Y172912D01*
X818912Y173088D02*
Y181088D01*
Y173088D02*
X819000Y173000D01*
X728080Y191543D02*
X737000Y200463D01*
X718000Y225000D02*
X731540Y211460D01*
Y201424D02*
Y211460D01*
X723540Y193424D02*
X731540Y201424D01*
X719000Y195304D02*
X727000Y203304D01*
X719000Y193000D02*
Y195304D01*
X723540Y191119D02*
Y193424D01*
X712620Y180200D02*
X723540Y191119D01*
X728080Y189239D02*
Y191543D01*
X724000Y185159D02*
X728080Y189239D01*
X724000Y173000D02*
Y185159D01*
X711000Y185000D02*
X719000Y193000D01*
X727000Y203304D02*
Y209520D01*
X738000Y188120D02*
X746642Y196762D01*
Y222437D01*
X739080Y230000D02*
X746642Y222437D01*
X702000Y230000D02*
X739080D01*
X753000Y190000D02*
Y222500D01*
X740500Y235000D02*
X753000Y222500D01*
X702000Y235000D02*
X740500D01*
X753000Y236000D02*
X758000Y231000D01*
X737000Y200463D02*
Y219761D01*
X716520Y220000D02*
X727000Y209520D01*
X226491Y243509D02*
X226491Y243509D01*
X225000Y242019D02*
X226491Y243509D01*
X682000Y220240D02*
X687240Y215000D01*
X702000D01*
X666059Y210000D02*
X702000D01*
X758000Y299000D02*
X762000Y303000D01*
X755696Y299000D02*
X758000D01*
X753195Y296500D02*
X755696Y299000D01*
X751500Y296500D02*
X753195D01*
X739000Y311000D02*
X743000D01*
X748912Y316912D01*
Y326912D01*
X749000Y327000D01*
X754000Y287000D02*
X765460Y298460D01*
X764000Y314696D02*
Y327000D01*
Y314696D02*
X764270Y314426D01*
Y314270D02*
Y314426D01*
Y314270D02*
X768000Y310540D01*
X754000Y268000D02*
Y287000D01*
X700999Y352999D02*
Y353087D01*
X707912Y360000D01*
X700916Y365460D02*
X713699D01*
X690473Y355017D02*
X700916Y365460D01*
X688017Y355017D02*
X690473D01*
X676544Y352544D02*
Y355088D01*
X691677Y370221D02*
X715358D01*
X676544Y355088D02*
X691677Y370221D01*
X707912Y360000D02*
X712738D01*
X724000Y348739D01*
Y327000D02*
Y348739D01*
X713699Y365460D02*
X729000Y350159D01*
Y327000D02*
Y350159D01*
X715358Y370221D02*
X734000Y351580D01*
Y327000D02*
Y351580D01*
X748452Y342548D02*
Y356389D01*
X711159Y383841D02*
X721000D01*
X743912Y327088D02*
Y354509D01*
X709278Y379301D02*
X719119D01*
X743912Y354509D01*
X721000Y383841D02*
X748452Y356389D01*
X738912Y327088D02*
Y353088D01*
X717239Y374761D02*
X738912Y353088D01*
X707398Y374761D02*
X717239D01*
X703159Y379000D02*
X707398Y374761D01*
X688696Y379000D02*
X703159D01*
X705040Y383540D02*
X709278Y379301D01*
X697460Y383540D02*
X705040D01*
X697000Y398000D02*
X711159Y383841D01*
X685000Y396000D02*
X697460Y383540D01*
X664426Y354730D02*
X688696Y379000D01*
X748452Y342548D02*
X753912Y337088D01*
Y327088D02*
Y337088D01*
X756000Y311000D02*
X759000Y314000D01*
Y327000D01*
X794000Y232000D02*
Y283000D01*
X758000Y199000D02*
Y231000D01*
X603339Y204459D02*
X619000D01*
X629168Y208999D02*
X635998D01*
X617928Y220240D02*
X629168Y208999D01*
X582696Y193000D02*
X605126Y170570D01*
X584576Y197540D02*
X607006Y175110D01*
X586457Y202080D02*
X608887Y179650D01*
X588337Y206620D02*
X610767Y184190D01*
X590218Y211160D02*
X612648Y188730D01*
X650351D01*
X661540Y199919D01*
X701919D01*
X610767Y184190D02*
X657031D01*
X667841Y195000D01*
X702000D01*
X608887Y179650D02*
X658912D01*
X669262Y190000D01*
X660792Y175110D02*
X670682Y185000D01*
X607006Y175110D02*
X660792D01*
X662673Y170570D02*
X672303Y180200D01*
X605126Y170570D02*
X662673D01*
X672303Y180200D02*
X712620D01*
X670682Y185000D02*
X711000D01*
X669262Y190000D02*
X702000D01*
X635998Y208999D02*
X640999Y214000D01*
X623000Y231000D02*
X641421D01*
X355000Y240000D02*
X702000D01*
X592098Y215700D02*
X603339Y204459D01*
X701919Y199919D02*
X702000Y200000D01*
X622528Y222060D02*
X631000D01*
X345000Y230000D02*
X355000Y240000D01*
X619588Y225000D02*
X622528Y222060D01*
X763000Y201600D02*
Y286000D01*
X596000Y160000D02*
X722000D01*
X573186Y182814D02*
X596000Y160000D01*
X562000Y182814D02*
X573186D01*
X478000Y275000D02*
X562000D01*
X544650Y190000D02*
X554813Y200164D01*
X292000Y190000D02*
X544650D01*
X549331Y213784D02*
X551247Y215700D01*
X549172Y213784D02*
X549331D01*
X540308Y204920D02*
X549172Y213784D01*
X307080Y204920D02*
X540308D01*
X551212Y209244D02*
X553128Y211160D01*
X551052Y209244D02*
X551212D01*
X541809Y200000D02*
X551052Y209244D01*
X296000Y200000D02*
X541809D01*
X553092Y204704D02*
X555008Y206620D01*
X552933Y204704D02*
X553092D01*
X543229Y195000D02*
X552933Y204704D01*
X293736Y195000D02*
X543229D01*
X554973Y200164D02*
X556889Y202080D01*
X554813Y200164D02*
X554973D01*
X556853Y195624D02*
X558769Y197540D01*
X556694Y195624D02*
X556853D01*
X549190Y188120D02*
X556694Y195624D01*
X549190Y187960D02*
Y188120D01*
X546230Y185000D02*
X549190Y187960D01*
X558734Y191084D02*
X560650Y193000D01*
X558574Y191084D02*
X558734D01*
X553730Y186239D02*
X558574Y191084D01*
X553730Y186080D02*
Y186239D01*
X547850Y180200D02*
X553730Y186080D01*
X573000Y174000D02*
X593000Y154000D01*
X570000Y169000D02*
X589540Y149460D01*
X593000Y154000D02*
X723000D01*
X589540Y149460D02*
X726460D01*
X549367Y220240D02*
X617928D01*
X549127Y220000D02*
X549367Y220240D01*
X522000Y220000D02*
X549127D01*
X551247Y215700D02*
X592098D01*
X553128Y211160D02*
X590218D01*
X555008Y206620D02*
X588337D01*
X556889Y202080D02*
X586457D01*
X558769Y197540D02*
X584576D01*
X560650Y193000D02*
X582696D01*
X290000Y185000D02*
X546230D01*
X287800Y180200D02*
X547850D01*
X702000Y205000D02*
X717000D01*
X702000Y220000D02*
X716520D01*
X702000Y225000D02*
X718000D01*
X764000Y173000D02*
Y193000D01*
X758000Y199000D02*
X764000Y193000D01*
X763000Y201600D02*
X769000Y195600D01*
X702488Y170000D02*
X705488Y173000D01*
X691000Y170000D02*
X702488D01*
X705488Y173000D02*
X719000D01*
X749000Y141000D02*
X765000Y125000D01*
X754000Y151000D02*
X765000Y140000D01*
X759000Y161000D02*
X765000Y155000D01*
X744000Y125000D02*
Y173000D01*
X749000Y141000D02*
Y173000D01*
X754000Y151000D02*
Y173000D01*
X759000Y161000D02*
Y173000D01*
X300000Y40000D02*
X327000Y13000D01*
X368000D01*
X300000Y55000D02*
X325000Y30000D01*
X368000D01*
X79000Y344000D02*
X99000Y364000D01*
X49500Y344000D02*
X79000D01*
X117500Y363000D02*
X126000Y354500D01*
X117500Y363000D02*
X130206D01*
X117000Y363500D02*
X117500Y363000D01*
X116500Y364000D02*
X117000Y363500D01*
X116500D02*
X117000D01*
X116000Y364000D02*
X116500Y363500D01*
X99000Y349000D02*
Y364000D01*
X236000Y430000D02*
Y447500D01*
X225000Y419000D02*
X236000Y430000D01*
X225000Y405000D02*
Y419000D01*
X200000Y380000D02*
X225000Y405000D01*
X240000Y420190D02*
X248810Y429000D01*
X240000Y403000D02*
Y420190D01*
X197425Y360425D02*
X240000Y403000D01*
X181020Y380000D02*
X200000D01*
X136000Y420566D02*
Y447500D01*
X119434Y404000D02*
X136000Y420566D01*
X62000Y404000D02*
X119434D01*
X38000Y380000D02*
X62000Y404000D01*
X34000Y380000D02*
X38000D01*
X116000D02*
X141020D01*
X74000D02*
X99000D01*
X126000Y348500D02*
Y354500D01*
X116000Y364000D02*
X116500D01*
X37000Y344000D02*
Y344597D01*
X28097Y353500D02*
X37000Y344597D01*
X26500Y353500D02*
X28097D01*
X105000Y325000D02*
X105250Y325250D01*
X116250D01*
X116500Y325500D01*
X24142Y323373D02*
X51373D01*
X17000Y316231D02*
X24142Y323373D01*
X17000Y268580D02*
Y316231D01*
X65480Y337480D02*
X157290D01*
X51373Y323373D02*
X65480Y337480D01*
X80000Y293400D02*
X119630D01*
X950000Y225000D02*
X975000Y200000D01*
X856000Y225000D02*
X950000D01*
X930000Y220000D02*
X975000Y175000D01*
X856000Y220000D02*
X930000D01*
X956000Y256000D02*
X975000Y275000D01*
X956000Y245000D02*
Y256000D01*
X951000Y240000D02*
X956000Y245000D01*
X970000Y300000D02*
X975000D01*
X956000Y286000D02*
X970000Y300000D01*
X956000Y270000D02*
Y286000D01*
X931000Y245000D02*
X956000Y270000D01*
X240000Y403000D02*
X253000D01*
X180235Y360425D02*
X197425D01*
X229000Y379000D02*
X252000D01*
X198000Y348000D02*
X229000Y379000D01*
X157290Y337480D02*
X180235Y360425D01*
X174651Y342000D02*
X179000D01*
X163000Y330349D02*
X174651Y342000D01*
X163000Y321000D02*
Y330349D01*
X174230Y348000D02*
X198000D01*
X119630Y293400D02*
X174230Y348000D01*
X248810Y429000D02*
X264000D01*
X253000Y419000D02*
X263000Y409000D01*
Y390000D02*
Y409000D01*
X252000Y379000D02*
X263000Y390000D01*
X245000Y10000D02*
X280000D01*
X220000Y35000D02*
X245000Y10000D01*
X297272Y286272D02*
Y289164D01*
X289000Y278000D02*
X297272Y286272D01*
X275480Y220520D02*
X296000Y200000D01*
X619000Y235000D02*
X623000Y231000D01*
X437000Y235000D02*
X619000D01*
X524000Y225000D02*
X619588D01*
X679616Y95000D02*
X791000D01*
X681497Y99540D02*
X792880D01*
X683378Y104080D02*
X794761D01*
X652377Y135080D02*
X683378Y104080D01*
X650497Y130540D02*
X681497Y99540D01*
X648616Y126000D02*
X679616Y95000D01*
X574000Y126000D02*
X648616D01*
X577460Y130540D02*
X650497D01*
X580420Y135080D02*
X652377D01*
X684878Y109000D02*
X863880D01*
X654258Y139620D02*
X684878Y109000D01*
X583380Y139620D02*
X654258D01*
X655000Y110000D02*
X679000Y86000D01*
X643500Y110000D02*
X655000D01*
X679000Y86000D02*
X811000D01*
X714000Y346000D02*
X719000Y341000D01*
Y327000D02*
Y341000D01*
X895000Y295000D02*
X900000Y300000D01*
X860540Y295000D02*
X895000D01*
X875000Y300000D02*
X900000Y325000D01*
X856000Y300000D02*
X875000D01*
X856000Y245000D02*
X931000D01*
X856000Y240000D02*
X951000D01*
X972850Y247850D02*
X975000D01*
X960000Y235000D02*
X972850Y247850D01*
X856000Y235000D02*
X960000D01*
X856000Y275000D02*
X875000D01*
X895000Y265000D02*
X905000Y275000D01*
X871250Y265000D02*
X895000D01*
X923000Y272000D02*
Y308000D01*
X911000Y260000D02*
X923000Y272000D01*
X856000Y260000D02*
X911000D01*
X929000Y271000D02*
Y289000D01*
X913000Y255000D02*
X929000Y271000D01*
X856000Y255000D02*
X913000D01*
X915000Y250000D02*
X933000Y268000D01*
X856000Y250000D02*
X915000D01*
X933000Y268000D02*
X940000Y275000D01*
X929000Y289000D02*
X940000Y300000D01*
X923000Y308000D02*
X940000Y325000D01*
X970000Y230000D02*
X975000Y225000D01*
X866250Y270000D02*
X871250Y265000D01*
X882000Y288000D02*
X890000Y280000D01*
X873000Y288000D02*
X882000D01*
X865000Y280000D02*
X873000Y288000D01*
X831912Y265088D02*
X855912D01*
X823000Y274000D02*
X831912Y265088D01*
X811000Y274000D02*
X823000D01*
X838000Y277000D02*
X845912Y284912D01*
X855912D01*
X856000Y285000D01*
X881000Y117000D02*
Y182000D01*
X873088Y189912D02*
X881000Y182000D01*
X856088Y189912D02*
X873088D01*
X863880Y109000D02*
X871000Y116119D01*
Y177000D01*
X855912Y199912D02*
X892088D01*
X899000Y108000D02*
Y193000D01*
X890460Y99460D02*
X899000Y108000D01*
X792961Y99460D02*
X890460D01*
X896920Y94920D02*
X908000Y106000D01*
X791080Y94920D02*
X896920D01*
X908000Y106000D02*
Y184460D01*
X892088Y199912D02*
X899000Y193000D01*
X890000Y110850D02*
Y185000D01*
X883150Y104000D02*
X890000Y110850D01*
X856000Y190000D02*
X856088Y189912D01*
X844000Y191412D02*
X847500Y194912D01*
X855912D01*
X856000Y195000D01*
Y230000D02*
X970000D01*
X856000Y220000D02*
X856088Y220088D01*
X791000Y95000D02*
X791080Y94920D01*
X792880Y99540D02*
X792961Y99460D01*
X794841Y104000D02*
X883150D01*
X794761Y104080D02*
X794841Y104000D01*
X792060Y81460D02*
X796520Y77000D01*
X679460Y81460D02*
X792060D01*
X666270Y68270D02*
X679460Y81460D01*
X796520Y77000D02*
X827000D01*
X778800Y40000D02*
X779000Y40200D01*
X751000Y40000D02*
X778800D01*
X804600Y40000D02*
X805000Y40400D01*
Y58116D01*
X799000Y64116D02*
X805000Y58116D01*
X799000Y64116D02*
Y65000D01*
X779000Y40200D02*
X779200Y40000D01*
X779000Y40200D02*
Y51000D01*
X783000Y55000D01*
Y65000D01*
X827000Y124000D02*
Y136000D01*
X811000Y124000D02*
Y136000D01*
X845980Y210000D02*
X856000D01*
X840980Y205000D02*
X845980Y210000D01*
X832000Y205000D02*
X840980D01*
X821000Y215000D02*
X856000D01*
X847400Y205000D02*
X856000D01*
Y295000D02*
X860540D01*
X856000D02*
X856000Y295000D01*
X789000Y154000D02*
Y173000D01*
X799000Y144000D02*
Y157000D01*
X794088Y161912D02*
X799000Y157000D01*
X794088Y161912D02*
Y172912D01*
X794000Y173000D02*
X794088Y172912D01*
X856000Y280000D02*
X865000D01*
X856000Y270000D02*
X866250D01*
X751000Y24000D02*
X765000D01*
X804000Y281000D02*
X811000Y274000D01*
X769730Y271730D02*
X776800Y278800D01*
X769730Y201948D02*
Y271730D01*
X784000Y173000D02*
Y198000D01*
X778000Y204000D02*
X784000Y198000D01*
X778000Y204000D02*
Y267000D01*
X769730Y201948D02*
X774000Y197678D01*
Y173000D02*
Y197678D01*
X769000Y173000D02*
Y195600D01*
X744000Y263120D02*
Y289000D01*
X735881Y255000D02*
X744000Y263120D01*
X702000Y255000D02*
X735881D01*
X181000Y55000D02*
X196000D01*
X134000Y93000D02*
Y176000D01*
X126000Y184000D02*
X134000Y176000D01*
X67000Y184000D02*
X126000D01*
X53000Y198000D02*
X67000Y184000D01*
X68421Y189000D02*
X141000D01*
X57540Y199881D02*
X68421Y189000D01*
X57540Y199881D02*
Y234460D01*
X53000Y198000D02*
Y232579D01*
X22000Y270000D02*
X57540Y234460D01*
X17000Y268580D02*
X53000Y232579D01*
X22000Y270000D02*
Y310000D01*
X264000Y429000D02*
Y457000D01*
X22000Y310000D02*
X25000Y313000D01*
X31000D01*
X814000Y427000D02*
Y447000D01*
X810000Y451000D02*
X814000Y447000D01*
X784988Y451000D02*
X810000D01*
X779218Y445230D02*
X784988Y451000D01*
X675648Y445230D02*
X779218D01*
X649878Y471000D02*
X675648Y445230D01*
X278000Y471000D02*
X649878D01*
X264000Y457000D02*
X278000Y471000D01*
X31000Y313000D02*
X51000D01*
X141000Y189000D02*
X148488Y196488D01*
Y214488D01*
X156524Y222524D01*
X166524D01*
X174000Y230000D01*
X65000Y318800D02*
X80000D01*
X59200Y313000D02*
X65000Y318800D01*
X51000Y313000D02*
X59200D01*
X303000Y278000D02*
X310000Y285000D01*
X294690Y269690D02*
X303000Y278000D01*
X272310Y269690D02*
X294690D01*
X272000Y262000D02*
X308000D01*
X314000Y268000D01*
X272000Y294000D02*
X284239D01*
X238740Y303460D02*
X247000Y295200D01*
X216540Y303460D02*
X238740D01*
X207000Y313000D02*
X216540Y303460D01*
X207000Y313000D02*
Y327000D01*
X231491Y308000D02*
X256579D01*
X223000Y316491D02*
X231491Y308000D01*
X223000Y316491D02*
Y327000D01*
X256579Y308000D02*
X266579Y318000D01*
X239270Y259270D02*
Y283309D01*
X229310Y293270D02*
X239270Y283309D01*
X213386Y293270D02*
X229310D01*
X250000Y255000D02*
Y279000D01*
X231190Y297810D02*
X250000Y279000D01*
X210810Y297810D02*
X231190D01*
X224810Y285190D02*
X225000Y285000D01*
X211727Y285190D02*
X224810D01*
X190043Y275000D02*
X215000D01*
X207093Y269907D02*
X212000Y265000D01*
X188716Y269907D02*
X207093D01*
X205000Y265000D02*
X215000Y255000D01*
X185000Y265000D02*
X205000D01*
X171043Y294000D02*
X190043Y275000D01*
X172622Y286000D02*
X188716Y269907D01*
X212000Y265000D02*
X225000D01*
X172566Y277434D02*
X185000Y265000D01*
X199000Y307425D02*
Y327000D01*
X187000Y314231D02*
X191000Y318231D01*
X187000Y312000D02*
Y314231D01*
X175000Y309304D02*
X194575Y289730D01*
X168450Y309434D02*
X192694Y285190D01*
X169463Y302000D02*
X190813Y280650D01*
X158000Y294000D02*
X171043D01*
X158000Y286000D02*
X172622D01*
X194575Y289730D02*
X202730D01*
X192694Y285190D02*
X205306D01*
X190813Y280650D02*
X207187D01*
X179000Y342000D02*
X182690Y338310D01*
Y327310D02*
Y338310D01*
Y327310D02*
X183000Y327000D01*
X158566Y309434D02*
X168450D01*
X158000Y302000D02*
X169463D01*
X175000Y309304D02*
Y327000D01*
X191000Y318231D02*
Y327000D01*
X198000Y348000D02*
X207000Y339000D01*
X205306Y285190D02*
X213386Y293270D01*
X202730Y289730D02*
X210810Y297810D01*
X207187Y280650D02*
X211727Y285190D01*
X280000Y403000D02*
X294077D01*
X294077Y403000D01*
X280000Y419000D02*
X294077D01*
X276000Y434267D02*
X292345D01*
X270000D02*
X276000D01*
X270000Y384000D02*
Y434267D01*
Y384000D02*
X283000Y371000D01*
X270000Y452512D02*
X283488Y466000D01*
X270000Y434267D02*
Y452512D01*
X385800Y285000D02*
X388340Y282460D01*
X310000Y285000D02*
X385800D01*
X336000Y277000D02*
X430000D01*
X313000Y254000D02*
X336000Y277000D01*
X272000Y254000D02*
X313000D01*
X158000Y246000D02*
X194575D01*
X203574Y237000D01*
X221000D01*
X228000Y230000D01*
X240000D01*
X225000Y245000D02*
X226491Y243509D01*
X224981Y245019D02*
X225000Y245000D01*
X207980Y245019D02*
X224981D01*
X225000Y242019D02*
Y245000D01*
X158000Y254000D02*
X199000D01*
X207980Y245019D01*
X158000Y310000D02*
X158566Y309434D01*
X301000Y211000D02*
X307080Y204920D01*
X300000Y211000D02*
X301000D01*
X218000Y230000D02*
X223000Y225000D01*
X174000Y230000D02*
X218000D01*
X158566Y277434D02*
X172566D01*
X235000Y255000D02*
X239270Y259270D01*
X255150Y313000D02*
X266150Y324000D01*
X235000Y313000D02*
X255150D01*
X258270Y303270D02*
X265000Y310000D01*
X258270Y243270D02*
Y303270D01*
X254000Y239000D02*
X258270Y243270D01*
X254000Y228000D02*
Y239000D01*
X272000Y278000D02*
X289000D01*
X254000Y228000D02*
X292000Y190000D01*
X183000Y199250D02*
Y213000D01*
X175000Y196000D02*
X179750D01*
X183000Y199250D01*
X191000Y146000D02*
Y213000D01*
X182000Y137000D02*
X191000Y146000D01*
X150000Y41000D02*
Y55000D01*
X265480Y209520D02*
X290000Y185000D01*
X256367Y209520D02*
X265480D01*
X255000Y210887D02*
X256367Y209520D01*
X255000Y210887D02*
Y213000D01*
X207000Y191000D02*
X210000Y188000D01*
Y112500D02*
Y188000D01*
X182500Y85000D02*
X210000Y112500D01*
X220000Y188000D02*
X223000Y191000D01*
X220000Y97000D02*
Y188000D01*
Y35000D02*
Y97000D01*
X198980Y135020D02*
Y212980D01*
X199000Y213000D01*
X375000Y230000D02*
X385150Y219850D01*
X435850D01*
X446312Y230312D01*
X432000Y230000D02*
X437000Y235000D01*
X390000Y230000D02*
X432000D01*
X490304Y215000D02*
X500304Y225000D01*
X375000Y215000D02*
X490304D01*
X360000Y230000D02*
X375000Y215000D01*
X503460Y209460D02*
X509000Y215000D01*
X328540Y209460D02*
X503460D01*
X292000Y246000D02*
X328540Y209460D01*
X517000Y225000D02*
X522000Y220000D01*
X500304Y225000D02*
X517000D01*
X269000Y199000D02*
X287800Y180200D01*
X260000Y228736D02*
X293736Y195000D01*
X446312Y230312D02*
X518688D01*
X524000Y225000D01*
X294000Y174000D02*
X573000Y174000D01*
X284000Y169000D02*
X570000Y169000D01*
X586840Y144160D02*
X729160D01*
X567000Y164000D02*
X586840Y144160D01*
X289000Y164000D02*
X567000Y164000D01*
X564368Y158632D02*
X583380Y139620D01*
X290212Y158632D02*
X564368D01*
X561408Y154092D02*
X580420Y135080D01*
X292092Y154092D02*
X561408D01*
X559000Y149000D02*
X577460Y130540D01*
X309000Y149000D02*
X559000D01*
X556000Y144000D02*
X574000Y126000D01*
X320000Y144000D02*
X556000Y144000D01*
X582000Y111000D02*
X591000D01*
X554000Y139000D02*
X582000Y111000D01*
X528000Y139000D02*
X554000D01*
X726460Y149460D02*
X734000Y157000D01*
X729000Y160000D02*
Y173000D01*
X723000Y154000D02*
X729000Y160000D01*
X723912Y161912D02*
Y172912D01*
X722000Y160000D02*
X723912Y161912D01*
X729160Y144160D02*
X739000Y154000D01*
X522000Y133000D02*
X528000Y139000D01*
X485981D02*
X491981Y133000D01*
X343000Y139000D02*
X485981D01*
X493000Y133000D02*
X522000D01*
X491981D02*
X493000D01*
Y132000D02*
Y133000D01*
X492000Y131000D02*
X493000Y132000D01*
X275480Y220520D02*
Y228633D01*
X274113Y230000D02*
X275480Y228633D01*
X272000Y230000D02*
X274113D01*
X622000Y292000D02*
X658579D01*
X603460Y310540D02*
X622000Y292000D01*
X307540Y310540D02*
X603460D01*
X612920Y315080D02*
X624000Y304000D01*
X305319Y315080D02*
X612920D01*
X633841Y324000D02*
X641421D01*
X629141Y328700D02*
X633841Y324000D01*
X299677Y328700D02*
X629141D01*
X633420Y318000D02*
X641000D01*
X627261Y324160D02*
X633420Y318000D01*
X301558Y324160D02*
X627261D01*
X625380Y319620D02*
X639000Y306000D01*
X303438Y319620D02*
X625380D01*
X659000Y283000D02*
X667000Y275000D01*
X614580Y283000D02*
X659000D01*
X661000Y309000D02*
X680000Y290000D01*
X662880Y313540D02*
X681421Y295000D01*
X682841Y300000D02*
X702000D01*
X664761Y318080D02*
X682841Y300000D01*
X680000Y315000D02*
X690000Y305000D01*
X650000Y309000D02*
X661000D01*
X651880Y313540D02*
X662880D01*
X661770Y318080D02*
X664761D01*
X615000Y277000D02*
X658579D01*
X596580Y265000D02*
X614580Y283000D01*
X598000Y260000D02*
X615000Y277000D01*
X419482Y265000D02*
X596580D01*
X367000Y260000D02*
X598000D01*
X355000Y268270D02*
X416212D01*
X419482Y265000D01*
X487696Y301000D02*
X544000D01*
X412600Y306000D02*
X482696D01*
X487696Y301000D01*
X469000Y293000D02*
X484000D01*
X462000Y300000D02*
X469000Y293000D01*
X294000Y174000D02*
X294000Y174000D01*
X458000Y123000D02*
Y123500D01*
Y107500D02*
Y123000D01*
X458000Y107500D02*
X458000Y107500D01*
X299659Y333500D02*
X662500D01*
X301539Y338040D02*
X680960D01*
X303420Y342580D02*
X704420D01*
X662500Y333500D02*
X667880Y328120D01*
X680960Y338040D02*
X690490Y328510D01*
X704420Y342580D02*
X712000Y335000D01*
X459000Y294000D02*
X478000Y275000D01*
X436000Y294000D02*
X459000D01*
X424460Y282460D02*
X436000Y294000D01*
X388340Y282460D02*
X424460D01*
X283000Y286000D02*
X307540Y310540D01*
X294977Y324000D02*
X299677Y328700D01*
X266150Y324000D02*
X294977D01*
X295398Y318000D02*
X301558Y324160D01*
X266579Y318000D02*
X295398D01*
X285819Y302000D02*
X303438Y319620D01*
X272000Y302000D02*
X285819D01*
X284239Y294000D02*
X305319Y315080D01*
X425000Y300000D02*
X462000D01*
X412000Y287000D02*
X425000Y300000D01*
X402330Y295730D02*
X412600Y306000D01*
X396000Y287000D02*
X412000D01*
X387000Y296000D02*
X396000Y287000D01*
X430000Y277000D02*
X434000Y281000D01*
X455000D01*
X389500Y130000D02*
X401954Y117546D01*
X351000Y130000D02*
X389500D01*
X337000Y133000D02*
X343000Y139000D01*
X337000Y85000D02*
Y133000D01*
Y85000D02*
X356500Y65500D01*
X361000Y414000D02*
X368000Y407000D01*
X343077Y414000D02*
X361000D01*
X296000Y357000D02*
X323000D01*
X293077Y359923D02*
X296000Y357000D01*
X293077Y359923D02*
Y371000D01*
X348000Y39000D02*
X375500D01*
X326000Y61000D02*
X348000Y39000D01*
X326000Y61000D02*
Y128000D01*
X401954Y103968D02*
Y117546D01*
X375500Y39000D02*
X384000Y30500D01*
Y30000D02*
Y30500D01*
X691000Y21000D02*
X735000Y65000D01*
X587000Y21000D02*
X691000D01*
X576000Y10000D02*
X587000Y21000D01*
X514730Y10000D02*
X576000D01*
X504730Y20000D02*
X514730Y10000D01*
X280000D02*
X295000Y25000D01*
X855912Y265088D02*
X856000Y265000D01*
X839088Y327088D02*
X848000D01*
X839000Y326712D02*
Y327000D01*
Y326712D02*
X839212Y326500D01*
X295239Y337920D02*
X299659Y333500D01*
X257054Y337920D02*
X295239D01*
X297120Y342460D02*
X301539Y338040D01*
X250920Y342460D02*
X297120D01*
X299000Y347000D02*
X303420Y342580D01*
X249000Y347000D02*
X299000D01*
X465000Y385000D02*
X473000Y393000D01*
X471000Y365000D02*
X531400D01*
X548000Y381600D01*
X723912Y172912D02*
X724000Y173000D01*
X762000Y344000D02*
X768912Y337088D01*
Y327088D02*
Y337088D01*
Y327088D02*
X769000Y327000D01*
X746000Y393000D02*
X759000D01*
X760000Y394000D01*
X770000D01*
X771000Y395000D01*
X787000Y373500D02*
X788000Y372500D01*
X787000Y373500D02*
Y395000D01*
X746000Y377000D02*
X746642D01*
X753142Y370500D01*
X756000D01*
X769000Y357500D01*
X769500D01*
X769794D01*
X774000Y353294D01*
Y327000D02*
Y353294D01*
X788000Y372500D02*
X788500D01*
X779000Y363500D02*
X788000Y372500D01*
X779000Y327000D02*
Y363500D01*
X873460Y360460D02*
Y371290D01*
X870250Y374500D02*
X873460Y371290D01*
X862000Y374500D02*
X870250D01*
X868810Y355810D02*
X873460Y360460D01*
X878000Y371000D02*
X881500Y374500D01*
X888000D01*
X824088Y327088D02*
Y338088D01*
X824000Y327000D02*
X824088Y327088D01*
X790000Y427000D02*
X790310Y427310D01*
Y442310D01*
X794000Y446000D01*
X802000D01*
X805690Y442310D01*
Y427310D02*
Y442310D01*
Y427310D02*
X806000Y427000D01*
X771000Y395000D02*
Y395250D01*
X782000Y406250D01*
Y427000D01*
X825000Y365000D02*
X838000D01*
X812000D02*
X825000D01*
X838000Y374500D02*
Y386000D01*
X814000Y410000D02*
X838000Y386000D01*
X814000Y410000D02*
Y427000D01*
X802000Y391000D02*
X811190Y381810D01*
X802000Y391000D02*
Y402000D01*
X798000Y406000D02*
X802000Y402000D01*
X798000Y406000D02*
Y427000D01*
X810190Y396810D02*
X811000Y396000D01*
X810190Y396810D02*
Y404810D01*
X806000Y409000D02*
X810190Y404810D01*
X806000Y409000D02*
Y427000D01*
X813512Y354227D02*
X819754D01*
X813273D02*
X813512D01*
X813912Y353826D01*
X812238Y355500D02*
X813512Y354227D01*
X822981Y351000D02*
X825000D01*
X819754Y354227D02*
X822981Y351000D01*
X812000Y355500D02*
X813273Y354227D01*
X813912Y327088D02*
Y353826D01*
X804100Y374850D02*
X809000D01*
X802000Y372750D02*
X804100Y374850D01*
X811190Y373690D02*
X812000Y374500D01*
Y355500D02*
X812238D01*
X813912Y327088D02*
X814000Y327000D01*
X753912Y327088D02*
X754000Y327000D01*
X685000Y396000D02*
Y415000D01*
X650000Y450000D02*
X685000Y415000D01*
X565600Y450000D02*
X650000D01*
X661000Y363000D02*
Y425000D01*
X655000Y431000D02*
X661000Y425000D01*
X648000Y431000D02*
X655000D01*
X576270Y354730D02*
X664426D01*
X576000Y355000D02*
X576270Y354730D01*
X473000Y393000D02*
Y407000D01*
X514000Y448000D01*
X532400D01*
X548000Y432400D01*
X361933Y47500D02*
X368000D01*
X353433Y56000D02*
X361933Y47500D01*
X356500Y65500D02*
X368000D01*
X476000Y29000D02*
X528400D01*
X548000Y48600D01*
X494480Y86520D02*
X535120D01*
X491500Y74000D02*
X523000D01*
X474000Y91500D02*
X491500Y74000D01*
X535120Y86520D02*
X548000Y99400D01*
X439077Y414000D02*
X451000D01*
X439077Y414000D02*
X439077Y414000D01*
X378000Y373500D02*
Y414000D01*
Y373500D02*
X389500Y362000D01*
X448000D01*
X455000Y369000D01*
Y378577D01*
X442577Y391000D02*
X455000Y378577D01*
X442077Y391000D02*
X442577D01*
X283488Y466000D02*
X358000D01*
X372730Y451270D01*
Y419270D02*
Y451270D01*
Y419270D02*
X378000Y414000D01*
X397077D01*
X283000Y371000D02*
X293077D01*
X292345Y434267D02*
X293077Y435000D01*
X310077Y418884D02*
Y419000D01*
Y403000D02*
Y418884D01*
X314962Y414000D01*
X343077D01*
X425869Y416792D02*
Y418292D01*
X441577Y434000D01*
X442077D01*
X397077Y414000D02*
X423077D01*
X343227Y426850D02*
X362850D01*
X343077Y426700D02*
X343227Y426850D01*
X381150D02*
X396927D01*
X397077Y426700D01*
X441577Y450000D02*
X442077D01*
X429272Y437694D02*
X441577Y450000D01*
X421772Y437694D02*
X429272D01*
X420077Y436000D02*
X421772Y437694D01*
X417339Y438738D02*
X420077Y436000D01*
X397739Y438738D02*
X417339D01*
X397077Y439400D02*
X397739Y438738D01*
X420027Y452050D02*
X420077Y452000D01*
X397127Y452050D02*
X420027D01*
X397077Y452100D02*
X397127Y452050D01*
X342527Y451550D02*
X343077Y452100D01*
X310627Y451550D02*
X342527D01*
X310077Y451000D02*
X310627Y451550D01*
X293077Y451000D02*
X293577D01*
X309577Y435000D01*
X310077D01*
X321000D01*
X325400Y439400D01*
X343077D01*
X293077Y387000D02*
X311077D01*
X312015Y387938D01*
X342415D01*
X343077Y388600D01*
X311077Y371000D02*
X311962D01*
X316862Y375900D01*
X343077D01*
X419077Y391000D02*
X421500Y388577D01*
X428000D01*
X441577Y375000D01*
X442077D01*
X417339Y389262D02*
X419077Y391000D01*
X397739Y389262D02*
X417339D01*
X397077Y388600D02*
X397739Y389262D01*
X418627Y375450D02*
X419077Y375000D01*
X397527Y375450D02*
X418627D01*
X397077Y375900D02*
X397527Y375450D01*
X397077Y401300D02*
X453300D01*
X509800Y457800D01*
X548000D01*
X364000Y374000D02*
Y394000D01*
X356700Y401300D02*
X364000Y394000D01*
X343077Y401300D02*
X356700D01*
X364000Y374000D02*
X381800Y356200D01*
X548000D01*
X353000Y82500D02*
X368000D01*
X352000Y101500D02*
X368000D01*
X432000Y13000D02*
X453000Y34000D01*
X384000Y13000D02*
X432000D01*
X430800Y21000D02*
X440050Y30250D01*
X393000Y21000D02*
X430800D01*
X384000Y30000D02*
X393000Y21000D01*
X440050Y30250D02*
Y49968D01*
X453000Y34000D02*
Y58000D01*
X447000Y64000D02*
X453000Y58000D01*
X431000Y64000D02*
X447000D01*
X402592Y92408D02*
X431000Y64000D01*
X402592Y92408D02*
Y103329D01*
X401954Y103968D02*
X402592Y103329D01*
X432500Y75500D02*
X458000D01*
X414650Y93350D02*
X432500Y75500D01*
X414650Y93350D02*
Y103968D01*
Y49968D02*
Y60850D01*
X410000Y65500D02*
X414650Y60850D01*
X384000Y65500D02*
X410000D01*
X384000Y67000D02*
Y82500D01*
Y101500D01*
X401954Y49098D02*
Y49968D01*
Y36080D02*
Y49098D01*
X400356Y47500D02*
X401954Y49098D01*
X384000Y47500D02*
X400356D01*
X406650Y30500D02*
Y31384D01*
X401954Y36080D02*
X406650Y31384D01*
X422650Y30500D02*
Y31384D01*
X427350Y36084D01*
Y49968D01*
X414650Y103968D02*
Y117916D01*
X457500Y91500D02*
X466000Y100000D01*
X458000Y123000D02*
X466000Y115000D01*
Y100000D02*
Y115000D01*
X429500Y91500D02*
X457500D01*
X428012Y92988D02*
X429500Y91500D01*
X428012Y92988D02*
Y103306D01*
X427350Y103968D02*
X428012Y103306D01*
X419350Y122616D02*
Y123500D01*
X414650Y117916D02*
X419350Y122616D01*
X435350D02*
Y123500D01*
Y122616D02*
X440050Y117916D01*
Y103968D02*
Y117916D01*
X502400Y120000D02*
X523000Y99400D01*
X486500Y120000D02*
X502400D01*
X483000Y123500D02*
X486500Y120000D01*
X474000Y123500D02*
X483000D01*
X474000Y107500D02*
X493000D01*
X474000Y75000D02*
Y75500D01*
Y75000D02*
X500400Y48600D01*
X523000D01*
X779000Y144000D02*
Y173000D01*
X855912Y189912D02*
X856000Y190000D01*
X276119Y144540D02*
X290212Y158632D01*
X248460Y144540D02*
X276119D01*
X278000Y140000D02*
X292092Y154092D01*
X245000Y140000D02*
X278000D01*
X278980Y153980D02*
X289000Y164000D01*
X253000Y153980D02*
X278980D01*
X279000Y164000D02*
X284000Y169000D01*
X264000Y164000D02*
X279000D01*
X308000Y132000D02*
X320000Y144000D01*
X305000Y129000D02*
X308000Y132000D01*
X286000Y129000D02*
X305000D01*
X299000Y139000D02*
X309000Y149000D01*
X632000Y98500D02*
X643500Y110000D01*
X624000Y383000D02*
X632000D01*
X617000D02*
X624000D01*
Y368000D02*
Y383000D01*
X640000Y34000D02*
X657000D01*
X666270Y43270D01*
Y68270D01*
X648000Y57500D02*
Y66000D01*
Y49000D02*
Y57500D01*
X657500D02*
X658000Y58000D01*
X648000Y57500D02*
X657500D01*
X648000Y90000D02*
Y98000D01*
Y82000D02*
Y90000D01*
X658000D01*
X658000Y90000D01*
X658579Y277000D02*
X665580Y270000D01*
X654000Y265000D02*
X702000D01*
X672000Y285000D02*
X702000D01*
X680000Y290000D02*
X702000D01*
X681421Y295000D02*
X702000D01*
X665580Y270000D02*
X702000D01*
X667000Y275000D02*
X702000D01*
X656477Y323373D02*
X661770Y318080D01*
X641421Y324000D02*
X651880Y313540D01*
X641000Y318000D02*
X650000Y309000D01*
X632000Y98000D02*
Y98500D01*
X585000Y87000D02*
X590000Y82000D01*
X601000D01*
X573000Y48600D02*
X573200Y48800D01*
X600800D01*
X601000Y49000D01*
X600500Y65500D02*
X601000Y66000D01*
X582970Y65500D02*
X600500D01*
X574470Y74000D02*
X582970Y65500D01*
X573000Y74000D02*
X574470D01*
X573000Y99400D02*
X573700Y98700D01*
X600300D01*
X601000Y98000D01*
X617000Y66500D02*
X632000Y81500D01*
X624500Y74000D02*
X632000Y66500D01*
X617000Y81500D02*
X624500Y74000D01*
X617000Y66000D02*
Y66500D01*
X632000Y81500D02*
Y82000D01*
Y66000D02*
Y66500D01*
X617000Y81500D02*
Y82000D01*
Y98000D01*
X632000Y97500D02*
Y98000D01*
Y97500D02*
X640000Y89500D01*
Y57500D02*
Y89500D01*
X632000Y49500D02*
X640000Y57500D01*
X632000Y49000D02*
Y49500D01*
X617000Y49000D02*
X632000D01*
X587000Y394000D02*
X589019D01*
X592690Y397671D01*
X599671D01*
X601000Y399000D01*
X624500Y407000D02*
X632000Y414500D01*
X617000Y399500D02*
X624500Y407000D01*
X617000Y414500D02*
X624500Y407000D01*
X617000Y414500D02*
X617000Y414500D01*
Y431000D01*
Y414500D02*
X621500Y410000D01*
X624500Y407000D02*
X632000Y399500D01*
Y399000D02*
Y399500D01*
X617000Y414500D02*
Y415000D01*
X632000Y414500D02*
Y415000D01*
X617000Y399000D02*
Y399500D01*
Y399000D02*
X617000Y399000D01*
X617000Y431000D02*
X617000Y431000D01*
X632000Y430500D02*
Y431000D01*
Y430500D02*
X640000Y422500D01*
Y391500D02*
Y422500D01*
X632000Y383500D02*
X640000Y391500D01*
X632000Y383000D02*
Y383500D01*
X600300Y382300D02*
X601000Y383000D01*
X573700Y382300D02*
X600300D01*
X573000Y381600D02*
X573700Y382300D01*
X573000Y407000D02*
X575470D01*
X583470Y415000D01*
X601000D01*
X573000Y432400D02*
X573700Y431700D01*
X600300D01*
X601000Y431000D01*
X548000Y432400D02*
X565600Y450000D01*
X648000Y415000D02*
Y431000D01*
Y383000D02*
Y399000D01*
Y370000D02*
Y383000D01*
X690000Y305000D02*
X702000D01*
X667880Y328120D02*
X678878D01*
X678999Y327999D01*
X690490Y323510D02*
X698000Y316000D01*
X690490Y323510D02*
Y328510D01*
X738912Y327088D02*
X739000Y327000D01*
X743912Y327088D02*
X744000Y327000D01*
X239000Y154000D02*
X248460Y144540D01*
X231020Y153980D02*
X245000Y140000D01*
X145434Y91446D02*
X148488Y94500D01*
X145434Y79434D02*
Y91446D01*
X143000Y77000D02*
X145434Y79434D01*
X134000Y77000D02*
X143000D01*
X134000Y55000D02*
Y77000D01*
X148488Y94500D02*
X157500D01*
X159250Y96250D01*
Y113250D01*
X161000Y115000D01*
X190000D02*
X190000Y115000D01*
X177000Y115000D02*
X190000D01*
X165000Y62500D02*
X180440Y77940D01*
X165000Y55000D02*
Y62500D01*
X150000Y55000D02*
X165000D01*
X180440Y77940D02*
Y84940D01*
X180500Y85000D01*
X169000Y78000D02*
Y95558D01*
X166500Y75500D02*
X169000Y78000D01*
X157500Y75500D02*
X166500D01*
X169000Y95558D02*
X177000Y103558D01*
Y115000D01*
X180500Y85000D02*
X182500D01*
X161020Y213000D02*
X175000D01*
X161000Y212980D02*
X161020Y213000D01*
X215000Y327000D02*
Y344000D01*
X125000Y278000D02*
X137434D01*
X145434Y270000D01*
X158000D01*
X207000Y327000D02*
Y339000D01*
X135000Y200000D02*
Y222524D01*
X142476Y230000D01*
X158000D01*
X120000Y200000D02*
Y217000D01*
X141000Y238000D01*
X158000D01*
X108800Y246000D02*
X158000D01*
X80000Y217200D02*
X108800Y246000D01*
X130206Y254000D02*
X158000D01*
X130186Y253980D02*
X130206Y254000D01*
X119814Y253980D02*
X130186D01*
X119794Y254000D02*
X119814Y253980D01*
X91400Y254000D02*
X119794D01*
X80000Y242600D02*
X91400Y254000D01*
X624000Y265000D02*
X638000D01*
X272000Y246000D02*
X292000D01*
X275000Y174000D02*
X294000D01*
X239000Y154000D02*
Y213000D01*
X231020Y153980D02*
Y212980D01*
X231000Y317000D02*
X235000Y313000D01*
X231000Y317000D02*
Y327000D01*
X272000Y270000D02*
X272310Y269690D01*
X272000Y286000D02*
X283000D01*
X862310Y355810D02*
X868810D01*
X909250Y373750D02*
X910000Y373000D01*
X888750Y373750D02*
X909250D01*
X888000Y374500D02*
X888750Y373750D01*
X862000Y355500D02*
X862310Y355810D01*
X838000Y374500D02*
X862000D01*
X850000Y365000D02*
X862000D01*
X838000D02*
X850000D01*
X910000Y341000D02*
X910000Y341000D01*
X910000Y341000D02*
Y357000D01*
X223000Y213000D02*
Y225000D01*
X207000Y191000D02*
Y213000D01*
X223000Y191000D02*
Y191250D01*
X215000Y199250D02*
X223000Y191250D01*
X215000Y199250D02*
Y213000D01*
X125000Y262000D02*
X158000D01*
X51000Y297000D02*
X52800Y295200D01*
X78200D01*
X80000Y293400D01*
X856000Y270000D02*
X856000Y270000D01*
X784000Y327000D02*
X784088Y326912D01*
X712000Y321000D02*
Y335000D01*
X824088Y154912D02*
X827000Y152000D01*
X824088Y154912D02*
Y172912D01*
X824000Y173000D02*
X824088Y172912D01*
X811000Y152000D02*
X813912Y154912D01*
Y172912D01*
X814000Y173000D01*
X340000Y268000D02*
X358000Y250000D01*
X325000Y230000D02*
Y231000D01*
X855912Y199912D02*
X856000Y200000D01*
X358000Y250000D02*
X702000Y250000D01*
X265000Y310000D02*
X272000D01*
X255566Y336432D02*
X257054Y337920D01*
X255566Y327566D02*
Y336432D01*
X255000Y327000D02*
X255566Y327566D01*
X247000Y338540D02*
X250920Y342460D01*
X247000Y327000D02*
Y338540D01*
X239566Y337566D02*
X249000Y347000D01*
X239000Y327000D02*
X239566Y327566D01*
Y337566D01*
X325000Y231000D02*
X339000Y245000D01*
X251000Y199000D02*
X269000D01*
X247000Y203000D02*
X251000Y199000D01*
X247000Y203000D02*
Y213000D01*
X158000Y278000D02*
X158566Y277434D01*
X231000Y213000D02*
X231020Y212980D01*
X339000Y245000D02*
X702000Y245000D01*
X739000Y154000D02*
Y173000D01*
X734000Y157000D02*
Y173000D01*
X271488Y237488D02*
X272000Y238000D01*
X261488Y237488D02*
X271488D01*
X260000Y236000D02*
X261488Y237488D01*
X260000Y228736D02*
Y236000D01*
X1000000Y0D02*
X1000000Y500000D01*
X0D02*
X1000000D01*
X0Y0D02*
X1000000D01*
X0D02*
Y500000D01*
D15*
X126000Y348500D02*
D03*
X135500Y325500D02*
D03*
X116500D02*
D03*
D16*
X116000Y364000D02*
D03*
Y380000D02*
D03*
X99000Y364000D02*
D03*
Y380000D02*
D03*
X293077Y387000D02*
D03*
Y371000D02*
D03*
X811000Y152000D02*
D03*
Y136000D02*
D03*
X827000Y152000D02*
D03*
Y136000D02*
D03*
X419077Y391000D02*
D03*
Y375000D02*
D03*
X311077Y387000D02*
D03*
Y371000D02*
D03*
X420077Y436000D02*
D03*
Y452000D02*
D03*
X310077Y435000D02*
D03*
Y451000D02*
D03*
X442077Y375000D02*
D03*
Y391000D02*
D03*
Y450000D02*
D03*
Y434000D02*
D03*
X293077Y451000D02*
D03*
Y435000D02*
D03*
X134000Y93000D02*
D03*
Y77000D02*
D03*
X51000Y297000D02*
D03*
Y313000D02*
D03*
D17*
X49500Y344000D02*
D03*
X26500Y334500D02*
D03*
Y353500D02*
D03*
X157500Y94500D02*
D03*
Y75500D02*
D03*
X180500Y85000D02*
D03*
D18*
X181020Y380000D02*
D03*
X141020D02*
D03*
X74000D02*
D03*
X34000D02*
D03*
D19*
X632000Y98000D02*
D03*
X648000D02*
D03*
X632000Y49000D02*
D03*
X648000D02*
D03*
X632000Y66000D02*
D03*
X648000D02*
D03*
X632000Y82000D02*
D03*
X648000D02*
D03*
X632000Y399000D02*
D03*
X648000D02*
D03*
X632000Y415000D02*
D03*
X648000D02*
D03*
X632000Y431000D02*
D03*
X648000D02*
D03*
X632000Y383000D02*
D03*
X648000D02*
D03*
X458000Y75500D02*
D03*
X474000D02*
D03*
X617000Y49000D02*
D03*
X601000D02*
D03*
X458000Y123500D02*
D03*
X474000D02*
D03*
X617000Y98000D02*
D03*
X601000D02*
D03*
X435350Y123500D02*
D03*
X419350D02*
D03*
X474000Y91500D02*
D03*
X458000D02*
D03*
X601000Y66000D02*
D03*
X617000D02*
D03*
X474000Y107500D02*
D03*
X458000D02*
D03*
X601000Y82000D02*
D03*
X617000D02*
D03*
X384000Y47500D02*
D03*
X368000D02*
D03*
X617000Y383000D02*
D03*
X601000D02*
D03*
X384000Y101500D02*
D03*
X368000D02*
D03*
X617000Y431000D02*
D03*
X601000D02*
D03*
X422650Y30500D02*
D03*
X406650D02*
D03*
X368000Y82500D02*
D03*
X384000D02*
D03*
X601000Y415000D02*
D03*
X617000D02*
D03*
X368000Y65500D02*
D03*
X384000D02*
D03*
X601000Y399000D02*
D03*
X617000D02*
D03*
X368000Y30000D02*
D03*
X384000D02*
D03*
X368000Y13000D02*
D03*
X384000D02*
D03*
X294077Y419000D02*
D03*
X310077D02*
D03*
X439077Y414000D02*
D03*
X423077D02*
D03*
X294077Y403000D02*
D03*
X310077D02*
D03*
X165000Y55000D02*
D03*
X181000D02*
D03*
X177000Y115000D02*
D03*
X161000D02*
D03*
X799000Y65000D02*
D03*
X783000D02*
D03*
D20*
X440050Y49968D02*
D03*
X427350D02*
D03*
X414650D02*
D03*
X401954D02*
D03*
Y103968D02*
D03*
X414650D02*
D03*
X427350D02*
D03*
X440050D02*
D03*
D21*
X343077Y452100D02*
D03*
Y439400D02*
D03*
Y426700D02*
D03*
Y414000D02*
D03*
Y401300D02*
D03*
Y388600D02*
D03*
Y375900D02*
D03*
X397077D02*
D03*
Y388600D02*
D03*
Y401300D02*
D03*
Y414000D02*
D03*
Y426700D02*
D03*
Y439400D02*
D03*
Y452100D02*
D03*
D22*
X150000Y55000D02*
D03*
X134000D02*
D03*
X207000Y191000D02*
D03*
X223000D02*
D03*
X771000Y395000D02*
D03*
X787000D02*
D03*
X638000Y265000D02*
D03*
X654000D02*
D03*
D23*
X888000Y374500D02*
D03*
Y355500D02*
D03*
X862000D02*
D03*
Y365000D02*
D03*
Y374500D02*
D03*
X812000Y355500D02*
D03*
Y365000D02*
D03*
Y374500D02*
D03*
X838000D02*
D03*
Y365000D02*
D03*
Y355500D02*
D03*
D24*
X910000Y357000D02*
D03*
Y373000D02*
D03*
X746000Y393000D02*
D03*
Y377000D02*
D03*
X751000Y24000D02*
D03*
Y40000D02*
D03*
X31000Y297000D02*
D03*
Y313000D02*
D03*
X125000Y278000D02*
D03*
Y262000D02*
D03*
D25*
X788500Y357500D02*
D03*
X769500D02*
D03*
Y372500D02*
D03*
X788500D02*
D03*
D26*
X814000Y427000D02*
D03*
X806000D02*
D03*
X798000D02*
D03*
X790000D02*
D03*
X782000D02*
D03*
D27*
X753500Y428000D02*
D03*
Y483000D02*
D03*
X842500D02*
D03*
Y428000D02*
D03*
D28*
X719000Y173000D02*
D03*
X724000D02*
D03*
X729000D02*
D03*
X734000D02*
D03*
X739000D02*
D03*
X744000D02*
D03*
X749000D02*
D03*
X754000D02*
D03*
X759000D02*
D03*
X764000D02*
D03*
X769000D02*
D03*
X774000D02*
D03*
X779000D02*
D03*
X784000D02*
D03*
X789000D02*
D03*
X794000D02*
D03*
X799000D02*
D03*
X804000D02*
D03*
X809000D02*
D03*
X814000D02*
D03*
X819000D02*
D03*
X824000D02*
D03*
X829000D02*
D03*
X834000D02*
D03*
X839000D02*
D03*
Y327000D02*
D03*
X834000D02*
D03*
X829000D02*
D03*
X824000D02*
D03*
X819000D02*
D03*
X814000D02*
D03*
X809000D02*
D03*
X804000D02*
D03*
X799000D02*
D03*
X794000D02*
D03*
X789000D02*
D03*
X784000D02*
D03*
X779000D02*
D03*
X774000D02*
D03*
X769000D02*
D03*
X764000D02*
D03*
X759000D02*
D03*
X754000D02*
D03*
X749000D02*
D03*
X744000D02*
D03*
X739000D02*
D03*
X734000D02*
D03*
X729000D02*
D03*
X724000D02*
D03*
X719000D02*
D03*
D29*
X856000Y190000D02*
D03*
Y195000D02*
D03*
Y200000D02*
D03*
Y205000D02*
D03*
Y210000D02*
D03*
Y215000D02*
D03*
Y220000D02*
D03*
Y225000D02*
D03*
Y230000D02*
D03*
Y235000D02*
D03*
Y240000D02*
D03*
Y245000D02*
D03*
Y250000D02*
D03*
Y255000D02*
D03*
Y260000D02*
D03*
Y265000D02*
D03*
Y270000D02*
D03*
Y275000D02*
D03*
Y280000D02*
D03*
Y285000D02*
D03*
Y290000D02*
D03*
Y295000D02*
D03*
Y300000D02*
D03*
Y305000D02*
D03*
Y310000D02*
D03*
X702000D02*
D03*
Y305000D02*
D03*
Y300000D02*
D03*
Y295000D02*
D03*
Y290000D02*
D03*
Y285000D02*
D03*
Y280000D02*
D03*
Y275000D02*
D03*
Y270000D02*
D03*
Y265000D02*
D03*
Y260000D02*
D03*
Y255000D02*
D03*
Y250000D02*
D03*
Y245000D02*
D03*
Y240000D02*
D03*
Y235000D02*
D03*
Y230000D02*
D03*
Y225000D02*
D03*
Y220000D02*
D03*
Y215000D02*
D03*
Y210000D02*
D03*
Y205000D02*
D03*
Y200000D02*
D03*
Y195000D02*
D03*
Y190000D02*
D03*
D30*
X175000Y327000D02*
D03*
X183000D02*
D03*
X191000D02*
D03*
X199000D02*
D03*
X207000D02*
D03*
X215000D02*
D03*
X223000D02*
D03*
X231000D02*
D03*
X239000D02*
D03*
X247000D02*
D03*
X255000D02*
D03*
Y213000D02*
D03*
X247000D02*
D03*
X239000D02*
D03*
X231000D02*
D03*
X223000D02*
D03*
X215000D02*
D03*
X207000D02*
D03*
X199000D02*
D03*
X191000D02*
D03*
X183000D02*
D03*
X175000D02*
D03*
D31*
X272000Y310000D02*
D03*
Y302000D02*
D03*
Y294000D02*
D03*
Y286000D02*
D03*
Y278000D02*
D03*
Y270000D02*
D03*
Y262000D02*
D03*
Y254000D02*
D03*
Y246000D02*
D03*
Y238000D02*
D03*
Y230000D02*
D03*
X158000D02*
D03*
Y238000D02*
D03*
Y246000D02*
D03*
Y254000D02*
D03*
Y262000D02*
D03*
Y270000D02*
D03*
Y278000D02*
D03*
Y286000D02*
D03*
Y294000D02*
D03*
Y302000D02*
D03*
Y310000D02*
D03*
D57*
X855500Y173500D02*
D03*
X702500Y326500D02*
D03*
X810000Y312000D02*
D03*
X829000D02*
D03*
X819754Y283000D02*
D03*
X788000Y345000D02*
D03*
X800000Y341000D02*
D03*
X797000Y312000D02*
D03*
X778000Y310540D02*
D03*
X717239Y291000D02*
D03*
X719000Y278000D02*
D03*
Y264000D02*
D03*
X868000Y343000D02*
D03*
X859000Y333000D02*
D03*
X809305Y195000D02*
D03*
X804600Y207000D02*
D03*
X831998Y188000D02*
D03*
X802000Y220000D02*
D03*
X852000Y151000D02*
D03*
X847000Y134912D02*
D03*
X842000Y119500D02*
D03*
X753000Y190000D02*
D03*
X738000Y188120D02*
D03*
X737000Y219761D02*
D03*
X682000Y220240D02*
D03*
X666059Y210000D02*
D03*
X739000Y311000D02*
D03*
X767999Y288999D02*
D03*
X756000Y311000D02*
D03*
X750000Y295000D02*
D03*
X700999Y352999D02*
D03*
X688000Y352544D02*
D03*
X674000D02*
D03*
X697000Y398000D02*
D03*
X794000Y232000D02*
D03*
X804000Y253000D02*
D03*
X619000Y204459D02*
D03*
X640999Y214000D02*
D03*
X641421Y231000D02*
D03*
X631000Y222060D02*
D03*
X753000Y236000D02*
D03*
X562000Y275000D02*
D03*
Y182814D02*
D03*
X717000Y205000D02*
D03*
X691000Y170000D02*
D03*
X744000Y125000D02*
D03*
X765000D02*
D03*
Y140000D02*
D03*
Y155000D02*
D03*
X300000Y40000D02*
D03*
Y55000D02*
D03*
X99000Y349000D02*
D03*
X130206Y363000D02*
D03*
X105000Y325000D02*
D03*
X37000Y344000D02*
D03*
X714000Y346000D02*
D03*
X900000Y300000D02*
D03*
X900000Y325000D02*
D03*
X875000Y275000D02*
D03*
X905000D02*
D03*
X940000Y325000D02*
D03*
Y300000D02*
D03*
Y275000D02*
D03*
X838000Y277000D02*
D03*
X871000Y177000D02*
D03*
X855575Y122000D02*
D03*
X890000Y280000D02*
D03*
X908000Y184460D02*
D03*
X890000Y185000D02*
D03*
X881000Y117000D02*
D03*
X827000Y77000D02*
D03*
X811000Y86000D02*
D03*
X827000Y124000D02*
D03*
X811000D02*
D03*
X832000Y205000D02*
D03*
X779000Y144000D02*
D03*
X799000D02*
D03*
X789000Y154000D02*
D03*
X765000Y24000D02*
D03*
X804000Y281000D02*
D03*
X779000D02*
D03*
X754000Y268000D02*
D03*
X778000Y267000D02*
D03*
X196000Y55000D02*
D03*
X253000Y403000D02*
D03*
Y419000D02*
D03*
X163000Y321000D02*
D03*
X303000Y278000D02*
D03*
X247000Y295200D02*
D03*
X225000Y285000D02*
D03*
X215000Y275000D02*
D03*
X199000Y307425D02*
D03*
X187000Y312000D02*
D03*
X280000Y419000D02*
D03*
Y403000D02*
D03*
X225000Y245000D02*
D03*
X240000Y230000D02*
D03*
X300000Y211000D02*
D03*
X215000Y255000D02*
D03*
X235000D02*
D03*
X250000D02*
D03*
X225000Y265000D02*
D03*
X314000Y268000D02*
D03*
X289000Y278000D02*
D03*
X175000Y196000D02*
D03*
X150000Y41000D02*
D03*
X220000Y97000D02*
D03*
X198980Y135020D02*
D03*
X182000Y137000D02*
D03*
X390000Y230000D02*
D03*
X375000D02*
D03*
X509000Y215000D02*
D03*
X360000Y230000D02*
D03*
X345000D02*
D03*
X591000Y111000D02*
D03*
X493000Y133000D02*
D03*
X522000D02*
D03*
X658579Y292000D02*
D03*
X680000Y315000D02*
D03*
X624000Y304000D02*
D03*
X639000Y306000D02*
D03*
X484000Y293000D02*
D03*
X544000Y301000D02*
D03*
X351000Y130000D02*
D03*
X368000Y407000D02*
D03*
X387000Y296000D02*
D03*
X323000Y357000D02*
D03*
X326000Y128000D02*
D03*
X735000Y65000D02*
D03*
X504730Y20000D02*
D03*
X295000Y25000D02*
D03*
X848000Y327088D02*
D03*
X821000Y215000D02*
D03*
X471000Y365000D02*
D03*
X465000Y385000D02*
D03*
X762000Y344000D02*
D03*
X759000Y393000D02*
D03*
X811000Y396000D02*
D03*
X825000Y351000D02*
D03*
X661000Y363000D02*
D03*
X353433Y56000D02*
D03*
X476000Y45000D02*
D03*
Y29000D02*
D03*
X493000Y107500D02*
D03*
X494480Y86520D02*
D03*
X363000Y427000D02*
D03*
X381000D02*
D03*
X402330Y295730D02*
D03*
X455000Y281000D02*
D03*
X353000Y82500D02*
D03*
X352000Y101500D02*
D03*
X624000Y368000D02*
D03*
X640000Y34000D02*
D03*
X658000Y58000D02*
D03*
Y90000D02*
D03*
X672000Y285000D02*
D03*
X585000Y87000D02*
D03*
X587000Y394000D02*
D03*
X648000Y370000D02*
D03*
X656477Y323373D02*
D03*
X678999Y327999D02*
D03*
X576000Y355000D02*
D03*
X286000Y129000D02*
D03*
X299000Y139000D02*
D03*
X190000Y115000D02*
D03*
X161000Y212980D02*
D03*
X451000Y414000D02*
D03*
X215000Y344000D02*
D03*
X137434Y278000D02*
D03*
X120000Y200000D02*
D03*
X135000D02*
D03*
X624000Y265000D02*
D03*
X253000Y153980D02*
D03*
X264000Y164000D02*
D03*
X275000Y174000D02*
D03*
X825000Y365000D02*
D03*
X850000D02*
D03*
X910000Y341000D02*
D03*
X733000Y268000D02*
D03*
X355000Y268270D02*
D03*
X367000Y260000D02*
D03*
X325000Y230000D02*
D03*
X340000Y268000D02*
D03*
D58*
X136000Y447500D02*
D03*
X186000D02*
D03*
X236000D02*
D03*
D59*
X975000Y225400D02*
D03*
Y200000D02*
D03*
Y174600D02*
D03*
Y300400D02*
D03*
Y275000D02*
D03*
Y249600D02*
D03*
X523000Y99400D02*
D03*
Y74000D02*
D03*
Y48600D02*
D03*
X548000Y457800D02*
D03*
Y432400D02*
D03*
Y407000D02*
D03*
Y381600D02*
D03*
Y356200D02*
D03*
X523000Y432400D02*
D03*
Y407000D02*
D03*
Y381600D02*
D03*
X573000Y432400D02*
D03*
Y407000D02*
D03*
Y381600D02*
D03*
X548000Y124800D02*
D03*
Y99400D02*
D03*
Y74000D02*
D03*
Y48600D02*
D03*
Y23200D02*
D03*
X880800Y40000D02*
D03*
X855400D02*
D03*
X830000D02*
D03*
X804600D02*
D03*
X80000Y217200D02*
D03*
Y242600D02*
D03*
Y268000D02*
D03*
Y293400D02*
D03*
X573000Y48600D02*
D03*
Y74000D02*
D03*
Y99400D02*
D03*
D60*
X50000Y50000D02*
D03*
Y450000D02*
D03*
X950000D02*
D03*
Y50000D02*
D03*
D61*
X820000Y453000D02*
D03*
X776000D02*
D03*
D62*
X779200Y40000D02*
D03*
D63*
X80000Y318800D02*
D03*
M02*
