G04*
G04 #@! TF.GenerationSoftware,Altium Limited,Altium Designer,19.0.4 (130)*
G04*
G04 Layer_Color=128*
%FSLAX44Y44*%
%MOMM*%
G71*
G01*
G75*
%ADD66C,0.0508*%
D66*
X128500Y447500D02*
X143500D01*
X136000Y440000D02*
Y455000D01*
X178500Y447500D02*
X193500D01*
X186000Y440000D02*
Y455000D01*
X228500Y447500D02*
X243500D01*
X236000Y440000D02*
Y455000D01*
X969250Y225400D02*
X980750D01*
X975000Y219650D02*
Y231150D01*
X969250Y200000D02*
X980750D01*
X975000Y194250D02*
Y205750D01*
X969250Y174600D02*
X980750D01*
X975000Y168850D02*
Y180350D01*
X969250Y300400D02*
X980750D01*
X975000Y294650D02*
Y306150D01*
X969250Y275000D02*
X980750D01*
X975000Y269250D02*
Y280750D01*
X969250Y249600D02*
X980750D01*
X975000Y243850D02*
Y255350D01*
X517250Y99400D02*
X528750D01*
X523000Y93650D02*
Y105150D01*
X517250Y74000D02*
X528750D01*
X523000Y68250D02*
Y79750D01*
X517250Y48600D02*
X528750D01*
X523000Y42850D02*
Y54350D01*
X542250Y457800D02*
X553750D01*
X548000Y452050D02*
Y463550D01*
X542250Y432400D02*
X553750D01*
X548000Y426650D02*
Y438150D01*
X542250Y407000D02*
X553750D01*
X548000Y401250D02*
Y412750D01*
X542250Y381600D02*
X553750D01*
X548000Y375850D02*
Y387350D01*
X542250Y356200D02*
X553750D01*
X548000Y350450D02*
Y361950D01*
X517250Y432400D02*
X528750D01*
X523000Y426650D02*
Y438150D01*
X517250Y407000D02*
X528750D01*
X523000Y401250D02*
Y412750D01*
X517250Y381600D02*
X528750D01*
X523000Y375850D02*
Y387350D01*
X567250Y432400D02*
X578750D01*
X573000Y426650D02*
Y438150D01*
X567250Y407000D02*
X578750D01*
X573000Y401250D02*
Y412750D01*
X567250Y381600D02*
X578750D01*
X573000Y375850D02*
Y387350D01*
X542250Y124800D02*
X553750D01*
X548000Y119050D02*
Y130550D01*
X542250Y99400D02*
X553750D01*
X548000Y93650D02*
Y105150D01*
X542250Y74000D02*
X553750D01*
X548000Y68250D02*
Y79750D01*
X542250Y48600D02*
X553750D01*
X548000Y42850D02*
Y54350D01*
X542250Y23200D02*
X553750D01*
X548000Y17450D02*
Y28950D01*
X30000Y50000D02*
X70000D01*
X50000Y30000D02*
Y70000D01*
X30000Y450000D02*
X70000D01*
X50000Y430000D02*
Y470000D01*
X930000Y450000D02*
X970000D01*
X950000Y430000D02*
Y470000D01*
X930000Y50000D02*
X970000D01*
X950000Y30000D02*
Y70000D01*
X815500Y453000D02*
X824500D01*
X820000Y448500D02*
Y457500D01*
X771500Y453000D02*
X780500D01*
X776000Y448500D02*
Y457500D01*
X875050Y40000D02*
X886550D01*
X880800Y34250D02*
Y45750D01*
X849650Y40000D02*
X861150D01*
X855400Y34250D02*
Y45750D01*
X824250Y40000D02*
X835750D01*
X830000Y34250D02*
Y45750D01*
X798850Y40000D02*
X810350D01*
X804600Y34250D02*
Y45750D01*
X773450Y40000D02*
X784950D01*
X779200Y34250D02*
Y45750D01*
X74250Y217200D02*
X85750D01*
X80000Y211450D02*
Y222950D01*
X74250Y242600D02*
X85750D01*
X80000Y236850D02*
Y248350D01*
X74250Y268000D02*
X85750D01*
X80000Y262250D02*
Y273750D01*
X74250Y293400D02*
X85750D01*
X80000Y287650D02*
Y299150D01*
X74250Y318800D02*
X85750D01*
X80000Y313050D02*
Y324550D01*
X567250Y48600D02*
X578750D01*
X573000Y42850D02*
Y54350D01*
X567250Y74000D02*
X578750D01*
X573000Y68250D02*
Y79750D01*
X567250Y99400D02*
X578750D01*
X573000Y93650D02*
Y105150D01*
X807500Y312000D02*
X812500D01*
X810000Y309500D02*
Y314500D01*
X826500Y312000D02*
X831500D01*
X829000Y309500D02*
Y314500D01*
X817254Y283000D02*
X822254D01*
X819754Y280500D02*
Y285500D01*
X785500Y345000D02*
X790500D01*
X788000Y342500D02*
Y347500D01*
X797500Y341000D02*
X802500D01*
X800000Y338500D02*
Y343500D01*
X794500Y312000D02*
X799500D01*
X797000Y309500D02*
Y314500D01*
X775500Y310540D02*
X780500D01*
X778000Y308040D02*
Y313040D01*
X714739Y291000D02*
X719739D01*
X717239Y288500D02*
Y293500D01*
X716500Y278000D02*
X721500D01*
X719000Y275500D02*
Y280500D01*
X716500Y264000D02*
X721500D01*
X719000Y261500D02*
Y266500D01*
X865500Y343000D02*
X870500D01*
X868000Y340500D02*
Y345500D01*
X856500Y333000D02*
X861500D01*
X859000Y330500D02*
Y335500D01*
X806805Y195000D02*
X811805D01*
X809305Y192500D02*
Y197500D01*
X802100Y207000D02*
X807100D01*
X804600Y204500D02*
Y209500D01*
X829498Y188000D02*
X834498D01*
X831998Y185500D02*
Y190500D01*
X799500Y220000D02*
X804500D01*
X802000Y217500D02*
Y222500D01*
X849500Y151000D02*
X854500D01*
X852000Y148500D02*
Y153500D01*
X844500Y134912D02*
X849500D01*
X847000Y132412D02*
Y137412D01*
X839500Y119500D02*
X844500D01*
X842000Y117000D02*
Y122000D01*
X750500Y190000D02*
X755500D01*
X753000Y187500D02*
Y192500D01*
X735500Y188120D02*
X740500D01*
X738000Y185620D02*
Y190620D01*
X734500Y219761D02*
X739500D01*
X737000Y217261D02*
Y222261D01*
X679500Y220240D02*
X684500D01*
X682000Y217740D02*
Y222740D01*
X663559Y210000D02*
X668559D01*
X666059Y207500D02*
Y212500D01*
X736500Y311000D02*
X741500D01*
X739000Y308500D02*
Y313500D01*
X765499Y288999D02*
X770499D01*
X767999Y286499D02*
Y291499D01*
X753500Y311000D02*
X758500D01*
X756000Y308500D02*
Y313500D01*
X747500Y295000D02*
X752500D01*
X750000Y292500D02*
Y297500D01*
X698499Y352999D02*
X703499D01*
X700999Y350499D02*
Y355499D01*
X685500Y352544D02*
X690500D01*
X688000Y350044D02*
Y355044D01*
X671500Y352544D02*
X676500D01*
X674000Y350044D02*
Y355044D01*
X694500Y398000D02*
X699500D01*
X697000Y395500D02*
Y400500D01*
X791500Y232000D02*
X796500D01*
X794000Y229500D02*
Y234500D01*
X801500Y253000D02*
X806500D01*
X804000Y250500D02*
Y255500D01*
X616500Y204459D02*
X621500D01*
X619000Y201959D02*
Y206959D01*
X638499Y214000D02*
X643499D01*
X640999Y211500D02*
Y216500D01*
X638921Y231000D02*
X643921D01*
X641421Y228500D02*
Y233500D01*
X628500Y222060D02*
X633500D01*
X631000Y219560D02*
Y224560D01*
X750500Y236000D02*
X755500D01*
X753000Y233500D02*
Y238500D01*
X559500Y275000D02*
X564500D01*
X562000Y272500D02*
Y277500D01*
X559500Y182814D02*
X564500D01*
X562000Y180314D02*
Y185314D01*
X714500Y205000D02*
X719500D01*
X717000Y202500D02*
Y207500D01*
X688500Y170000D02*
X693500D01*
X691000Y167500D02*
Y172500D01*
X741500Y125000D02*
X746500D01*
X744000Y122500D02*
Y127500D01*
X762500Y125000D02*
X767500D01*
X765000Y122500D02*
Y127500D01*
X762500Y140000D02*
X767500D01*
X765000Y137500D02*
Y142500D01*
X762500Y155000D02*
X767500D01*
X765000Y152500D02*
Y157500D01*
X297500Y40000D02*
X302500D01*
X300000Y37500D02*
Y42500D01*
X297500Y55000D02*
X302500D01*
X300000Y52500D02*
Y57500D01*
X96500Y349000D02*
X101500D01*
X99000Y346500D02*
Y351500D01*
X127706Y363000D02*
X132706D01*
X130206Y360500D02*
Y365500D01*
X102500Y325000D02*
X107500D01*
X105000Y322500D02*
Y327500D01*
X34500Y344000D02*
X39500D01*
X37000Y341500D02*
Y346500D01*
X711500Y346000D02*
X716500D01*
X714000Y343500D02*
Y348500D01*
X897500Y300000D02*
X902500D01*
X900000Y297500D02*
Y302500D01*
X897500Y325000D02*
X902500D01*
X900000Y322500D02*
Y327500D01*
X872500Y275000D02*
X877500D01*
X875000Y272500D02*
Y277500D01*
X902500Y275000D02*
X907500D01*
X905000Y272500D02*
Y277500D01*
X937500Y325000D02*
X942500D01*
X940000Y322500D02*
Y327500D01*
X937500Y300000D02*
X942500D01*
X940000Y297500D02*
Y302500D01*
X937500Y275000D02*
X942500D01*
X940000Y272500D02*
Y277500D01*
X835500Y277000D02*
X840500D01*
X838000Y274500D02*
Y279500D01*
X868500Y177000D02*
X873500D01*
X871000Y174500D02*
Y179500D01*
X853075Y122000D02*
X858075D01*
X855575Y119500D02*
Y124500D01*
X887500Y280000D02*
X892500D01*
X890000Y277500D02*
Y282500D01*
X905500Y184460D02*
X910500D01*
X908000Y181960D02*
Y186960D01*
X887500Y185000D02*
X892500D01*
X890000Y182500D02*
Y187500D01*
X878500Y117000D02*
X883500D01*
X881000Y114500D02*
Y119500D01*
X824500Y77000D02*
X829500D01*
X827000Y74500D02*
Y79500D01*
X808500Y86000D02*
X813500D01*
X811000Y83500D02*
Y88500D01*
X824500Y124000D02*
X829500D01*
X827000Y121500D02*
Y126500D01*
X808500Y124000D02*
X813500D01*
X811000Y121500D02*
Y126500D01*
X829500Y205000D02*
X834500D01*
X832000Y202500D02*
Y207500D01*
X776500Y144000D02*
X781500D01*
X779000Y141500D02*
Y146500D01*
X796500Y144000D02*
X801500D01*
X799000Y141500D02*
Y146500D01*
X786500Y154000D02*
X791500D01*
X789000Y151500D02*
Y156500D01*
X762500Y24000D02*
X767500D01*
X765000Y21500D02*
Y26500D01*
X801500Y281000D02*
X806500D01*
X804000Y278500D02*
Y283500D01*
X776500Y281000D02*
X781500D01*
X779000Y278500D02*
Y283500D01*
X751500Y268000D02*
X756500D01*
X754000Y265500D02*
Y270500D01*
X775500Y267000D02*
X780500D01*
X778000Y264500D02*
Y269500D01*
X193500Y55000D02*
X198500D01*
X196000Y52500D02*
Y57500D01*
X250500Y403000D02*
X255500D01*
X253000Y400500D02*
Y405500D01*
X250500Y419000D02*
X255500D01*
X253000Y416500D02*
Y421500D01*
X160500Y321000D02*
X165500D01*
X163000Y318500D02*
Y323500D01*
X300500Y278000D02*
X305500D01*
X303000Y275500D02*
Y280500D01*
X244500Y295200D02*
X249500D01*
X247000Y292700D02*
Y297700D01*
X222500Y285000D02*
X227500D01*
X225000Y282500D02*
Y287500D01*
X212500Y275000D02*
X217500D01*
X215000Y272500D02*
Y277500D01*
X196500Y307425D02*
X201500D01*
X199000Y304926D02*
Y309925D01*
X184500Y312000D02*
X189500D01*
X187000Y309500D02*
Y314500D01*
X277500Y419000D02*
X282500D01*
X280000Y416500D02*
Y421500D01*
X277500Y403000D02*
X282500D01*
X280000Y400500D02*
Y405500D01*
X222500Y245000D02*
X227500D01*
X225000Y242500D02*
Y247500D01*
X237500Y230000D02*
X242500D01*
X240000Y227500D02*
Y232500D01*
X297500Y211000D02*
X302500D01*
X300000Y208500D02*
Y213500D01*
X212500Y255000D02*
X217500D01*
X215000Y252500D02*
Y257500D01*
X232500Y255000D02*
X237500D01*
X235000Y252500D02*
Y257500D01*
X247500Y255000D02*
X252500D01*
X250000Y252500D02*
Y257500D01*
X222500Y265000D02*
X227500D01*
X225000Y262500D02*
Y267500D01*
X311500Y268000D02*
X316500D01*
X314000Y265500D02*
Y270500D01*
X286500Y278000D02*
X291500D01*
X289000Y275500D02*
Y280500D01*
X172500Y196000D02*
X177500D01*
X175000Y193500D02*
Y198500D01*
X147500Y41000D02*
X152500D01*
X150000Y38500D02*
Y43500D01*
X217500Y97000D02*
X222500D01*
X220000Y94500D02*
Y99500D01*
X196480Y135020D02*
X201480D01*
X198980Y132520D02*
Y137520D01*
X179500Y137000D02*
X184500D01*
X182000Y134500D02*
Y139500D01*
X387500Y230000D02*
X392500D01*
X390000Y227500D02*
Y232500D01*
X372500Y230000D02*
X377500D01*
X375000Y227500D02*
Y232500D01*
X506500Y215000D02*
X511500D01*
X509000Y212500D02*
Y217500D01*
X357500Y230000D02*
X362500D01*
X360000Y227500D02*
Y232500D01*
X342500Y230000D02*
X347500D01*
X345000Y227500D02*
Y232500D01*
X588500Y111000D02*
X593500D01*
X591000Y108500D02*
Y113500D01*
X490500Y133000D02*
X495500D01*
X493000Y130500D02*
Y135500D01*
X519500Y133000D02*
X524500D01*
X522000Y130500D02*
Y135500D01*
X656079Y292000D02*
X661079D01*
X658579Y289500D02*
Y294500D01*
X677500Y315000D02*
X682500D01*
X680000Y312500D02*
Y317500D01*
X621500Y304000D02*
X626500D01*
X624000Y301500D02*
Y306500D01*
X636500Y306000D02*
X641500D01*
X639000Y303500D02*
Y308500D01*
X481500Y293000D02*
X486500D01*
X484000Y290500D02*
Y295500D01*
X541500Y301000D02*
X546500D01*
X544000Y298500D02*
Y303500D01*
X348500Y130000D02*
X353500D01*
X351000Y127500D02*
Y132500D01*
X365500Y407000D02*
X370500D01*
X368000Y404500D02*
Y409500D01*
X384500Y296000D02*
X389500D01*
X387000Y293500D02*
Y298500D01*
X320500Y357000D02*
X325500D01*
X323000Y354500D02*
Y359500D01*
X323500Y128000D02*
X328500D01*
X326000Y125500D02*
Y130500D01*
X732500Y65000D02*
X737500D01*
X735000Y62500D02*
Y67500D01*
X502230Y20000D02*
X507230D01*
X504730Y17500D02*
Y22500D01*
X292500Y25000D02*
X297500D01*
X295000Y22500D02*
Y27500D01*
X845500Y327088D02*
X850500D01*
X848000Y324588D02*
Y329588D01*
X818500Y215000D02*
X823500D01*
X821000Y212500D02*
Y217500D01*
X468500Y365000D02*
X473500D01*
X471000Y362500D02*
Y367500D01*
X462500Y385000D02*
X467500D01*
X465000Y382500D02*
Y387500D01*
X759500Y344000D02*
X764500D01*
X762000Y341500D02*
Y346500D01*
X756500Y393000D02*
X761500D01*
X759000Y390500D02*
Y395500D01*
X808500Y396000D02*
X813500D01*
X811000Y393500D02*
Y398500D01*
X822500Y351000D02*
X827500D01*
X825000Y348500D02*
Y353500D01*
X658500Y363000D02*
X663500D01*
X661000Y360500D02*
Y365500D01*
X350933Y56000D02*
X355933D01*
X353433Y53500D02*
Y58500D01*
X473500Y45000D02*
X478500D01*
X476000Y42500D02*
Y47500D01*
X473500Y29000D02*
X478500D01*
X476000Y26500D02*
Y31500D01*
X490500Y107500D02*
X495500D01*
X493000Y105000D02*
Y110000D01*
X491980Y86520D02*
X496980D01*
X494480Y84020D02*
Y89020D01*
X360500Y427000D02*
X365500D01*
X363000Y424500D02*
Y429500D01*
X378500Y427000D02*
X383500D01*
X381000Y424500D02*
Y429500D01*
X399830Y295730D02*
X404830D01*
X402330Y293230D02*
Y298230D01*
X452500Y281000D02*
X457500D01*
X455000Y278500D02*
Y283500D01*
X350500Y82500D02*
X355500D01*
X353000Y80000D02*
Y85000D01*
X349500Y101500D02*
X354500D01*
X352000Y99000D02*
Y104000D01*
X621500Y368000D02*
X626500D01*
X624000Y365500D02*
Y370500D01*
X637500Y34000D02*
X642500D01*
X640000Y31500D02*
Y36500D01*
X655500Y58000D02*
X660500D01*
X658000Y55500D02*
Y60500D01*
X655500Y90000D02*
X660500D01*
X658000Y87500D02*
Y92500D01*
X669500Y285000D02*
X674500D01*
X672000Y282500D02*
Y287500D01*
X582500Y87000D02*
X587500D01*
X585000Y84500D02*
Y89500D01*
X584500Y394000D02*
X589500D01*
X587000Y391500D02*
Y396500D01*
X645500Y370000D02*
X650500D01*
X648000Y367500D02*
Y372500D01*
X653977Y323373D02*
X658977D01*
X656477Y320873D02*
Y325873D01*
X676499Y327999D02*
X681499D01*
X678999Y325499D02*
Y330499D01*
X573500Y355000D02*
X578500D01*
X576000Y352500D02*
Y357500D01*
X283500Y129000D02*
X288500D01*
X286000Y126500D02*
Y131500D01*
X296500Y139000D02*
X301500D01*
X299000Y136500D02*
Y141500D01*
X187500Y115000D02*
X192500D01*
X190000Y112500D02*
Y117500D01*
X158500Y212980D02*
X163500D01*
X161000Y210480D02*
Y215480D01*
X448500Y414000D02*
X453500D01*
X451000Y411500D02*
Y416500D01*
X212500Y344000D02*
X217500D01*
X215000Y341500D02*
Y346500D01*
X134934Y278000D02*
X139934D01*
X137434Y275500D02*
Y280500D01*
X117500Y200000D02*
X122500D01*
X120000Y197500D02*
Y202500D01*
X132500Y200000D02*
X137500D01*
X135000Y197500D02*
Y202500D01*
X621500Y265000D02*
X626500D01*
X624000Y262500D02*
Y267500D01*
X250500Y153980D02*
X255500D01*
X253000Y151480D02*
Y156480D01*
X261500Y164000D02*
X266500D01*
X264000Y161500D02*
Y166500D01*
X272500Y174000D02*
X277500D01*
X275000Y171500D02*
Y176500D01*
X822500Y365000D02*
X827500D01*
X825000Y362500D02*
Y367500D01*
X847500Y365000D02*
X852500D01*
X850000Y362500D02*
Y367500D01*
X907500Y341000D02*
X912500D01*
X910000Y338500D02*
Y343500D01*
X730500Y268000D02*
X735500D01*
X733000Y265500D02*
Y270500D01*
X352500Y268270D02*
X357500D01*
X355000Y265770D02*
Y270770D01*
X364500Y260000D02*
X369500D01*
X367000Y257500D02*
Y262500D01*
X322500Y230000D02*
X327500D01*
X325000Y227500D02*
Y232500D01*
X337500Y268000D02*
X342500D01*
X340000Y265500D02*
Y270500D01*
M02*
