M48
;Layer_Color=9474304
;FILE_FORMAT=4:4
METRIC,LZ
;TYPE=PLATED
T1F00S00C0.5000
T2F00S00C1.1500
T3F00S00C1.5000
T4F00S00C4.0000
%
T01
X0015Y00041
X00196Y00055
X0019Y00115
X0019898Y0013502
X00182Y00137
X0022Y00097
X00286Y00129
X00299Y00139
X00326Y00128
X00351Y0013
X00352Y001015
X00353Y000825
X00353433Y00056
X003Y00055
Y0004
X00295Y00025
X00476Y00029
Y00045
X0050473Y0002
X0049448Y0008652
X00493Y001075
Y00133
X00522
X00591Y00111
X00585Y00087
X00658Y0009
Y00058
X0064Y00034
X00735Y00065
X00744Y00125
X00765
Y0014
X00811Y00124
X00827
X00842Y001195
X00855575Y00122
X00847Y00134912
X00881Y00117
X00827Y00077
X00811Y00086
X00765Y00024
X0094Y00275
Y003
Y00325
X009
X009Y003
X00905Y00275
X0089Y0028
X00875Y00275
X00838Y00277
X00819754Y00283
X00804Y00281
X00779
X00778Y00267
X00754Y00268
X00733
X00719Y00264
Y00278
X00717239Y00291
X0075Y00295
X00756Y00311
X00739
X00778Y0031054
X00797Y00312
X0081
X00829
X00848Y00327088
X00859Y00333
X00868Y00343
X0085Y00365
X00825
Y00351
X008Y00341
X00788Y00345
X00762Y00344
X00714Y00346
X00700999Y00352999
X00688Y00352544
X00674
X00661Y00363
X00648Y0037
X00624Y00368
X00576Y00355
X00587Y00394
X00697Y00398
X00759Y00393
X00811Y00396
X00804Y00253
X00794Y00232
X00802Y0022
X008046Y00207
X00809305Y00195
X00831998Y00188
X00832Y00205
X00821Y00215
X00871Y00177
X0089Y00185
X00908Y0018446
X00852Y00151
X00799Y00144
X00779
X00789Y00154
X00765Y00155
X00753Y0019
X00738Y0018812
X00737Y00219761
X00753Y00236
X00717Y00205
X00682Y0022024
X00666059Y0021
X00640999Y00214
X00641421Y00231
X00631Y0022206
X00619Y00204459
X00624Y00265
Y00304
X00639Y00306
X00658579Y00292
X00672Y00285
X0068Y00315
X00678999Y00327999
X00656477Y00323373
X00544Y00301
X00562Y00275
Y00182814
X00691Y0017
X00767999Y00288999
X0091Y00341
X00471Y00365
X00465Y00385
X00451Y00414
X00381Y00427
X00363
X00368Y00407
X0028Y00403
Y00419
X00253
Y00403
X00215Y00344
X00199Y00307425
X00187Y00312
X00163Y00321
X00215Y00275
X00225Y00285
Y00265
Y00245
X00215Y00255
X00235
X0025
X0024Y0023
X00247Y002952
X00289Y00278
X00303
X00314Y00268
X0034
X00355Y0026827
X00367Y0026
X0036Y0023
X00375
X0039
X00345
X00325
X003Y00211
X00275Y00174
X00264Y00164
X00253Y0015398
X00175Y00196
X00161Y0021298
X00323Y00357
X00387Y00296
X0040233Y0029573
X00455Y00281
X00484Y00293
X00509Y00215
X00135Y002
X0012
X00137434Y00278
X00105Y00325
X00099Y00349
X00130206Y00363
X00037Y00344
T02
X00523Y000486
Y00074
Y000994
X00548
X00573
Y00074
X00548
Y000486
X00573
X00548Y000232
Y001248
X007792Y0004
X008046
X0083
X008554
X008808
X00975Y001746
Y002
Y002254
Y002496
Y00275
Y003004
X00548Y003562
Y003816
X00573
Y00407
X00548
Y004324
X00573
X00548Y004578
X00523Y004324
Y00407
Y003816
X0008Y003188
Y002934
Y00268
Y002426
Y002172
T03
X00186Y004475
X00236
X00136
T04
X0005Y0005
X0095
Y0045
X0005
M30
